{"glyphs":{"0":{"ha":826,"x_min":86,"x_max":740,"o":"m 413 839 q 654 738 568 839 q 740 408 740 638 q 654 80 740 181 q 413 -21 568 -21 q 172 80 258 -21 q 86 408 86 181 q 172 738 86 638 q 413 839 257 839 m 414 744 q 261 672 315 744 q 207 408 207 600 q 261 146 207 218 q 414 74 315 74 q 566 147 511 74 q 621 408 621 219 q 566 672 621 600 q 414 744 511 744 z "},"1":{"ha":686,"x_min":61,"x_max":644,"o":"m 361 818 l 431 818 l 428 96 l 644 96 l 644 0 l 89 0 l 89 96 l 319 96 l 321 656 l 122 492 l 61 567 l 361 818 z "},"2":{"ha":756,"x_min":47,"x_max":701,"o":"m 47 111 q 249 282 118 175 q 404 415 361 374 q 483 508 457 465 q 508 599 508 551 q 462 706 508 668 q 344 743 415 743 q 242 723 294 743 q 150 664 190 703 l 81 729 q 206 817 135 788 q 353 846 278 846 q 489 818 426 846 q 589 737 551 790 q 626 610 626 683 q 588 487 626 549 q 478 357 550 425 q 301 206 426 308 q 169 96 213 133 l 550 96 l 622 211 l 701 169 l 603 0 l 85 0 l 47 111 z "},"3":{"ha":708,"x_min":54,"x_max":646,"o":"m 346 469 q 451 510 413 469 q 490 618 490 551 q 449 709 490 675 q 338 743 407 743 q 231 722 283 743 q 146 668 179 701 l 71 740 q 188 813 117 788 q 346 839 260 839 q 536 778 464 839 q 608 618 608 717 q 572 496 608 550 q 474 418 535 442 q 598 352 550 406 q 646 225 646 299 q 608 97 646 153 q 502 10 571 40 q 343 -21 433 -21 q 54 75 154 -21 l 125 154 q 233 93 185 111 q 347 75 281 75 q 478 116 428 75 q 528 224 528 157 q 469 333 528 292 q 315 374 411 374 l 251 374 l 251 469 l 346 469 z "},"4":{"ha":767,"x_min":35,"x_max":696,"o":"m 308 0 l 308 96 l 454 96 l 454 229 l 36 229 l 35 281 l 315 864 l 407 813 l 172 324 l 454 324 l 454 697 l 567 697 l 565 324 l 696 325 l 696 229 l 565 229 l 565 96 l 690 96 l 690 0 l 308 0 z "},"5":{"ha":715,"x_min":68,"x_max":653,"o":"m 226 500 q 385 549 300 549 q 578 479 504 549 q 653 282 653 410 q 574 57 653 135 q 346 -21 494 -21 q 189 10 264 -21 q 68 100 114 42 l 153 157 q 237 95 186 117 q 350 74 288 74 q 488 124 440 74 q 535 267 535 175 q 481 403 535 354 q 350 453 428 453 q 259 434 304 453 q 178 379 214 415 l 114 408 l 114 818 l 594 818 l 594 721 l 226 721 l 226 500 z "},"6":{"ha":765,"x_min":89,"x_max":703,"o":"m 614 694 q 560 720 611 696 q 453 744 510 744 q 265 647 322 744 q 204 413 208 549 q 293 483 233 453 q 425 513 353 513 q 624 451 546 513 q 703 246 703 390 q 676 126 703 188 q 581 22 649 65 q 401 -21 514 -21 q 89 401 89 -21 q 133 622 89 522 q 258 781 176 722 q 450 839 340 839 q 553 825 506 839 q 632 794 600 811 q 664 775 664 776 l 614 694 m 425 418 q 290 392 349 418 q 207 319 231 365 q 272 124 217 175 q 411 74 326 74 q 508 99 468 74 q 569 163 549 124 q 589 246 589 203 q 548 374 589 329 q 425 418 507 418 z "},"7":{"ha":711,"x_min":46,"x_max":683,"o":"m 683 758 q 467 378 538 579 q 386 0 397 176 l 272 0 q 355 353 292 169 q 533 722 418 538 l 161 722 l 142 636 l 46 657 l 76 818 l 683 818 l 683 758 z "},"8":{"ha":739,"x_min":81,"x_max":658,"o":"m 368 839 q 565 776 486 839 q 643 604 643 714 q 606 491 643 543 q 504 422 568 439 q 615 356 571 413 q 658 226 658 300 q 619 91 658 147 q 513 7 579 35 q 369 -21 447 -21 q 226 7 292 -21 q 120 91 160 35 q 81 226 81 147 q 124 356 81 300 q 235 422 168 413 q 133 491 171 439 q 96 604 96 543 q 132 731 96 678 q 231 811 168 783 q 368 839 293 839 m 369 744 q 256 705 297 744 q 214 604 214 665 q 256 503 214 542 q 369 464 297 464 q 483 503 442 464 q 525 604 525 542 q 483 705 525 665 q 369 744 442 744 m 369 375 q 244 333 288 375 q 200 226 200 292 q 247 117 200 160 q 369 74 294 74 q 492 117 444 74 q 539 226 539 160 q 495 333 539 292 q 369 375 451 375 z "},"9":{"ha":768,"x_min":74,"x_max":694,"o":"m 164 124 q 219 99 167 124 q 347 74 271 74 q 517 158 469 74 q 572 372 565 242 q 481 298 540 329 q 351 267 422 267 q 152 335 231 267 q 74 563 74 403 q 101 687 74 624 q 195 794 128 750 q 375 839 263 839 q 615 730 535 839 q 694 414 694 621 q 640 151 694 249 q 505 17 585 54 q 338 -21 425 -21 q 228 -7 278 -21 q 145 24 178 7 q 113 43 113 42 l 164 124 m 365 744 q 233 688 279 744 q 188 546 188 632 q 230 414 188 467 q 351 361 272 361 q 492 392 436 361 q 572 478 549 424 q 508 690 564 636 q 365 744 453 744 z "},"\u0000":{"ha":0,"x_min":0,"x_max":0,"o":""},"\r":{"ha":349,"x_min":0,"x_max":0,"o":""}," ":{"ha":349,"x_min":0,"x_max":0,"o":""},"A":{"ha":904,"x_min":14,"x_max":890,"o":"m 14 0 l 14 96 l 147 96 l 378 722 l 238 722 l 238 818 l 507 818 l 758 96 l 890 96 l 890 0 l 553 0 l 553 96 l 640 96 l 596 222 l 296 222 l 249 96 l 338 96 l 338 0 l 14 0 m 331 318 l 563 318 l 453 678 l 331 318 z "},"Á":{"ha":904,"x_min":14,"x_max":890,"o":"m 14 0 l 14 96 l 147 96 l 378 722 l 238 722 l 238 818 l 507 818 l 758 96 l 890 96 l 890 0 l 553 0 l 553 96 l 640 96 l 596 222 l 296 222 l 249 96 l 338 96 l 338 0 l 14 0 m 331 318 l 563 318 l 453 678 l 331 318 m 653 1067 l 678 965 l 328 900 l 315 950 l 653 1067 z "},"Ă":{"ha":904,"x_min":14,"x_max":890,"o":"m 14 0 l 14 96 l 147 96 l 378 722 l 238 722 l 238 818 l 507 818 l 758 96 l 890 96 l 890 0 l 553 0 l 553 96 l 640 96 l 596 222 l 296 222 l 249 96 l 338 96 l 338 0 l 14 0 m 331 318 l 563 318 l 453 678 l 331 318 m 440 903 q 295 945 350 903 q 224 1069 240 988 l 314 1086 q 440 992 329 992 q 568 1086 556 992 l 658 1069 q 586 945 642 988 q 440 903 531 903 z "},"Ắ":{"ha":904,"x_min":14,"x_max":890,"o":"m 14 0 l 14 96 l 147 96 l 378 722 l 238 722 l 238 818 l 507 818 l 758 96 l 890 96 l 890 0 l 553 0 l 553 96 l 640 96 l 596 222 l 296 222 l 249 96 l 338 96 l 338 0 l 14 0 m 331 318 l 563 318 l 453 678 l 331 318 m 440 903 q 295 945 350 903 q 224 1069 240 988 l 314 1086 q 440 992 329 992 q 568 1086 556 992 l 658 1069 q 586 945 642 988 q 440 903 531 903 m 693 1268 l 718 1167 l 368 1101 l 356 1151 l 693 1268 z "},"Ặ":{"ha":904,"x_min":14,"x_max":890,"o":"m 14 0 l 14 96 l 147 96 l 378 722 l 238 722 l 238 818 l 507 818 l 758 96 l 890 96 l 890 0 l 553 0 l 553 96 l 640 96 l 596 222 l 296 222 l 249 96 l 338 96 l 338 0 l 14 0 m 331 318 l 563 318 l 453 678 l 331 318 m 451 -81 q 514 -104 490 -81 q 538 -167 538 -128 q 514 -229 538 -206 q 451 -253 490 -253 q 390 -229 413 -253 q 367 -167 367 -206 q 390 -104 367 -128 q 451 -81 413 -81 m 440 903 q 295 945 350 903 q 224 1069 240 988 l 314 1086 q 440 992 329 992 q 568 1086 556 992 l 658 1069 q 586 945 642 988 q 440 903 531 903 z "},"Ằ":{"ha":904,"x_min":14,"x_max":890,"o":"m 14 0 l 14 96 l 147 96 l 378 722 l 238 722 l 238 818 l 507 818 l 758 96 l 890 96 l 890 0 l 553 0 l 553 96 l 640 96 l 596 222 l 296 222 l 249 96 l 338 96 l 338 0 l 14 0 m 331 318 l 563 318 l 453 678 l 331 318 m 440 903 q 295 945 350 903 q 224 1069 240 988 l 314 1086 q 440 992 329 992 q 568 1086 556 992 l 658 1069 q 586 945 642 988 q 440 903 531 903 m 228 1260 l 565 1143 l 553 1093 l 203 1158 l 228 1260 z "},"Ẳ":{"ha":904,"x_min":14,"x_max":890,"o":"m 14 0 l 14 96 l 147 96 l 378 722 l 238 722 l 238 818 l 507 818 l 758 96 l 890 96 l 890 0 l 553 0 l 553 96 l 640 96 l 596 222 l 296 222 l 249 96 l 338 96 l 338 0 l 14 0 m 331 318 l 563 318 l 453 678 l 331 318 m 440 903 q 295 945 350 903 q 224 1069 240 988 l 314 1086 q 440 992 329 992 q 568 1086 556 992 l 658 1069 q 586 945 642 988 q 440 903 531 903 m 407 1138 q 440 1177 428 1154 q 453 1221 453 1200 q 442 1251 453 1240 q 411 1263 432 1263 q 346 1226 376 1263 l 297 1282 q 357 1329 322 1313 q 428 1346 392 1346 q 510 1315 476 1346 q 543 1231 543 1285 q 442 1094 543 1164 l 407 1138 z "},"Ẵ":{"ha":904,"x_min":14,"x_max":890,"o":"m 14 0 l 14 96 l 147 96 l 378 722 l 238 722 l 238 818 l 507 818 l 758 96 l 890 96 l 890 0 l 553 0 l 553 96 l 640 96 l 596 222 l 296 222 l 249 96 l 338 96 l 338 0 l 14 0 m 331 318 l 563 318 l 453 678 l 331 318 m 217 1207 q 296 1251 265 1239 q 369 1264 326 1264 q 422 1256 400 1264 q 475 1232 444 1249 q 511 1214 496 1219 q 543 1208 526 1208 q 579 1217 564 1208 q 633 1254 594 1225 l 660 1181 q 591 1133 619 1146 q 529 1121 563 1121 q 490 1128 508 1121 q 446 1150 471 1136 q 403 1171 422 1164 q 367 1178 385 1178 q 315 1172 336 1178 q 272 1154 294 1165 q 239 1139 249 1143 l 217 1207 m 440 903 q 295 945 350 903 q 224 1069 240 988 l 314 1086 q 440 992 329 992 q 568 1086 556 992 l 658 1069 q 586 945 642 988 q 440 903 531 903 z "},"Â":{"ha":904,"x_min":14,"x_max":890,"o":"m 14 0 l 14 96 l 147 96 l 378 722 l 238 722 l 238 818 l 507 818 l 758 96 l 890 96 l 890 0 l 553 0 l 553 96 l 640 96 l 596 222 l 296 222 l 249 96 l 338 96 l 338 0 l 14 0 m 331 318 l 563 318 l 453 678 l 331 318 m 442 1081 l 679 946 l 654 901 l 442 979 l 229 901 l 204 946 l 442 1081 z "},"Ấ":{"ha":904,"x_min":14,"x_max":890,"o":"m 14 0 l 14 96 l 147 96 l 378 722 l 238 722 l 238 818 l 507 818 l 758 96 l 890 96 l 890 0 l 553 0 l 553 96 l 640 96 l 596 222 l 296 222 l 249 96 l 338 96 l 338 0 l 14 0 m 331 318 l 563 318 l 453 678 l 331 318 m 539 1288 l 589 1196 l 326 1092 l 304 1138 l 539 1288 m 442 1081 l 679 946 l 654 901 l 442 979 l 229 901 l 204 946 l 442 1081 z "},"Ậ":{"ha":904,"x_min":14,"x_max":890,"o":"m 14 0 l 14 96 l 147 96 l 378 722 l 238 722 l 238 818 l 507 818 l 758 96 l 890 96 l 890 0 l 553 0 l 553 96 l 640 96 l 596 222 l 296 222 l 249 96 l 338 96 l 338 0 l 14 0 m 331 318 l 563 318 l 453 678 l 331 318 m 451 -81 q 514 -104 490 -81 q 538 -167 538 -128 q 514 -229 538 -206 q 451 -253 490 -253 q 390 -229 413 -253 q 367 -167 367 -206 q 390 -104 367 -128 q 451 -81 413 -81 m 442 1081 l 679 946 l 654 901 l 442 979 l 229 901 l 204 946 l 442 1081 z "},"Ầ":{"ha":904,"x_min":14,"x_max":890,"o":"m 14 0 l 14 96 l 147 96 l 378 722 l 238 722 l 238 818 l 507 818 l 758 96 l 890 96 l 890 0 l 553 0 l 553 96 l 640 96 l 596 222 l 296 222 l 249 96 l 338 96 l 338 0 l 14 0 m 331 318 l 563 318 l 453 678 l 331 318 m 346 1278 l 581 1128 l 558 1082 l 296 1186 l 346 1278 m 442 1081 l 679 946 l 654 901 l 442 979 l 229 901 l 204 946 l 442 1081 z "},"Ẩ":{"ha":904,"x_min":14,"x_max":890,"o":"m 14 0 l 14 96 l 147 96 l 378 722 l 238 722 l 238 818 l 507 818 l 758 96 l 890 96 l 890 0 l 553 0 l 553 96 l 640 96 l 596 222 l 296 222 l 249 96 l 338 96 l 338 0 l 14 0 m 331 318 l 563 318 l 453 678 l 331 318 m 442 1081 l 679 946 l 654 901 l 442 979 l 229 901 l 204 946 l 442 1081 m 549 1090 q 582 1130 569 1107 q 594 1174 594 1153 q 584 1204 594 1193 q 553 1215 574 1215 q 488 1179 518 1215 l 439 1235 q 499 1282 464 1265 q 569 1299 533 1299 q 651 1268 618 1299 q 685 1183 685 1238 q 583 1047 685 1117 l 549 1090 z "},"Ẫ":{"ha":904,"x_min":14,"x_max":890,"o":"m 14 0 l 14 96 l 147 96 l 378 722 l 238 722 l 238 818 l 507 818 l 758 96 l 890 96 l 890 0 l 553 0 l 553 96 l 640 96 l 596 222 l 296 222 l 249 96 l 338 96 l 338 0 l 14 0 m 331 318 l 563 318 l 453 678 l 331 318 m 226 1179 q 306 1224 275 1211 q 379 1236 336 1236 q 432 1228 410 1236 q 485 1204 454 1221 q 521 1186 506 1192 q 553 1181 536 1181 q 589 1189 574 1181 q 643 1226 604 1197 l 669 1153 q 601 1106 629 1118 q 539 1093 572 1093 q 499 1101 518 1093 q 456 1122 481 1108 q 413 1143 432 1136 q 376 1150 394 1150 q 325 1144 346 1150 q 281 1126 304 1138 q 249 1111 258 1115 l 226 1179 m 447 1079 l 685 944 l 660 900 l 447 978 l 235 900 l 210 944 l 447 1079 z "},"Ȁ":{"ha":904,"x_min":14,"x_max":890,"o":"m 14 0 l 14 96 l 147 96 l 378 722 l 238 722 l 238 818 l 507 818 l 758 96 l 890 96 l 890 0 l 553 0 l 553 96 l 640 96 l 596 222 l 296 222 l 249 96 l 338 96 l 338 0 l 14 0 m 331 318 l 563 318 l 453 678 l 331 318 m 325 1121 l 528 940 l 500 901 l 269 1043 l 325 1121 m 119 1060 l 368 947 l 350 903 l 86 971 l 119 1060 z "},"Ä":{"ha":904,"x_min":14,"x_max":890,"o":"m 14 0 l 14 96 l 147 96 l 378 722 l 238 722 l 238 818 l 507 818 l 758 96 l 890 96 l 890 0 l 553 0 l 553 96 l 640 96 l 596 222 l 296 222 l 249 96 l 338 96 l 338 0 l 14 0 m 331 318 l 563 318 l 453 678 l 331 318 m 318 1082 q 372 1059 349 1082 q 396 1004 396 1036 q 373 949 396 972 q 318 926 350 926 q 263 949 286 926 q 240 1004 240 972 q 263 1059 240 1036 q 318 1082 286 1082 m 565 1082 q 619 1059 596 1082 q 643 1004 643 1036 q 620 949 643 972 q 565 926 597 926 q 510 949 533 926 q 488 1004 488 972 q 510 1059 488 1036 q 565 1082 533 1082 z "},"Ạ":{"ha":904,"x_min":14,"x_max":890,"o":"m 14 0 l 14 96 l 147 96 l 378 722 l 238 722 l 238 818 l 507 818 l 758 96 l 890 96 l 890 0 l 553 0 l 553 96 l 640 96 l 596 222 l 296 222 l 249 96 l 338 96 l 338 0 l 14 0 m 331 318 l 563 318 l 453 678 l 331 318 m 451 -81 q 514 -104 490 -81 q 538 -167 538 -128 q 514 -229 538 -206 q 451 -253 490 -253 q 390 -229 413 -253 q 367 -167 367 -206 q 390 -104 367 -128 q 451 -81 413 -81 z "},"À":{"ha":904,"x_min":14,"x_max":890,"o":"m 14 0 l 14 96 l 147 96 l 378 722 l 238 722 l 238 818 l 507 818 l 758 96 l 890 96 l 890 0 l 553 0 l 553 96 l 640 96 l 596 222 l 296 222 l 249 96 l 338 96 l 338 0 l 14 0 m 331 318 l 563 318 l 453 678 l 331 318 m 188 1058 l 525 942 l 513 892 l 163 957 l 188 1058 z "},"Ả":{"ha":904,"x_min":14,"x_max":890,"o":"m 14 0 l 14 96 l 147 96 l 378 722 l 238 722 l 238 818 l 507 818 l 758 96 l 890 96 l 890 0 l 553 0 l 553 96 l 640 96 l 596 222 l 296 222 l 249 96 l 338 96 l 338 0 l 14 0 m 331 318 l 563 318 l 453 678 l 331 318 m 421 936 q 454 976 442 953 q 467 1019 467 999 q 456 1050 467 1039 q 425 1061 446 1061 q 360 1025 390 1061 l 311 1081 q 371 1128 336 1111 q 442 1144 406 1144 q 524 1114 490 1144 q 557 1029 557 1083 q 456 893 557 963 l 421 936 z "},"Ȃ":{"ha":904,"x_min":14,"x_max":890,"o":"m 14 0 l 14 96 l 147 96 l 378 722 l 238 722 l 238 818 l 507 818 l 758 96 l 890 96 l 890 0 l 553 0 l 553 96 l 640 96 l 596 222 l 296 222 l 249 96 l 338 96 l 338 0 l 14 0 m 331 318 l 563 318 l 453 678 l 331 318 m 440 1100 q 586 1058 531 1100 q 658 933 642 1015 l 568 917 q 440 1011 556 1011 q 314 917 329 1011 l 224 933 q 295 1058 240 1015 q 440 1100 350 1100 z "},"Ā":{"ha":904,"x_min":14,"x_max":890,"o":"m 14 0 l 14 96 l 147 96 l 378 722 l 238 722 l 238 818 l 507 818 l 758 96 l 890 96 l 890 0 l 553 0 l 553 96 l 640 96 l 596 222 l 296 222 l 249 96 l 338 96 l 338 0 l 14 0 m 331 318 l 563 318 l 453 678 l 331 318 m 233 1040 l 649 1040 l 649 958 l 233 958 l 233 1040 z "},"Ą":{"ha":904,"x_min":14,"x_max":890,"o":"m 757 0 q 677 -66 703 -31 q 651 -144 651 -101 q 673 -191 651 -175 q 735 -207 694 -207 q 803 -194 768 -207 l 803 -279 q 692 -307 747 -307 q 582 -272 628 -307 q 536 -179 536 -237 q 569 -78 536 -122 q 672 0 603 -35 l 553 0 l 553 96 l 640 96 l 596 222 l 296 222 l 249 96 l 338 96 l 338 0 l 14 0 l 14 96 l 147 96 l 378 722 l 238 722 l 238 818 l 507 818 l 758 96 l 890 96 l 890 0 l 757 0 m 331 318 l 563 318 l 453 678 l 331 318 z "},"Å":{"ha":951,"x_min":14,"x_max":890,"o":"m 890 96 l 890 0 l 553 0 l 553 96 l 640 96 l 596 222 l 296 222 l 249 96 l 338 96 l 338 0 l 14 0 l 14 96 l 147 96 l 378 722 l 238 722 l 238 818 l 379 818 q 344 907 344 850 q 377 994 344 961 q 464 1026 410 1026 q 551 994 518 1026 q 583 907 583 961 q 565 838 583 867 q 514 797 547 810 l 758 96 l 890 96 m 464 961 q 425 946 440 961 q 410 907 410 931 q 425 868 410 883 q 464 853 440 853 q 503 868 488 853 q 518 907 518 883 q 503 946 518 931 q 464 961 488 961 m 331 318 l 563 318 l 453 678 l 331 318 z "},"Ǻ":{"ha":951,"x_min":14,"x_max":890,"o":"m 890 96 l 890 0 l 553 0 l 553 96 l 640 96 l 596 222 l 296 222 l 249 96 l 338 96 l 338 0 l 14 0 l 14 96 l 147 96 l 378 722 l 238 722 l 238 818 l 379 818 q 344 907 344 850 q 377 994 344 961 q 464 1026 410 1026 q 551 994 518 1026 q 583 907 583 961 q 565 838 583 867 q 514 797 547 810 l 758 96 l 890 96 m 464 961 q 425 946 440 961 q 410 907 410 931 q 425 868 410 883 q 464 853 440 853 q 503 868 488 853 q 518 907 518 883 q 503 946 518 931 q 464 961 488 961 m 331 318 l 563 318 l 453 678 l 331 318 m 667 1222 l 692 1121 l 342 1056 l 329 1106 l 667 1222 z "},"Ã":{"ha":904,"x_min":14,"x_max":890,"o":"m 14 0 l 14 96 l 147 96 l 378 722 l 238 722 l 238 818 l 507 818 l 758 96 l 890 96 l 890 0 l 553 0 l 553 96 l 640 96 l 596 222 l 296 222 l 249 96 l 338 96 l 338 0 l 14 0 m 331 318 l 563 318 l 453 678 l 331 318 m 246 985 q 325 1029 294 1017 q 399 1042 356 1042 q 451 1034 429 1042 q 504 1010 474 1026 q 540 992 525 997 q 572 986 556 986 q 608 994 593 986 q 663 1032 624 1003 l 696 954 q 627 907 656 919 q 565 894 599 894 q 526 902 544 894 q 482 924 507 910 q 440 944 458 938 q 403 951 421 951 q 351 945 372 951 q 308 928 331 939 q 275 913 285 917 l 246 985 z "},"Æ":{"ha":1276,"x_min":38,"x_max":1229,"o":"m 38 0 l 38 96 l 176 96 l 574 722 l 431 722 l 431 818 l 1129 818 l 1201 604 l 1110 574 l 1054 722 l 794 722 l 794 457 l 1017 457 l 1017 361 l 793 361 l 793 96 l 1082 96 l 1138 244 l 1229 214 l 1158 0 l 550 0 l 550 96 l 682 96 l 682 222 l 368 222 l 290 96 l 371 96 l 371 0 l 38 0 m 428 318 l 682 318 l 683 722 l 428 318 z "},"Ǽ":{"ha":1276,"x_min":38,"x_max":1229,"o":"m 38 0 l 38 96 l 176 96 l 574 722 l 431 722 l 431 818 l 1129 818 l 1201 604 l 1110 574 l 1054 722 l 794 722 l 794 457 l 1017 457 l 1017 361 l 793 361 l 793 96 l 1082 96 l 1138 244 l 1229 214 l 1158 0 l 550 0 l 550 96 l 682 96 l 682 222 l 368 222 l 290 96 l 371 96 l 371 0 l 38 0 m 428 318 l 682 318 l 683 722 l 428 318 m 933 1067 l 958 965 l 608 900 l 596 950 l 933 1067 z "},"B":{"ha":772,"x_min":51,"x_max":738,"o":"m 51 96 l 183 96 l 183 722 l 51 722 l 51 818 l 406 818 q 633 763 554 818 q 711 604 711 708 q 681 498 711 547 q 599 422 650 449 q 699 348 660 400 q 738 224 738 296 q 669 61 738 122 q 464 0 600 0 l 51 0 l 51 96 m 468 456 q 560 491 528 456 q 593 589 593 526 q 421 722 593 722 l 294 722 l 294 456 l 468 456 m 458 97 q 578 133 538 97 q 619 239 619 168 q 580 338 619 303 q 467 372 540 372 l 294 372 l 293 97 l 458 97 z "},"C":{"ha":799,"x_min":61,"x_max":740,"o":"m 618 711 q 456 744 557 744 q 251 656 322 744 q 179 410 179 567 q 252 163 179 251 q 456 74 325 74 q 618 103 538 74 l 644 214 l 739 192 l 704 31 q 669 15 704 29 q 578 -10 633 1 q 456 -21 522 -21 q 247 33 336 -21 q 110 184 158 86 q 61 413 61 282 q 110 637 61 540 q 247 786 158 733 q 451 839 335 839 q 591 824 533 839 q 679 793 649 810 q 710 774 710 776 l 740 613 l 646 592 l 618 711 z "},"Ć":{"ha":799,"x_min":61,"x_max":740,"o":"m 618 711 q 456 744 557 744 q 251 656 322 744 q 179 410 179 567 q 252 163 179 251 q 456 74 325 74 q 618 103 538 74 l 644 214 l 739 192 l 704 31 q 669 15 704 29 q 578 -10 633 1 q 456 -21 522 -21 q 247 33 336 -21 q 110 184 158 86 q 61 413 61 282 q 110 637 61 540 q 247 786 158 733 q 451 839 335 839 q 591 824 533 839 q 679 793 649 810 q 710 774 710 776 l 740 613 l 646 592 l 618 711 m 665 1067 l 690 965 l 340 900 l 328 950 l 665 1067 z "},"Č":{"ha":799,"x_min":61,"x_max":740,"o":"m 618 711 q 456 744 557 744 q 251 656 322 744 q 179 410 179 567 q 252 163 179 251 q 456 74 325 74 q 618 103 538 74 l 644 214 l 739 192 l 704 31 q 669 15 704 29 q 578 -10 633 1 q 456 -21 522 -21 q 247 33 336 -21 q 110 184 158 86 q 61 413 61 282 q 110 637 61 540 q 247 786 158 733 q 451 839 335 839 q 591 824 533 839 q 679 793 649 810 q 710 774 710 776 l 740 613 l 646 592 l 618 711 m 457 883 l 244 1021 l 282 1079 l 457 992 l 632 1082 l 664 1021 l 457 883 z "},"Ç":{"ha":799,"x_min":61,"x_max":740,"o":"m 644 214 l 739 192 l 704 31 q 672 17 697 28 q 599 -4 646 7 q 496 -19 553 -15 l 496 -87 q 646 -196 646 -87 q 606 -279 646 -249 q 496 -310 565 -310 q 382 -284 415 -310 q 347 -258 349 -258 l 378 -207 q 434 -233 401 -222 q 493 -243 467 -243 q 569 -196 569 -243 q 549 -159 569 -169 q 478 -149 528 -149 l 426 -149 l 426 -19 q 233 41 315 -14 q 106 192 150 96 q 61 413 61 288 q 110 637 61 540 q 247 786 158 733 q 451 839 335 839 q 591 824 533 839 q 679 793 649 810 q 710 774 710 776 l 740 613 l 646 592 l 618 711 q 456 744 557 744 q 251 656 322 744 q 179 410 179 567 q 252 163 179 251 q 456 74 325 74 q 618 103 538 74 l 644 214 z "},"Ḉ":{"ha":799,"x_min":61,"x_max":740,"o":"m 690 965 l 340 900 l 328 950 l 665 1067 l 690 965 m 644 214 l 739 192 l 704 31 q 672 17 697 28 q 599 -4 646 7 q 496 -19 553 -15 l 496 -87 q 646 -196 646 -87 q 606 -279 646 -249 q 496 -310 565 -310 q 382 -284 415 -310 q 347 -258 349 -258 l 378 -207 q 434 -233 401 -222 q 493 -243 467 -243 q 569 -196 569 -243 q 549 -159 569 -169 q 478 -149 528 -149 l 426 -149 l 426 -19 q 233 41 315 -14 q 106 192 150 96 q 61 413 61 288 q 110 637 61 540 q 247 786 158 733 q 451 839 335 839 q 591 824 533 839 q 679 793 649 810 q 710 774 710 776 l 740 613 l 646 592 l 618 711 q 456 744 557 744 q 251 656 322 744 q 179 410 179 567 q 252 163 179 251 q 456 74 325 74 q 618 103 538 74 l 644 214 z "},"Ĉ":{"ha":799,"x_min":61,"x_max":740,"o":"m 618 711 q 456 744 557 744 q 251 656 322 744 q 179 410 179 567 q 252 163 179 251 q 456 74 325 74 q 618 103 538 74 l 644 214 l 739 192 l 704 31 q 669 15 704 29 q 578 -10 633 1 q 456 -21 522 -21 q 247 33 336 -21 q 110 184 158 86 q 61 413 61 282 q 110 637 61 540 q 247 786 158 733 q 451 839 335 839 q 591 824 533 839 q 679 793 649 810 q 710 774 710 776 l 740 613 l 646 592 l 618 711 m 454 1081 l 692 946 l 667 901 l 454 979 l 242 901 l 217 946 l 454 1081 z "},"Ċ":{"ha":799,"x_min":61,"x_max":740,"o":"m 618 711 q 456 744 557 744 q 251 656 322 744 q 179 410 179 567 q 252 163 179 251 q 456 74 325 74 q 618 103 538 74 l 644 214 l 739 192 l 704 31 q 669 15 704 29 q 578 -10 633 1 q 456 -21 522 -21 q 247 33 336 -21 q 110 184 158 86 q 61 413 61 282 q 110 637 61 540 q 247 786 158 733 q 451 839 335 839 q 591 824 533 839 q 679 793 649 810 q 710 774 710 776 l 740 613 l 646 592 l 618 711 m 453 1114 q 515 1090 492 1114 q 539 1028 539 1067 q 515 965 539 989 q 453 942 492 942 q 391 965 414 942 q 368 1028 368 989 q 391 1090 368 1067 q 453 1114 414 1114 z "},"D":{"ha":901,"x_min":51,"x_max":842,"o":"m 421 818 q 731 706 619 818 q 842 396 842 594 q 733 105 842 210 q 432 0 625 0 l 51 0 l 51 96 l 183 96 l 183 722 l 51 722 l 51 818 l 421 818 m 407 96 q 643 172 563 96 q 724 396 724 247 q 647 640 724 557 q 421 722 569 722 l 294 722 l 294 96 l 407 96 z "},"Ð":{"ha":918,"x_min":68,"x_max":858,"o":"m 438 818 q 749 722 639 818 q 858 396 858 625 q 805 187 858 276 q 658 49 751 97 q 449 0 564 0 l 68 0 l 68 96 l 200 96 l 200 378 l 68 378 l 68 467 l 200 467 l 200 722 l 68 722 l 68 818 l 438 818 m 424 96 q 660 172 579 96 q 740 396 740 249 q 706 597 740 526 q 607 695 672 668 q 438 722 542 722 l 311 722 l 311 467 l 468 467 l 468 378 l 311 378 l 311 96 l 424 96 z "},"Ď":{"ha":901,"x_min":51,"x_max":842,"o":"m 421 818 q 731 706 619 818 q 842 396 842 594 q 733 105 842 210 q 432 0 625 0 l 51 0 l 51 96 l 183 96 l 183 722 l 51 722 l 51 818 l 421 818 m 407 96 q 643 172 563 96 q 724 396 724 247 q 647 640 724 557 q 421 722 569 722 l 294 722 l 294 96 l 407 96 m 396 900 l 158 1035 l 183 1079 l 396 1001 l 608 1079 l 633 1035 l 396 900 z "},"Đ":{"ha":918,"x_min":68,"x_max":858,"o":"m 438 818 q 749 722 639 818 q 858 396 858 625 q 805 187 858 276 q 658 49 751 97 q 449 0 564 0 l 68 0 l 68 96 l 200 96 l 200 378 l 68 378 l 68 467 l 200 467 l 200 722 l 68 722 l 68 818 l 438 818 m 424 96 q 660 172 579 96 q 740 396 740 249 q 706 597 740 526 q 607 695 672 668 q 438 722 542 722 l 311 722 l 311 467 l 468 467 l 468 378 l 311 378 l 311 96 l 424 96 z "},"Ḍ":{"ha":901,"x_min":51,"x_max":842,"o":"m 421 818 q 731 706 619 818 q 842 396 842 594 q 733 105 842 210 q 432 0 625 0 l 51 0 l 51 96 l 183 96 l 183 722 l 51 722 l 51 818 l 421 818 m 407 96 q 643 172 563 96 q 724 396 724 247 q 647 640 724 557 q 421 722 569 722 l 294 722 l 294 96 l 407 96 m 422 -81 q 485 -104 461 -81 q 508 -167 508 -128 q 485 -229 508 -206 q 422 -253 461 -253 q 360 -229 383 -253 q 338 -167 338 -206 q 360 -104 338 -128 q 422 -81 383 -81 z "},"Ḏ":{"ha":901,"x_min":51,"x_max":842,"o":"m 421 818 q 731 706 619 818 q 842 396 842 594 q 733 105 842 210 q 432 0 625 0 l 51 0 l 51 96 l 183 96 l 183 722 l 51 722 l 51 818 l 421 818 m 407 96 q 643 172 563 96 q 724 396 724 247 q 647 640 724 557 q 421 722 569 722 l 294 722 l 294 96 l 407 96 m 210 -56 l 636 -56 l 636 -142 l 210 -142 l 210 -56 z "},"E":{"ha":815,"x_min":51,"x_max":768,"o":"m 53 818 l 669 818 l 740 604 l 650 574 l 594 722 l 297 722 l 297 471 l 557 471 l 557 375 l 297 375 l 296 96 l 622 96 l 678 244 l 768 214 l 697 0 l 51 0 l 51 96 l 185 96 l 186 722 l 53 722 l 53 818 z "},"É":{"ha":815,"x_min":51,"x_max":768,"o":"m 53 818 l 669 818 l 740 604 l 650 574 l 594 722 l 297 722 l 297 471 l 557 471 l 557 375 l 297 375 l 296 96 l 622 96 l 678 244 l 768 214 l 697 0 l 51 0 l 51 96 l 185 96 l 186 722 l 53 722 l 53 818 m 618 1067 l 643 965 l 293 900 l 281 950 l 618 1067 z "},"Ĕ":{"ha":815,"x_min":51,"x_max":768,"o":"m 53 818 l 669 818 l 740 604 l 650 574 l 594 722 l 297 722 l 297 471 l 557 471 l 557 375 l 297 375 l 296 96 l 622 96 l 678 244 l 768 214 l 697 0 l 51 0 l 51 96 l 185 96 l 186 722 l 53 722 l 53 818 m 406 903 q 260 945 315 903 q 189 1069 206 988 l 279 1086 q 406 992 294 992 q 533 1086 521 992 l 624 1069 q 551 945 607 988 q 406 903 496 903 z "},"Ě":{"ha":815,"x_min":51,"x_max":768,"o":"m 53 818 l 669 818 l 740 604 l 650 574 l 594 722 l 297 722 l 297 471 l 557 471 l 557 375 l 297 375 l 296 96 l 622 96 l 678 244 l 768 214 l 697 0 l 51 0 l 51 96 l 185 96 l 186 722 l 53 722 l 53 818 m 410 883 l 197 1021 l 235 1079 l 410 992 l 585 1082 l 617 1021 l 410 883 z "},"Ḝ":{"ha":815,"x_min":51,"x_max":768,"o":"m 53 818 l 669 818 l 740 604 l 650 574 l 594 722 l 297 722 l 297 471 l 557 471 l 557 375 l 297 375 l 296 96 l 622 96 l 678 244 l 768 214 l 697 0 l 51 0 l 51 96 l 185 96 l 186 722 l 53 722 l 53 818 m 476 -310 q 363 -284 396 -310 q 328 -258 329 -258 l 358 -207 q 415 -233 382 -222 q 474 -243 447 -243 q 550 -196 550 -243 q 529 -159 550 -169 q 458 -149 508 -149 l 407 -149 l 407 0 l 476 0 l 476 -87 q 626 -196 626 -87 q 586 -279 626 -249 q 476 -310 546 -310 m 406 903 q 260 945 315 903 q 189 1069 206 988 l 279 1086 q 406 992 294 992 q 533 1086 521 992 l 624 1069 q 551 945 607 988 q 406 903 496 903 z "},"Ê":{"ha":815,"x_min":51,"x_max":768,"o":"m 53 818 l 669 818 l 740 604 l 650 574 l 594 722 l 297 722 l 297 471 l 557 471 l 557 375 l 297 375 l 296 96 l 622 96 l 678 244 l 768 214 l 697 0 l 51 0 l 51 96 l 185 96 l 186 722 l 53 722 l 53 818 m 407 1081 l 644 946 l 619 901 l 407 979 l 194 901 l 169 946 l 407 1081 z "},"Ế":{"ha":815,"x_min":51,"x_max":768,"o":"m 53 818 l 669 818 l 740 604 l 650 574 l 594 722 l 297 722 l 297 471 l 557 471 l 557 375 l 297 375 l 296 96 l 622 96 l 678 244 l 768 214 l 697 0 l 51 0 l 51 96 l 185 96 l 186 722 l 53 722 l 53 818 m 504 1288 l 554 1196 l 292 1092 l 269 1138 l 504 1288 m 407 1081 l 644 946 l 619 901 l 407 979 l 194 901 l 169 946 l 407 1081 z "},"Ệ":{"ha":815,"x_min":51,"x_max":768,"o":"m 53 818 l 669 818 l 740 604 l 650 574 l 594 722 l 297 722 l 297 471 l 557 471 l 557 375 l 297 375 l 296 96 l 622 96 l 678 244 l 768 214 l 697 0 l 51 0 l 51 96 l 185 96 l 186 722 l 53 722 l 53 818 m 406 -81 q 468 -104 444 -81 q 492 -167 492 -128 q 468 -229 492 -206 q 406 -253 444 -253 q 344 -229 367 -253 q 321 -167 321 -206 q 344 -104 321 -128 q 406 -81 367 -81 m 407 1081 l 644 946 l 619 901 l 407 979 l 194 901 l 169 946 l 407 1081 z "},"Ề":{"ha":815,"x_min":51,"x_max":768,"o":"m 53 818 l 669 818 l 740 604 l 650 574 l 594 722 l 297 722 l 297 471 l 557 471 l 557 375 l 297 375 l 296 96 l 622 96 l 678 244 l 768 214 l 697 0 l 51 0 l 51 96 l 185 96 l 186 722 l 53 722 l 53 818 m 311 1278 l 546 1128 l 524 1082 l 261 1186 l 311 1278 m 407 1081 l 644 946 l 619 901 l 407 979 l 194 901 l 169 946 l 407 1081 z "},"Ể":{"ha":815,"x_min":51,"x_max":768,"o":"m 53 818 l 669 818 l 740 604 l 650 574 l 594 722 l 297 722 l 297 471 l 557 471 l 557 375 l 297 375 l 296 96 l 622 96 l 678 244 l 768 214 l 697 0 l 51 0 l 51 96 l 185 96 l 186 722 l 53 722 l 53 818 m 407 1081 l 644 946 l 619 901 l 407 979 l 194 901 l 169 946 l 407 1081 m 514 1090 q 547 1130 535 1107 q 560 1174 560 1153 q 549 1204 560 1193 q 518 1215 539 1215 q 453 1179 483 1215 l 404 1235 q 464 1282 429 1265 q 535 1299 499 1299 q 617 1268 583 1299 q 650 1183 650 1238 q 549 1047 650 1117 l 514 1090 z "},"Ễ":{"ha":815,"x_min":51,"x_max":768,"o":"m 53 818 l 669 818 l 740 604 l 650 574 l 594 722 l 297 722 l 297 471 l 557 471 l 557 375 l 297 375 l 296 96 l 622 96 l 678 244 l 768 214 l 697 0 l 51 0 l 51 96 l 185 96 l 186 722 l 53 722 l 53 818 m 192 1179 q 271 1224 240 1211 q 344 1236 301 1236 q 397 1228 375 1236 q 450 1204 419 1221 q 486 1186 471 1192 q 518 1181 501 1181 q 554 1189 539 1181 q 608 1226 569 1197 l 635 1153 q 566 1106 594 1118 q 504 1093 538 1093 q 465 1101 483 1093 q 421 1122 446 1108 q 378 1143 397 1136 q 342 1150 360 1150 q 290 1144 311 1150 q 247 1126 269 1138 q 214 1111 224 1115 l 192 1179 m 413 1079 l 650 944 l 625 900 l 413 978 l 200 900 l 175 944 l 413 1079 z "},"Ȅ":{"ha":815,"x_min":51,"x_max":768,"o":"m 53 818 l 669 818 l 740 604 l 650 574 l 594 722 l 297 722 l 297 471 l 557 471 l 557 375 l 297 375 l 296 96 l 622 96 l 678 244 l 768 214 l 697 0 l 51 0 l 51 96 l 185 96 l 186 722 l 53 722 l 53 818 m 386 1183 l 561 933 l 510 894 l 304 1122 l 386 1183 m 154 1156 l 372 942 l 329 894 l 86 1081 l 154 1156 z "},"Ë":{"ha":815,"x_min":51,"x_max":768,"o":"m 53 818 l 669 818 l 740 604 l 650 574 l 594 722 l 297 722 l 297 471 l 557 471 l 557 375 l 297 375 l 296 96 l 622 96 l 678 244 l 768 214 l 697 0 l 51 0 l 51 96 l 185 96 l 186 722 l 53 722 l 53 818 m 283 1082 q 338 1059 314 1082 q 361 1004 361 1036 q 338 949 361 972 q 283 926 315 926 q 228 949 251 926 q 206 1004 206 972 q 228 1059 206 1036 q 283 1082 251 1082 m 531 1082 q 585 1059 561 1082 q 608 1004 608 1036 q 585 949 608 972 q 531 926 563 926 q 476 949 499 926 q 453 1004 453 972 q 476 1059 453 1036 q 531 1082 499 1082 z "},"Ė":{"ha":815,"x_min":51,"x_max":768,"o":"m 53 818 l 669 818 l 740 604 l 650 574 l 594 722 l 297 722 l 297 471 l 557 471 l 557 375 l 297 375 l 296 96 l 622 96 l 678 244 l 768 214 l 697 0 l 51 0 l 51 96 l 185 96 l 186 722 l 53 722 l 53 818 m 406 1114 q 468 1090 444 1114 q 492 1028 492 1067 q 468 965 492 989 q 406 942 444 942 q 344 965 367 942 q 321 1028 321 989 q 344 1090 321 1067 q 406 1114 367 1114 z "},"Ẹ":{"ha":815,"x_min":51,"x_max":768,"o":"m 53 818 l 669 818 l 740 604 l 650 574 l 594 722 l 297 722 l 297 471 l 557 471 l 557 375 l 297 375 l 296 96 l 622 96 l 678 244 l 768 214 l 697 0 l 51 0 l 51 96 l 185 96 l 186 722 l 53 722 l 53 818 m 406 -81 q 468 -104 444 -81 q 492 -167 492 -128 q 468 -229 492 -206 q 406 -253 444 -253 q 344 -229 367 -253 q 321 -167 321 -206 q 344 -104 321 -128 q 406 -81 367 -81 z "},"È":{"ha":815,"x_min":51,"x_max":768,"o":"m 53 818 l 669 818 l 740 604 l 650 574 l 594 722 l 297 722 l 297 471 l 557 471 l 557 375 l 297 375 l 296 96 l 622 96 l 678 244 l 768 214 l 697 0 l 51 0 l 51 96 l 185 96 l 186 722 l 53 722 l 53 818 m 153 1058 l 490 942 l 478 892 l 128 957 l 153 1058 z "},"Ẻ":{"ha":815,"x_min":51,"x_max":768,"o":"m 53 818 l 669 818 l 740 604 l 650 574 l 594 722 l 297 722 l 297 471 l 557 471 l 557 375 l 297 375 l 296 96 l 622 96 l 678 244 l 768 214 l 697 0 l 51 0 l 51 96 l 185 96 l 186 722 l 53 722 l 53 818 m 386 936 q 419 976 407 953 q 432 1019 432 999 q 422 1050 432 1039 q 390 1061 411 1061 q 325 1025 356 1061 l 276 1081 q 336 1128 301 1111 q 407 1144 371 1144 q 489 1114 456 1144 q 522 1029 522 1083 q 421 893 522 963 l 386 936 z "},"Ȇ":{"ha":815,"x_min":51,"x_max":768,"o":"m 53 818 l 669 818 l 740 604 l 650 574 l 594 722 l 297 722 l 297 471 l 557 471 l 557 375 l 297 375 l 296 96 l 622 96 l 678 244 l 768 214 l 697 0 l 51 0 l 51 96 l 185 96 l 186 722 l 53 722 l 53 818 m 406 1100 q 551 1058 496 1100 q 624 933 607 1015 l 533 917 q 406 1011 521 1011 q 279 917 294 1011 l 189 933 q 260 1058 206 1015 q 406 1100 315 1100 z "},"Ē":{"ha":815,"x_min":51,"x_max":768,"o":"m 53 818 l 669 818 l 740 604 l 650 574 l 594 722 l 297 722 l 297 471 l 557 471 l 557 375 l 297 375 l 296 96 l 622 96 l 678 244 l 768 214 l 697 0 l 51 0 l 51 96 l 185 96 l 186 722 l 53 722 l 53 818 m 199 1040 l 614 1040 l 614 958 l 199 958 l 199 1040 z "},"Ḗ":{"ha":815,"x_min":51,"x_max":768,"o":"m 53 818 l 669 818 l 740 604 l 650 574 l 594 722 l 297 722 l 297 471 l 557 471 l 557 375 l 297 375 l 296 96 l 622 96 l 678 244 l 768 214 l 697 0 l 51 0 l 51 96 l 185 96 l 186 722 l 53 722 l 53 818 m 199 1040 l 614 1040 l 614 958 l 199 958 l 199 1040 m 643 1275 l 668 1174 l 318 1108 l 306 1158 l 643 1275 z "},"Ḕ":{"ha":815,"x_min":51,"x_max":768,"o":"m 53 818 l 669 818 l 740 604 l 650 574 l 594 722 l 297 722 l 297 471 l 557 471 l 557 375 l 297 375 l 296 96 l 622 96 l 678 244 l 768 214 l 697 0 l 51 0 l 51 96 l 185 96 l 186 722 l 53 722 l 53 818 m 199 1040 l 614 1040 l 614 958 l 199 958 l 199 1040 m 178 1267 l 515 1150 l 503 1100 l 153 1165 l 178 1267 z "},"Ę":{"ha":815,"x_min":51,"x_max":768,"o":"m 593 -144 q 615 -191 593 -175 q 676 -207 636 -207 q 744 -194 710 -207 l 744 -279 q 633 -307 689 -307 q 524 -272 569 -307 q 478 -179 478 -237 q 511 -78 478 -122 q 614 0 544 -35 l 51 0 l 51 96 l 185 96 l 186 722 l 53 722 l 53 818 l 669 818 l 740 604 l 650 574 l 594 722 l 297 722 l 297 471 l 557 471 l 557 375 l 297 375 l 296 96 l 622 96 l 678 244 l 768 214 l 697 1 l 699 0 q 619 -66 644 -31 q 593 -144 593 -101 z "},"Ẽ":{"ha":815,"x_min":51,"x_max":768,"o":"m 53 818 l 669 818 l 740 604 l 650 574 l 594 722 l 297 722 l 297 471 l 557 471 l 557 375 l 297 375 l 296 96 l 622 96 l 678 244 l 768 214 l 697 0 l 51 0 l 51 96 l 185 96 l 186 722 l 53 722 l 53 818 m 211 985 q 290 1029 260 1017 q 364 1042 321 1042 q 417 1034 394 1042 q 469 1010 439 1026 q 506 992 490 997 q 538 986 521 986 q 574 994 558 986 q 628 1032 589 1003 l 661 954 q 592 907 621 919 q 531 894 564 894 q 491 902 510 894 q 447 924 472 910 q 405 944 424 938 q 368 951 386 951 q 317 945 338 951 q 273 928 296 939 q 240 913 250 917 l 211 985 z "},"F":{"ha":778,"x_min":51,"x_max":739,"o":"m 53 818 l 668 818 l 739 604 l 649 574 l 593 722 l 296 722 l 296 463 l 525 463 l 525 367 l 294 367 l 294 96 l 464 96 l 464 0 l 51 0 l 51 96 l 185 96 l 186 722 l 53 722 l 53 818 z "},"G":{"ha":822,"x_min":61,"x_max":746,"o":"m 739 75 q 603 0 661 21 q 446 -21 544 -21 q 249 27 336 -21 q 111 172 161 75 q 61 410 61 268 q 110 638 61 540 q 249 787 160 735 q 458 839 339 839 q 714 760 615 839 l 746 613 l 650 592 l 625 699 q 552 733 586 722 q 460 744 518 744 q 321 705 385 744 q 218 590 257 665 q 179 410 179 514 q 255 156 179 239 q 446 74 331 74 q 551 85 511 74 q 635 128 592 97 l 635 307 l 457 307 l 457 403 l 739 403 l 739 75 z "},"Ğ":{"ha":822,"x_min":61,"x_max":746,"o":"m 739 75 q 603 0 661 21 q 446 -21 544 -21 q 249 27 336 -21 q 111 172 161 75 q 61 410 61 268 q 110 638 61 540 q 249 787 160 735 q 458 839 339 839 q 714 760 615 839 l 746 613 l 650 592 l 625 699 q 552 733 586 722 q 460 744 518 744 q 321 705 385 744 q 218 590 257 665 q 179 410 179 514 q 255 156 179 239 q 446 74 331 74 q 551 85 511 74 q 635 128 592 97 l 635 307 l 457 307 l 457 403 l 739 403 l 739 75 m 464 903 q 319 945 374 903 q 247 1069 264 988 l 338 1086 q 464 992 353 992 q 592 1086 579 992 l 682 1069 q 610 945 665 988 q 464 903 554 903 z "},"Ǧ":{"ha":822,"x_min":61,"x_max":746,"o":"m 739 75 q 603 0 661 21 q 446 -21 544 -21 q 249 27 336 -21 q 111 172 161 75 q 61 410 61 268 q 110 638 61 540 q 249 787 160 735 q 458 839 339 839 q 714 760 615 839 l 746 613 l 650 592 l 625 699 q 552 733 586 722 q 460 744 518 744 q 321 705 385 744 q 218 590 257 665 q 179 410 179 514 q 255 156 179 239 q 446 74 331 74 q 551 85 511 74 q 635 128 592 97 l 635 307 l 457 307 l 457 403 l 739 403 l 739 75 m 468 883 l 256 1021 l 293 1079 l 468 992 l 643 1082 l 675 1021 l 468 883 z "},"Ĝ":{"ha":822,"x_min":61,"x_max":746,"o":"m 739 75 q 603 0 661 21 q 446 -21 544 -21 q 249 27 336 -21 q 111 172 161 75 q 61 410 61 268 q 110 638 61 540 q 249 787 160 735 q 458 839 339 839 q 714 760 615 839 l 746 613 l 650 592 l 625 699 q 552 733 586 722 q 460 744 518 744 q 321 705 385 744 q 218 590 257 665 q 179 410 179 514 q 255 156 179 239 q 446 74 331 74 q 551 85 511 74 q 635 128 592 97 l 635 307 l 457 307 l 457 403 l 739 403 l 739 75 m 465 1081 l 703 946 l 678 901 l 465 979 l 253 901 l 228 946 l 465 1081 z "},"Ģ":{"ha":822,"x_min":61,"x_max":746,"o":"m 739 75 q 603 0 661 21 q 446 -21 544 -21 q 249 27 336 -21 q 111 172 161 75 q 61 410 61 268 q 110 638 61 540 q 249 787 160 735 q 458 839 339 839 q 714 760 615 839 l 746 613 l 650 592 l 625 699 q 552 733 586 722 q 460 744 518 744 q 321 705 385 744 q 218 590 257 665 q 179 410 179 514 q 255 156 179 239 q 446 74 331 74 q 551 85 511 74 q 635 128 592 97 l 635 307 l 457 307 l 457 403 l 739 403 l 739 75 m 386 -376 q 415 -332 393 -367 q 450 -265 436 -297 q 394 -240 415 -262 q 372 -185 372 -217 q 398 -123 372 -147 q 463 -99 424 -99 q 528 -126 500 -99 q 557 -193 557 -154 q 530 -290 557 -240 q 469 -381 503 -340 q 435 -418 435 -421 l 386 -376 z "},"Ġ":{"ha":822,"x_min":61,"x_max":746,"o":"m 739 75 q 603 0 661 21 q 446 -21 544 -21 q 249 27 336 -21 q 111 172 161 75 q 61 410 61 268 q 110 638 61 540 q 249 787 160 735 q 458 839 339 839 q 714 760 615 839 l 746 613 l 650 592 l 625 699 q 552 733 586 722 q 460 744 518 744 q 321 705 385 744 q 218 590 257 665 q 179 410 179 514 q 255 156 179 239 q 446 74 331 74 q 551 85 511 74 q 635 128 592 97 l 635 307 l 457 307 l 457 403 l 739 403 l 739 75 m 464 1114 q 526 1090 503 1114 q 550 1028 550 1067 q 526 965 550 989 q 464 942 503 942 q 402 965 425 942 q 379 1028 379 989 q 402 1090 379 1067 q 464 1114 425 1114 z "},"Ḡ":{"ha":822,"x_min":61,"x_max":746,"o":"m 739 75 q 603 0 661 21 q 446 -21 544 -21 q 249 27 336 -21 q 111 172 161 75 q 61 410 61 268 q 110 638 61 540 q 249 787 160 735 q 458 839 339 839 q 714 760 615 839 l 746 613 l 650 592 l 625 699 q 552 733 586 722 q 460 744 518 744 q 321 705 385 744 q 218 590 257 665 q 179 410 179 514 q 255 156 179 239 q 446 74 331 74 q 551 85 511 74 q 635 128 592 97 l 635 307 l 457 307 l 457 403 l 739 403 l 739 75 m 257 1040 l 672 1040 l 672 958 l 257 958 l 257 1040 z "},"H":{"ha":992,"x_min":51,"x_max":940,"o":"m 53 818 l 386 818 l 386 722 l 297 722 l 296 467 l 696 467 l 697 722 l 608 722 l 608 818 l 940 818 l 940 722 l 808 722 l 804 96 l 938 96 l 938 0 l 607 0 l 607 96 l 696 96 l 696 371 l 296 371 l 294 96 l 383 96 l 383 0 l 51 0 l 51 96 l 185 96 l 186 722 l 53 722 l 53 818 z "},"Ħ":{"ha":992,"x_min":51,"x_max":940,"o":"m 940 722 l 808 722 l 808 633 l 913 633 l 913 561 l 807 561 l 804 96 l 938 96 l 938 0 l 607 0 l 607 96 l 696 96 l 696 371 l 296 371 l 294 96 l 383 96 l 383 0 l 51 0 l 51 96 l 185 96 l 186 561 l 69 561 l 69 633 l 186 633 l 186 722 l 53 722 l 53 818 l 386 818 l 386 722 l 297 722 l 297 633 l 697 633 l 697 722 l 608 722 l 608 818 l 940 818 l 940 722 m 696 467 l 696 561 l 296 561 l 296 467 l 696 467 z "},"Ḫ":{"ha":992,"x_min":51,"x_max":940,"o":"m 53 818 l 386 818 l 386 722 l 297 722 l 296 467 l 696 467 l 697 722 l 608 722 l 608 818 l 940 818 l 940 722 l 808 722 l 804 96 l 938 96 l 938 0 l 607 0 l 607 96 l 696 96 l 696 371 l 296 371 l 294 96 l 383 96 l 383 0 l 51 0 l 51 96 l 185 96 l 186 722 l 53 722 l 53 818 m 494 -250 q 349 -208 404 -250 q 278 -83 294 -165 l 368 -67 q 494 -161 383 -161 q 622 -67 610 -161 l 713 -83 q 640 -208 696 -165 q 494 -250 585 -250 z "},"Ĥ":{"ha":992,"x_min":51,"x_max":940,"o":"m 53 818 l 386 818 l 386 722 l 297 722 l 296 467 l 696 467 l 697 722 l 608 722 l 608 818 l 940 818 l 940 722 l 808 722 l 804 96 l 938 96 l 938 0 l 607 0 l 607 96 l 696 96 l 696 371 l 296 371 l 294 96 l 383 96 l 383 0 l 51 0 l 51 96 l 185 96 l 186 722 l 53 722 l 53 818 m 496 1081 l 733 946 l 708 901 l 496 979 l 283 901 l 258 946 l 496 1081 z "},"Ḥ":{"ha":992,"x_min":51,"x_max":940,"o":"m 53 818 l 386 818 l 386 722 l 297 722 l 296 467 l 696 467 l 697 722 l 608 722 l 608 818 l 940 818 l 940 722 l 808 722 l 804 96 l 938 96 l 938 0 l 607 0 l 607 96 l 696 96 l 696 371 l 296 371 l 294 96 l 383 96 l 383 0 l 51 0 l 51 96 l 185 96 l 186 722 l 53 722 l 53 818 m 494 -81 q 557 -104 533 -81 q 581 -167 581 -128 q 557 -229 581 -206 q 494 -253 533 -253 q 433 -229 456 -253 q 410 -167 410 -206 q 433 -104 410 -128 q 494 -81 456 -81 z "},"I":{"ha":479,"x_min":51,"x_max":428,"o":"m 53 818 l 428 818 l 428 722 l 299 722 l 296 96 l 428 96 l 428 0 l 51 0 l 51 96 l 186 96 l 186 722 l 53 722 l 53 818 z "},"Í":{"ha":479,"x_min":51,"x_max":476,"o":"m 53 818 l 428 818 l 428 722 l 299 722 l 296 96 l 428 96 l 428 0 l 51 0 l 51 96 l 186 96 l 186 722 l 53 722 l 53 818 m 451 1067 l 476 965 l 126 900 l 114 950 l 451 1067 z "},"Ĭ":{"ha":479,"x_min":22,"x_max":457,"o":"m 53 818 l 428 818 l 428 722 l 299 722 l 296 96 l 428 96 l 428 0 l 51 0 l 51 96 l 186 96 l 186 722 l 53 722 l 53 818 m 239 903 q 94 945 149 903 q 22 1069 39 988 l 113 1086 q 239 992 128 992 q 367 1086 354 992 l 457 1069 q 385 945 440 988 q 239 903 329 903 z "},"Î":{"ha":479,"x_min":3,"x_max":478,"o":"m 53 818 l 428 818 l 428 722 l 299 722 l 296 96 l 428 96 l 428 0 l 51 0 l 51 96 l 186 96 l 186 722 l 53 722 l 53 818 m 240 1081 l 478 946 l 453 901 l 240 979 l 28 901 l 3 946 l 240 1081 z "},"Ȉ":{"ha":479,"x_min":-81,"x_max":428,"o":"m 53 818 l 428 818 l 428 722 l 299 722 l 296 96 l 428 96 l 428 0 l 51 0 l 51 96 l 186 96 l 186 722 l 53 722 l 53 818 m 219 1183 l 394 933 l 343 894 l 138 1122 l 219 1183 m -12 1156 l 206 942 l 163 894 l -81 1081 l -12 1156 z "},"Ï":{"ha":479,"x_min":39,"x_max":442,"o":"m 53 818 l 428 818 l 428 722 l 299 722 l 296 96 l 428 96 l 428 0 l 51 0 l 51 96 l 186 96 l 186 722 l 53 722 l 53 818 m 117 1082 q 171 1059 147 1082 q 194 1004 194 1036 q 172 949 194 972 q 117 926 149 926 q 62 949 85 926 q 39 1004 39 972 q 62 1059 39 1036 q 117 1082 85 1082 m 364 1082 q 418 1059 394 1082 q 442 1004 442 1036 q 419 949 442 972 q 364 926 396 926 q 309 949 332 926 q 286 1004 286 972 q 309 1059 286 1036 q 364 1082 332 1082 z "},"Ḯ":{"ha":479,"x_min":39,"x_max":476,"o":"m 117 926 q 62 949 85 926 q 39 1004 39 972 q 62 1059 39 1036 q 117 1082 85 1082 l 126 1082 l 114 1131 l 451 1247 l 476 1146 l 129 1081 q 176 1054 157 1076 q 194 1004 194 1032 q 172 949 194 972 q 117 926 149 926 m 364 1082 q 419 1059 396 1082 q 442 1004 442 1036 q 419 949 442 972 q 364 926 396 926 q 309 949 332 926 q 286 1004 286 972 q 309 1059 286 1036 q 364 1082 332 1082 m 53 722 l 53 818 l 428 818 l 428 722 l 299 722 l 296 96 l 428 96 l 428 0 l 51 0 l 51 96 l 186 96 l 186 722 l 53 722 z "},"İ":{"ha":479,"x_min":51,"x_max":428,"o":"m 53 818 l 428 818 l 428 722 l 299 722 l 296 96 l 428 96 l 428 0 l 51 0 l 51 96 l 186 96 l 186 722 l 53 722 l 53 818 m 239 1114 q 301 1090 278 1114 q 325 1028 325 1067 q 301 965 325 989 q 239 942 278 942 q 177 965 200 942 q 154 1028 154 989 q 177 1090 154 1067 q 239 1114 200 1114 z "},"Ị":{"ha":479,"x_min":51,"x_max":428,"o":"m 53 818 l 428 818 l 428 722 l 299 722 l 296 96 l 428 96 l 428 0 l 51 0 l 51 96 l 186 96 l 186 722 l 53 722 l 53 818 m 253 -81 q 315 -104 292 -81 q 339 -167 339 -128 q 315 -229 339 -206 q 253 -253 292 -253 q 191 -229 214 -253 q 168 -167 168 -206 q 191 -104 168 -128 q 253 -81 214 -81 z "},"Ì":{"ha":479,"x_min":-39,"x_max":428,"o":"m 53 818 l 428 818 l 428 722 l 299 722 l 296 96 l 428 96 l 428 0 l 51 0 l 51 96 l 186 96 l 186 722 l 53 722 l 53 818 m -14 1058 l 324 942 l 311 892 l -39 957 l -14 1058 z "},"Ỉ":{"ha":479,"x_min":51,"x_max":428,"o":"m 53 818 l 428 818 l 428 722 l 299 722 l 296 96 l 428 96 l 428 0 l 51 0 l 51 96 l 186 96 l 186 722 l 53 722 l 53 818 m 219 936 q 253 976 240 953 q 265 1019 265 999 q 255 1050 265 1039 q 224 1061 244 1061 q 158 1025 189 1061 l 110 1081 q 169 1128 135 1111 q 240 1144 204 1144 q 322 1114 289 1144 q 356 1029 356 1083 q 254 893 356 963 l 219 936 z "},"Ȋ":{"ha":479,"x_min":22,"x_max":457,"o":"m 53 818 l 428 818 l 428 722 l 299 722 l 296 96 l 428 96 l 428 0 l 51 0 l 51 96 l 186 96 l 186 722 l 53 722 l 53 818 m 239 1100 q 385 1058 329 1100 q 457 933 440 1015 l 367 917 q 239 1011 354 1011 q 113 917 128 1011 l 22 933 q 94 1058 39 1015 q 239 1100 149 1100 z "},"Ī":{"ha":479,"x_min":32,"x_max":447,"o":"m 53 818 l 428 818 l 428 722 l 299 722 l 296 96 l 428 96 l 428 0 l 51 0 l 51 96 l 186 96 l 186 722 l 53 722 l 53 818 m 32 1040 l 447 1040 l 447 958 l 32 958 l 32 1040 z "},"Į":{"ha":479,"x_min":51,"x_max":475,"o":"m 407 -207 q 475 -194 440 -207 l 475 -279 q 364 -307 419 -307 q 254 -272 300 -307 q 208 -179 208 -237 q 242 -78 208 -122 q 344 0 275 -35 l 51 0 l 51 96 l 186 96 l 186 722 l 53 722 l 53 818 l 428 818 l 428 722 l 299 722 l 296 96 l 428 96 l 428 1 l 429 0 q 349 -66 375 -31 q 324 -144 324 -101 q 345 -191 324 -175 q 407 -207 367 -207 z "},"Ĩ":{"ha":479,"x_min":44,"x_max":494,"o":"m 53 818 l 428 818 l 428 722 l 299 722 l 296 96 l 428 96 l 428 0 l 51 0 l 51 96 l 186 96 l 186 722 l 53 722 l 53 818 m 44 985 q 124 1029 93 1017 q 197 1042 154 1042 q 250 1034 228 1042 q 303 1010 272 1026 q 339 992 324 997 q 371 986 354 986 q 407 994 392 986 q 461 1032 422 1003 l 494 954 q 426 907 454 919 q 364 894 397 894 q 324 902 343 894 q 281 924 306 910 q 238 944 257 938 q 201 951 219 951 q 150 945 171 951 q 106 928 129 939 q 74 913 83 917 l 44 985 z "},"J":{"ha":714,"x_min":35,"x_max":676,"o":"m 546 328 q 471 72 546 163 q 263 -19 396 -19 q 69 21 172 -19 l 35 196 l 129 218 l 158 94 q 265 71 215 71 q 389 134 344 71 q 433 317 433 197 l 435 722 l 251 722 l 251 818 l 676 818 l 676 722 l 546 722 l 546 328 z "},"Ĵ":{"ha":714,"x_min":35,"x_max":721,"o":"m 546 328 q 471 72 546 163 q 263 -19 396 -19 q 69 21 172 -19 l 35 196 l 129 218 l 158 94 q 265 71 215 71 q 389 134 344 71 q 433 317 433 197 l 435 722 l 251 722 l 251 818 l 676 818 l 676 722 l 546 722 l 546 328 m 483 1081 l 721 946 l 696 901 l 483 979 l 271 901 l 246 946 l 483 1081 z "},"K":{"ha":929,"x_min":51,"x_max":883,"o":"m 51 818 l 381 818 l 381 722 l 292 722 l 292 461 l 421 461 l 613 722 l 510 722 l 510 818 l 851 818 l 851 722 l 725 722 l 515 438 l 744 96 l 883 96 l 883 0 l 510 0 l 510 96 l 622 96 l 443 365 l 292 365 l 293 96 l 381 96 l 381 0 l 51 0 l 51 96 l 182 96 l 182 722 l 51 722 l 51 818 z "},"Ķ":{"ha":929,"x_min":51,"x_max":883,"o":"m 51 818 l 381 818 l 381 722 l 292 722 l 292 461 l 421 461 l 613 722 l 510 722 l 510 818 l 851 818 l 851 722 l 725 722 l 515 438 l 744 96 l 883 96 l 883 0 l 510 0 l 510 96 l 622 96 l 443 365 l 292 365 l 293 96 l 381 96 l 381 0 l 51 0 l 51 96 l 182 96 l 182 722 l 51 722 l 51 818 m 369 -376 q 398 -332 376 -367 q 433 -265 419 -297 q 377 -240 399 -262 q 356 -185 356 -217 q 381 -123 356 -147 q 446 -99 407 -99 q 512 -126 483 -99 q 540 -193 540 -154 q 513 -290 540 -240 q 452 -381 486 -340 q 418 -418 418 -421 l 369 -376 z "},"L":{"ha":767,"x_min":51,"x_max":728,"o":"m 51 818 l 479 818 l 479 722 l 322 722 l 319 96 l 582 96 l 636 243 l 728 213 l 654 0 l 51 0 l 51 96 l 210 96 l 211 722 l 51 722 l 51 818 z "},"Ĺ":{"ha":767,"x_min":51,"x_max":728,"o":"m 51 818 l 479 818 l 479 722 l 322 722 l 319 96 l 582 96 l 636 243 l 728 213 l 654 0 l 51 0 l 51 96 l 210 96 l 211 722 l 51 722 l 51 818 m 483 1067 l 508 965 l 158 900 l 146 950 l 483 1067 z "},"Ľ":{"ha":767,"x_min":51,"x_max":728,"o":"m 51 818 l 479 818 l 479 722 l 322 722 l 319 96 l 582 96 l 636 243 l 728 213 l 654 0 l 51 0 l 51 96 l 210 96 l 211 722 l 51 722 l 51 818 m 615 836 l 715 814 l 619 522 l 557 536 l 615 836 z "},"Ļ":{"ha":767,"x_min":51,"x_max":728,"o":"m 51 818 l 479 818 l 479 722 l 322 722 l 319 96 l 582 96 l 636 243 l 728 213 l 654 0 l 51 0 l 51 96 l 210 96 l 211 722 l 51 722 l 51 818 m 290 -376 q 319 -332 297 -367 q 354 -265 340 -297 q 298 -240 319 -262 q 276 -185 276 -217 q 302 -123 276 -147 q 367 -99 328 -99 q 433 -126 404 -99 q 461 -193 461 -154 q 434 -290 461 -240 q 373 -381 407 -340 q 339 -418 339 -421 l 290 -376 z "},"Ŀ":{"ha":833,"x_min":51,"x_max":728,"o":"m 51 818 l 479 818 l 479 722 l 322 722 l 319 96 l 582 96 l 636 243 l 728 213 l 654 0 l 51 0 l 51 96 l 210 96 l 211 722 l 51 722 l 51 818 m 490 543 q 550 517 525 543 q 575 457 575 492 q 550 397 575 422 q 490 371 525 371 q 430 397 456 371 q 404 457 404 422 q 430 518 404 493 q 490 543 456 543 z "},"Ḷ":{"ha":767,"x_min":51,"x_max":728,"o":"m 51 818 l 479 818 l 479 722 l 322 722 l 319 96 l 582 96 l 636 243 l 728 213 l 654 0 l 51 0 l 51 96 l 210 96 l 211 722 l 51 722 l 51 818 m 368 -81 q 431 -104 407 -81 q 454 -167 454 -128 q 431 -229 454 -206 q 368 -253 407 -253 q 306 -229 329 -253 q 283 -167 283 -206 q 306 -104 283 -128 q 368 -81 329 -81 z "},"Ḻ":{"ha":767,"x_min":51,"x_max":728,"o":"m 51 818 l 479 818 l 479 722 l 322 722 l 319 96 l 582 96 l 636 243 l 728 213 l 654 0 l 51 0 l 51 96 l 210 96 l 211 722 l 51 722 l 51 818 m 156 -56 l 582 -56 l 582 -142 l 156 -142 l 156 -56 z "},"Ł":{"ha":767,"x_min":51,"x_max":728,"o":"m 636 243 l 728 213 l 654 0 l 51 0 l 51 96 l 210 96 l 210 285 l 107 224 l 107 324 l 210 385 l 211 722 l 51 722 l 51 818 l 479 818 l 479 722 l 322 722 l 321 450 l 556 589 l 556 489 l 321 350 l 319 96 l 582 96 l 636 243 z "},"M":{"ha":1174,"x_min":50,"x_max":1122,"o":"m 56 818 l 363 818 l 596 222 l 826 818 l 1122 818 l 1122 722 l 992 722 l 992 96 l 1122 96 l 1122 0 l 792 0 l 792 96 l 881 96 l 881 722 l 818 542 l 649 99 l 529 99 l 351 544 l 288 722 l 283 96 l 375 96 l 375 0 l 50 0 l 50 96 l 183 96 l 185 722 l 56 722 l 56 818 z "},"Ṃ":{"ha":1174,"x_min":50,"x_max":1122,"o":"m 56 818 l 363 818 l 596 222 l 826 818 l 1122 818 l 1122 722 l 992 722 l 992 96 l 1122 96 l 1122 0 l 792 0 l 792 96 l 881 96 l 881 722 l 818 542 l 649 99 l 529 99 l 351 544 l 288 722 l 283 96 l 375 96 l 375 0 l 50 0 l 50 96 l 183 96 l 185 722 l 56 722 l 56 818 m 586 -81 q 649 -104 625 -81 q 672 -167 672 -128 q 649 -229 672 -206 q 586 -253 625 -253 q 524 -229 547 -253 q 501 -167 501 -206 q 524 -104 501 -128 q 586 -81 547 -81 z "},"N":{"ha":997,"x_min":51,"x_max":960,"o":"m 53 818 l 360 818 l 714 169 l 714 722 l 597 722 l 597 818 l 960 818 l 960 722 l 825 722 l 825 0 l 689 0 l 294 722 l 297 96 l 414 96 l 414 0 l 51 0 l 51 96 l 185 96 l 183 722 l 53 722 l 53 818 z "},"Ń":{"ha":997,"x_min":51,"x_max":960,"o":"m 53 818 l 360 818 l 714 169 l 714 722 l 597 722 l 597 818 l 960 818 l 960 722 l 825 722 l 825 0 l 689 0 l 294 722 l 297 96 l 414 96 l 414 0 l 51 0 l 51 96 l 185 96 l 183 722 l 53 722 l 53 818 m 708 1067 l 733 965 l 383 900 l 371 950 l 708 1067 z "},"Ň":{"ha":997,"x_min":51,"x_max":960,"o":"m 53 818 l 360 818 l 714 169 l 714 722 l 597 722 l 597 818 l 960 818 l 960 722 l 825 722 l 825 0 l 689 0 l 294 722 l 297 96 l 414 96 l 414 0 l 51 0 l 51 96 l 185 96 l 183 722 l 53 722 l 53 818 m 500 883 l 288 1021 l 325 1079 l 500 992 l 675 1082 l 707 1021 l 500 883 z "},"Ņ":{"ha":997,"x_min":51,"x_max":960,"o":"m 53 818 l 360 818 l 714 169 l 714 722 l 597 722 l 597 818 l 960 818 l 960 722 l 825 722 l 825 0 l 689 0 l 294 722 l 297 96 l 414 96 l 414 0 l 51 0 l 51 96 l 185 96 l 183 722 l 53 722 l 53 818 m 418 -376 q 447 -332 425 -367 q 482 -265 468 -297 q 426 -240 447 -262 q 404 -185 404 -217 q 430 -123 404 -147 q 494 -99 456 -99 q 560 -126 532 -99 q 589 -193 589 -154 q 562 -290 589 -240 q 501 -381 535 -340 q 467 -418 467 -421 l 418 -376 z "},"Ṅ":{"ha":997,"x_min":51,"x_max":960,"o":"m 53 818 l 360 818 l 714 169 l 714 722 l 597 722 l 597 818 l 960 818 l 960 722 l 825 722 l 825 0 l 689 0 l 294 722 l 297 96 l 414 96 l 414 0 l 51 0 l 51 96 l 185 96 l 183 722 l 53 722 l 53 818 m 496 1114 q 558 1090 535 1114 q 582 1028 582 1067 q 558 965 582 989 q 496 942 535 942 q 434 965 457 942 q 411 1028 411 989 q 434 1090 411 1067 q 496 1114 457 1114 z "},"Ṇ":{"ha":997,"x_min":51,"x_max":960,"o":"m 53 818 l 360 818 l 714 169 l 714 722 l 597 722 l 597 818 l 960 818 l 960 722 l 825 722 l 825 0 l 689 0 l 294 722 l 297 96 l 414 96 l 414 0 l 51 0 l 51 96 l 185 96 l 183 722 l 53 722 l 53 818 m 496 -81 q 558 -104 535 -81 q 582 -167 582 -128 q 558 -229 582 -206 q 496 -253 535 -253 q 434 -229 457 -253 q 411 -167 411 -206 q 434 -104 411 -128 q 496 -81 457 -81 z "},"Ŋ":{"ha":997,"x_min":51,"x_max":960,"o":"m 590 -310 q 424 -271 515 -310 l 449 -185 q 574 -211 524 -211 q 674 -168 639 -211 q 713 -32 708 -125 l 294 722 l 297 96 l 414 96 l 414 0 l 51 0 l 51 96 l 185 96 l 183 722 l 53 722 l 53 818 l 360 818 l 714 169 l 714 722 l 597 722 l 597 818 l 960 818 l 960 722 l 825 722 l 825 -1 q 758 -229 819 -149 q 590 -310 697 -310 z "},"Ṉ":{"ha":997,"x_min":51,"x_max":960,"o":"m 53 818 l 360 818 l 714 169 l 714 722 l 597 722 l 597 818 l 960 818 l 960 722 l 825 722 l 825 0 l 689 0 l 294 722 l 297 96 l 414 96 l 414 0 l 51 0 l 51 96 l 185 96 l 183 722 l 53 722 l 53 818 m 283 -56 l 710 -56 l 710 -142 l 283 -142 l 283 -56 z "},"Ñ":{"ha":997,"x_min":51,"x_max":960,"o":"m 53 818 l 360 818 l 714 169 l 714 722 l 597 722 l 597 818 l 960 818 l 960 722 l 825 722 l 825 0 l 689 0 l 294 722 l 297 96 l 414 96 l 414 0 l 51 0 l 51 96 l 185 96 l 183 722 l 53 722 l 53 818 m 301 985 q 381 1029 350 1017 q 454 1042 411 1042 q 507 1034 485 1042 q 560 1010 529 1026 q 596 992 581 997 q 628 986 611 986 q 664 994 649 986 q 718 1032 679 1003 l 751 954 q 683 907 711 919 q 621 894 654 894 q 581 902 600 894 q 538 924 563 910 q 495 944 514 938 q 458 951 476 951 q 407 945 428 951 q 363 928 386 939 q 331 913 340 917 l 301 985 z "},"O":{"ha":883,"x_min":61,"x_max":822,"o":"m 440 839 q 640 785 554 839 q 774 635 726 732 q 822 410 822 538 q 775 184 822 282 q 641 33 728 86 q 442 -21 554 -21 q 242 33 329 -21 q 108 184 156 86 q 61 410 61 282 q 108 635 61 538 q 242 785 156 732 q 440 839 328 839 m 442 742 q 249 654 318 742 q 179 410 179 567 q 249 164 179 251 q 442 76 318 76 q 635 164 565 76 q 704 410 704 251 q 635 654 704 567 q 442 742 565 742 z "},"Ó":{"ha":883,"x_min":61,"x_max":822,"o":"m 440 839 q 640 785 554 839 q 774 635 726 732 q 822 410 822 538 q 775 184 822 282 q 641 33 728 86 q 442 -21 554 -21 q 242 33 329 -21 q 108 184 156 86 q 61 410 61 282 q 108 635 61 538 q 242 785 156 732 q 440 839 328 839 m 442 742 q 249 654 318 742 q 179 410 179 567 q 249 164 179 251 q 442 76 318 76 q 635 164 565 76 q 704 410 704 251 q 635 654 704 567 q 442 742 565 742 m 653 1067 l 678 965 l 328 900 l 315 950 l 653 1067 z "},"Ŏ":{"ha":883,"x_min":61,"x_max":822,"o":"m 440 839 q 640 785 554 839 q 774 635 726 732 q 822 410 822 538 q 775 184 822 282 q 641 33 728 86 q 442 -21 554 -21 q 242 33 329 -21 q 108 184 156 86 q 61 410 61 282 q 108 635 61 538 q 242 785 156 732 q 440 839 328 839 m 442 742 q 249 654 318 742 q 179 410 179 567 q 249 164 179 251 q 442 76 318 76 q 635 164 565 76 q 704 410 704 251 q 635 654 704 567 q 442 742 565 742 m 440 903 q 295 945 350 903 q 224 1069 240 988 l 314 1086 q 440 992 329 992 q 568 1086 556 992 l 658 1069 q 586 945 642 988 q 440 903 531 903 z "},"Ô":{"ha":883,"x_min":61,"x_max":822,"o":"m 440 839 q 640 785 554 839 q 774 635 726 732 q 822 410 822 538 q 775 184 822 282 q 641 33 728 86 q 442 -21 554 -21 q 242 33 329 -21 q 108 184 156 86 q 61 410 61 282 q 108 635 61 538 q 242 785 156 732 q 440 839 328 839 m 442 742 q 249 654 318 742 q 179 410 179 567 q 249 164 179 251 q 442 76 318 76 q 635 164 565 76 q 704 410 704 251 q 635 654 704 567 q 442 742 565 742 m 442 1081 l 679 946 l 654 901 l 442 979 l 229 901 l 204 946 l 442 1081 z "},"Ố":{"ha":883,"x_min":61,"x_max":822,"o":"m 440 839 q 640 785 554 839 q 774 635 726 732 q 822 410 822 538 q 775 184 822 282 q 641 33 728 86 q 442 -21 554 -21 q 242 33 329 -21 q 108 184 156 86 q 61 410 61 282 q 108 635 61 538 q 242 785 156 732 q 440 839 328 839 m 442 742 q 249 654 318 742 q 179 410 179 567 q 249 164 179 251 q 442 76 318 76 q 635 164 565 76 q 704 410 704 251 q 635 654 704 567 q 442 742 565 742 m 539 1288 l 589 1196 l 326 1092 l 304 1138 l 539 1288 m 442 1081 l 679 946 l 654 901 l 442 979 l 229 901 l 204 946 l 442 1081 z "},"Ộ":{"ha":883,"x_min":61,"x_max":822,"o":"m 440 839 q 640 785 554 839 q 774 635 726 732 q 822 410 822 538 q 775 184 822 282 q 641 33 728 86 q 442 -21 554 -21 q 242 33 329 -21 q 108 184 156 86 q 61 410 61 282 q 108 635 61 538 q 242 785 156 732 q 440 839 328 839 m 442 742 q 249 654 318 742 q 179 410 179 567 q 249 164 179 251 q 442 76 318 76 q 635 164 565 76 q 704 410 704 251 q 635 654 704 567 q 442 742 565 742 m 440 -81 q 503 -104 479 -81 q 526 -167 526 -128 q 503 -229 526 -206 q 440 -253 479 -253 q 378 -229 401 -253 q 356 -167 356 -206 q 378 -104 356 -128 q 440 -81 401 -81 m 442 1081 l 679 946 l 654 901 l 442 979 l 229 901 l 204 946 l 442 1081 z "},"Ồ":{"ha":883,"x_min":61,"x_max":822,"o":"m 440 839 q 640 785 554 839 q 774 635 726 732 q 822 410 822 538 q 775 184 822 282 q 641 33 728 86 q 442 -21 554 -21 q 242 33 329 -21 q 108 184 156 86 q 61 410 61 282 q 108 635 61 538 q 242 785 156 732 q 440 839 328 839 m 442 742 q 249 654 318 742 q 179 410 179 567 q 249 164 179 251 q 442 76 318 76 q 635 164 565 76 q 704 410 704 251 q 635 654 704 567 q 442 742 565 742 m 346 1278 l 581 1128 l 558 1082 l 296 1186 l 346 1278 m 442 1081 l 679 946 l 654 901 l 442 979 l 229 901 l 204 946 l 442 1081 z "},"Ổ":{"ha":883,"x_min":61,"x_max":822,"o":"m 440 839 q 640 785 554 839 q 774 635 726 732 q 822 410 822 538 q 775 184 822 282 q 641 33 728 86 q 442 -21 554 -21 q 242 33 329 -21 q 108 184 156 86 q 61 410 61 282 q 108 635 61 538 q 242 785 156 732 q 440 839 328 839 m 442 742 q 249 654 318 742 q 179 410 179 567 q 249 164 179 251 q 442 76 318 76 q 635 164 565 76 q 704 410 704 251 q 635 654 704 567 q 442 742 565 742 m 442 1081 l 679 946 l 654 901 l 442 979 l 229 901 l 204 946 l 442 1081 m 549 1090 q 582 1130 569 1107 q 594 1174 594 1153 q 584 1204 594 1193 q 553 1215 574 1215 q 488 1179 518 1215 l 439 1235 q 499 1282 464 1265 q 569 1299 533 1299 q 651 1268 618 1299 q 685 1183 685 1238 q 583 1047 685 1117 l 549 1090 z "},"Ỗ":{"ha":883,"x_min":61,"x_max":822,"o":"m 440 839 q 640 785 554 839 q 774 635 726 732 q 822 410 822 538 q 775 184 822 282 q 641 33 728 86 q 442 -21 554 -21 q 242 33 329 -21 q 108 184 156 86 q 61 410 61 282 q 108 635 61 538 q 242 785 156 732 q 440 839 328 839 m 442 742 q 249 654 318 742 q 179 410 179 567 q 249 164 179 251 q 442 76 318 76 q 635 164 565 76 q 704 410 704 251 q 635 654 704 567 q 442 742 565 742 m 226 1179 q 306 1224 275 1211 q 379 1236 336 1236 q 432 1228 410 1236 q 485 1204 454 1221 q 521 1186 506 1192 q 553 1181 536 1181 q 589 1189 574 1181 q 643 1226 604 1197 l 669 1153 q 601 1106 629 1118 q 539 1093 572 1093 q 499 1101 518 1093 q 456 1122 481 1108 q 413 1143 432 1136 q 376 1150 394 1150 q 325 1144 346 1150 q 281 1126 304 1138 q 249 1111 258 1115 l 226 1179 m 447 1079 l 685 944 l 660 900 l 447 978 l 235 900 l 210 944 l 447 1079 z "},"Ȍ":{"ha":883,"x_min":61,"x_max":822,"o":"m 440 839 q 640 785 554 839 q 774 635 726 732 q 822 410 822 538 q 775 184 822 282 q 641 33 728 86 q 442 -21 554 -21 q 242 33 329 -21 q 108 184 156 86 q 61 410 61 282 q 108 635 61 538 q 242 785 156 732 q 440 839 328 839 m 442 742 q 249 654 318 742 q 179 410 179 567 q 249 164 179 251 q 442 76 318 76 q 635 164 565 76 q 704 410 704 251 q 635 654 704 567 q 442 742 565 742 m 421 1183 l 596 933 l 544 894 l 339 1122 l 421 1183 m 189 1156 l 407 942 l 364 894 l 121 1081 l 189 1156 z "},"Ö":{"ha":883,"x_min":61,"x_max":822,"o":"m 440 839 q 640 785 554 839 q 774 635 726 732 q 822 410 822 538 q 775 184 822 282 q 641 33 728 86 q 442 -21 554 -21 q 242 33 329 -21 q 108 184 156 86 q 61 410 61 282 q 108 635 61 538 q 242 785 156 732 q 440 839 328 839 m 442 742 q 249 654 318 742 q 179 410 179 567 q 249 164 179 251 q 442 76 318 76 q 635 164 565 76 q 704 410 704 251 q 635 654 704 567 q 442 742 565 742 m 318 1082 q 372 1059 349 1082 q 396 1004 396 1036 q 373 949 396 972 q 318 926 350 926 q 263 949 286 926 q 240 1004 240 972 q 263 1059 240 1036 q 318 1082 286 1082 m 565 1082 q 619 1059 596 1082 q 643 1004 643 1036 q 620 949 643 972 q 565 926 597 926 q 510 949 533 926 q 488 1004 488 972 q 510 1059 488 1036 q 565 1082 533 1082 z "},"Ȫ":{"ha":883,"x_min":61,"x_max":822,"o":"m 440 839 q 640 785 554 839 q 774 635 726 732 q 822 410 822 538 q 775 184 822 282 q 641 33 728 86 q 442 -21 554 -21 q 242 33 329 -21 q 108 184 156 86 q 61 410 61 282 q 108 635 61 538 q 242 785 156 732 q 440 839 328 839 m 442 742 q 249 654 318 742 q 179 410 179 567 q 249 164 179 251 q 442 76 318 76 q 635 164 565 76 q 704 410 704 251 q 635 654 704 567 q 442 742 565 742 m 318 1082 q 372 1059 349 1082 q 396 1004 396 1036 q 373 949 396 972 q 318 926 350 926 q 263 949 286 926 q 240 1004 240 972 q 263 1059 240 1036 q 318 1082 286 1082 m 565 1082 q 619 1059 596 1082 q 643 1004 643 1036 q 620 949 643 972 q 565 926 597 926 q 510 949 533 926 q 488 1004 488 972 q 510 1059 488 1036 q 565 1082 533 1082 m 233 1221 l 649 1221 l 649 1139 l 233 1139 l 233 1221 z "},"Ȱ":{"ha":883,"x_min":61,"x_max":822,"o":"m 440 839 q 640 785 554 839 q 774 635 726 732 q 822 410 822 538 q 775 184 822 282 q 641 33 728 86 q 442 -21 554 -21 q 242 33 329 -21 q 108 184 156 86 q 61 410 61 282 q 108 635 61 538 q 242 785 156 732 q 440 839 328 839 m 442 742 q 249 654 318 742 q 179 410 179 567 q 249 164 179 251 q 442 76 318 76 q 635 164 565 76 q 704 410 704 251 q 635 654 704 567 q 442 742 565 742 m 440 1114 q 503 1090 479 1114 q 526 1028 526 1067 q 503 965 526 989 q 440 942 479 942 q 378 965 401 942 q 356 1028 356 989 q 378 1090 356 1067 q 440 1114 401 1114 m 233 1238 l 649 1238 l 649 1156 l 233 1156 l 233 1238 z "},"Ọ":{"ha":883,"x_min":61,"x_max":822,"o":"m 440 839 q 640 785 554 839 q 774 635 726 732 q 822 410 822 538 q 775 184 822 282 q 641 33 728 86 q 442 -21 554 -21 q 242 33 329 -21 q 108 184 156 86 q 61 410 61 282 q 108 635 61 538 q 242 785 156 732 q 440 839 328 839 m 442 742 q 249 654 318 742 q 179 410 179 567 q 249 164 179 251 q 442 76 318 76 q 635 164 565 76 q 704 410 704 251 q 635 654 704 567 q 442 742 565 742 m 440 -81 q 503 -104 479 -81 q 526 -167 526 -128 q 503 -229 526 -206 q 440 -253 479 -253 q 378 -229 401 -253 q 356 -167 356 -206 q 378 -104 356 -128 q 440 -81 401 -81 z "},"Ò":{"ha":883,"x_min":61,"x_max":822,"o":"m 440 839 q 640 785 554 839 q 774 635 726 732 q 822 410 822 538 q 775 184 822 282 q 641 33 728 86 q 442 -21 554 -21 q 242 33 329 -21 q 108 184 156 86 q 61 410 61 282 q 108 635 61 538 q 242 785 156 732 q 440 839 328 839 m 442 742 q 249 654 318 742 q 179 410 179 567 q 249 164 179 251 q 442 76 318 76 q 635 164 565 76 q 704 410 704 251 q 635 654 704 567 q 442 742 565 742 m 188 1058 l 525 942 l 513 892 l 163 957 l 188 1058 z "},"Ỏ":{"ha":883,"x_min":61,"x_max":822,"o":"m 440 839 q 640 785 554 839 q 774 635 726 732 q 822 410 822 538 q 775 184 822 282 q 641 33 728 86 q 442 -21 554 -21 q 242 33 329 -21 q 108 184 156 86 q 61 410 61 282 q 108 635 61 538 q 242 785 156 732 q 440 839 328 839 m 442 742 q 249 654 318 742 q 179 410 179 567 q 249 164 179 251 q 442 76 318 76 q 635 164 565 76 q 704 410 704 251 q 635 654 704 567 q 442 742 565 742 m 421 936 q 454 976 442 953 q 467 1019 467 999 q 456 1050 467 1039 q 425 1061 446 1061 q 360 1025 390 1061 l 311 1081 q 371 1128 336 1111 q 442 1144 406 1144 q 524 1114 490 1144 q 557 1029 557 1083 q 456 893 557 963 l 421 936 z "},"Ơ":{"ha":883,"x_min":61,"x_max":822,"o":"m 667 767 q 782 619 742 711 q 822 410 822 528 q 775 184 822 282 q 641 33 728 86 q 442 -21 554 -21 q 242 33 329 -21 q 108 184 156 86 q 61 410 61 282 q 108 635 61 538 q 242 785 156 732 q 440 839 328 839 q 567 819 506 839 q 624 852 604 825 q 643 928 643 879 l 729 928 q 667 767 729 815 m 442 76 q 635 164 565 76 q 704 410 704 251 q 635 654 704 567 q 442 742 565 742 q 249 654 318 742 q 179 410 179 567 q 249 164 179 251 q 442 76 318 76 z "},"Ớ":{"ha":883,"x_min":61,"x_max":822,"o":"m 667 767 q 782 619 742 711 q 822 410 822 528 q 775 184 822 282 q 641 33 728 86 q 442 -21 554 -21 q 242 33 329 -21 q 108 184 156 86 q 61 410 61 282 q 108 635 61 538 q 242 785 156 732 q 440 839 328 839 q 567 819 506 839 q 624 852 604 825 q 643 928 643 879 l 729 928 q 667 767 729 815 m 442 76 q 635 164 565 76 q 704 410 704 251 q 635 654 704 567 q 442 742 565 742 q 249 654 318 742 q 179 410 179 567 q 249 164 179 251 q 442 76 318 76 m 653 1067 l 678 965 l 328 900 l 315 950 l 653 1067 z "},"Ợ":{"ha":883,"x_min":61,"x_max":822,"o":"m 667 767 q 782 619 742 711 q 822 410 822 528 q 775 184 822 282 q 641 33 728 86 q 442 -21 554 -21 q 242 33 329 -21 q 108 184 156 86 q 61 410 61 282 q 108 635 61 538 q 242 785 156 732 q 440 839 328 839 q 567 819 506 839 q 624 852 604 825 q 643 928 643 879 l 729 928 q 667 767 729 815 m 442 76 q 635 164 565 76 q 704 410 704 251 q 635 654 704 567 q 442 742 565 742 q 249 654 318 742 q 179 410 179 567 q 249 164 179 251 q 442 76 318 76 m 440 -81 q 503 -104 479 -81 q 526 -167 526 -128 q 503 -229 526 -206 q 440 -253 479 -253 q 378 -229 401 -253 q 356 -167 356 -206 q 378 -104 356 -128 q 440 -81 401 -81 z "},"Ờ":{"ha":883,"x_min":61,"x_max":822,"o":"m 667 767 q 782 619 742 711 q 822 410 822 528 q 775 184 822 282 q 641 33 728 86 q 442 -21 554 -21 q 242 33 329 -21 q 108 184 156 86 q 61 410 61 282 q 108 635 61 538 q 242 785 156 732 q 440 839 328 839 q 567 819 506 839 q 624 852 604 825 q 643 928 643 879 l 729 928 q 667 767 729 815 m 442 76 q 635 164 565 76 q 704 410 704 251 q 635 654 704 567 q 442 742 565 742 q 249 654 318 742 q 179 410 179 567 q 249 164 179 251 q 442 76 318 76 m 247 1058 l 585 942 l 572 892 l 222 957 l 247 1058 z "},"Ở":{"ha":883,"x_min":61,"x_max":822,"o":"m 667 767 q 782 619 742 711 q 822 410 822 528 q 775 184 822 282 q 641 33 728 86 q 442 -21 554 -21 q 242 33 329 -21 q 108 184 156 86 q 61 410 61 282 q 108 635 61 538 q 242 785 156 732 q 440 839 328 839 q 567 819 506 839 q 624 852 604 825 q 643 928 643 879 l 729 928 q 667 767 729 815 m 442 76 q 635 164 565 76 q 704 410 704 251 q 635 654 704 567 q 442 742 565 742 q 249 654 318 742 q 179 410 179 567 q 249 164 179 251 q 442 76 318 76 m 421 936 q 454 976 442 953 q 467 1019 467 999 q 456 1050 467 1039 q 425 1061 446 1061 q 360 1025 390 1061 l 311 1081 q 371 1128 336 1111 q 442 1144 406 1144 q 524 1114 490 1144 q 557 1029 557 1083 q 456 893 557 963 l 421 936 z "},"Ỡ":{"ha":883,"x_min":61,"x_max":822,"o":"m 667 767 q 782 619 742 711 q 822 410 822 528 q 775 184 822 282 q 641 33 728 86 q 442 -21 554 -21 q 242 33 329 -21 q 108 184 156 86 q 61 410 61 282 q 108 635 61 538 q 242 785 156 732 q 440 839 328 839 q 567 819 506 839 q 624 852 604 825 q 643 928 643 879 l 729 928 q 667 767 729 815 m 442 76 q 635 164 565 76 q 704 410 704 251 q 635 654 704 567 q 442 742 565 742 q 249 654 318 742 q 179 410 179 567 q 249 164 179 251 q 442 76 318 76 m 214 1007 q 293 1051 263 1039 q 367 1064 324 1064 q 419 1056 397 1064 q 472 1032 442 1049 q 508 1014 493 1019 q 540 1008 524 1008 q 576 1017 561 1008 q 631 1054 592 1025 l 664 976 q 595 929 624 942 q 533 917 567 917 q 494 924 513 917 q 450 946 475 932 q 408 967 426 960 q 371 974 389 974 q 319 967 340 974 q 276 950 299 961 q 243 935 253 939 l 214 1007 z "},"Ő":{"ha":883,"x_min":61,"x_max":822,"o":"m 440 839 q 640 785 554 839 q 774 635 726 732 q 822 410 822 538 q 775 184 822 282 q 641 33 728 86 q 442 -21 554 -21 q 242 33 329 -21 q 108 184 156 86 q 61 410 61 282 q 108 635 61 538 q 242 785 156 732 q 440 839 328 839 m 442 742 q 249 654 318 742 q 179 410 179 567 q 249 164 179 251 q 442 76 318 76 q 635 164 565 76 q 704 410 704 251 q 635 654 704 567 q 442 742 565 742 m 558 1121 l 614 1043 l 383 901 l 356 940 l 558 1121 m 764 1060 l 797 971 l 533 903 l 515 947 l 764 1060 z "},"Ȏ":{"ha":883,"x_min":61,"x_max":822,"o":"m 440 839 q 640 785 554 839 q 774 635 726 732 q 822 410 822 538 q 775 184 822 282 q 641 33 728 86 q 442 -21 554 -21 q 242 33 329 -21 q 108 184 156 86 q 61 410 61 282 q 108 635 61 538 q 242 785 156 732 q 440 839 328 839 m 442 742 q 249 654 318 742 q 179 410 179 567 q 249 164 179 251 q 442 76 318 76 q 635 164 565 76 q 704 410 704 251 q 635 654 704 567 q 442 742 565 742 m 440 1100 q 586 1058 531 1100 q 658 933 642 1015 l 568 917 q 440 1011 556 1011 q 314 917 329 1011 l 224 933 q 295 1058 240 1015 q 440 1100 350 1100 z "},"Ō":{"ha":883,"x_min":61,"x_max":822,"o":"m 440 839 q 640 785 554 839 q 774 635 726 732 q 822 410 822 538 q 775 184 822 282 q 641 33 728 86 q 442 -21 554 -21 q 242 33 329 -21 q 108 184 156 86 q 61 410 61 282 q 108 635 61 538 q 242 785 156 732 q 440 839 328 839 m 442 742 q 249 654 318 742 q 179 410 179 567 q 249 164 179 251 q 442 76 318 76 q 635 164 565 76 q 704 410 704 251 q 635 654 704 567 q 442 742 565 742 m 233 1040 l 649 1040 l 649 958 l 233 958 l 233 1040 z "},"Ṓ":{"ha":883,"x_min":61,"x_max":822,"o":"m 440 839 q 640 785 554 839 q 774 635 726 732 q 822 410 822 538 q 775 184 822 282 q 641 33 728 86 q 442 -21 554 -21 q 242 33 329 -21 q 108 184 156 86 q 61 410 61 282 q 108 635 61 538 q 242 785 156 732 q 440 839 328 839 m 442 742 q 249 654 318 742 q 179 410 179 567 q 249 164 179 251 q 442 76 318 76 q 635 164 565 76 q 704 410 704 251 q 635 654 704 567 q 442 742 565 742 m 233 1040 l 649 1040 l 649 958 l 233 958 l 233 1040 m 678 1275 l 703 1174 l 353 1108 l 340 1158 l 678 1275 z "},"Ṑ":{"ha":883,"x_min":61,"x_max":822,"o":"m 440 839 q 640 785 554 839 q 774 635 726 732 q 822 410 822 538 q 775 184 822 282 q 641 33 728 86 q 442 -21 554 -21 q 242 33 329 -21 q 108 184 156 86 q 61 410 61 282 q 108 635 61 538 q 242 785 156 732 q 440 839 328 839 m 442 742 q 249 654 318 742 q 179 410 179 567 q 249 164 179 251 q 442 76 318 76 q 635 164 565 76 q 704 410 704 251 q 635 654 704 567 q 442 742 565 742 m 233 1040 l 649 1040 l 649 958 l 233 958 l 233 1040 m 213 1267 l 550 1150 l 538 1100 l 188 1165 l 213 1267 z "},"Ǫ":{"ha":883,"x_min":61,"x_max":822,"o":"m 589 7 q 518 -56 540 -24 q 496 -131 496 -89 q 517 -177 496 -161 q 579 -193 539 -193 q 647 -181 613 -193 l 647 -265 q 536 -293 592 -293 q 426 -258 472 -293 q 381 -165 381 -224 q 460 -21 381 -82 l 442 -21 q 242 33 329 -21 q 108 184 156 86 q 61 410 61 282 q 108 635 61 538 q 242 785 156 732 q 440 839 328 839 q 640 785 554 839 q 774 635 726 732 q 822 410 822 538 q 760 157 822 263 q 589 7 699 51 m 179 410 q 249 164 179 251 q 442 76 318 76 q 635 164 565 76 q 704 410 704 251 q 635 654 704 567 q 442 742 565 742 q 249 654 318 742 q 179 410 179 567 z "},"Ø":{"ha":883,"x_min":61,"x_max":822,"o":"m 678 758 q 785 612 747 701 q 822 410 822 522 q 775 184 822 282 q 641 33 728 86 q 442 -21 554 -21 q 318 -1 376 -21 l 275 -96 l 172 -96 l 233 39 q 106 189 151 93 q 61 410 61 285 q 108 635 61 538 q 242 785 156 732 q 440 839 328 839 q 600 807 528 839 l 644 904 l 746 904 l 678 758 m 179 410 q 206 241 179 313 q 282 129 232 169 l 551 719 q 442 742 506 742 q 249 654 318 742 q 179 410 179 567 m 442 76 q 635 164 565 76 q 704 410 704 251 q 626 664 704 575 l 365 86 q 442 76 399 76 z "},"Ǿ":{"ha":883,"x_min":61,"x_max":822,"o":"m 678 758 q 785 612 747 701 q 822 410 822 522 q 775 184 822 282 q 641 33 728 86 q 442 -21 554 -21 q 318 -1 376 -21 l 275 -96 l 172 -96 l 233 39 q 106 189 151 93 q 61 410 61 285 q 108 635 61 538 q 242 785 156 732 q 440 839 328 839 q 600 807 528 839 l 644 904 l 746 904 l 678 758 m 179 410 q 206 241 179 313 q 282 129 232 169 l 551 719 q 442 742 506 742 q 249 654 318 742 q 179 410 179 567 m 442 76 q 635 164 565 76 q 704 410 704 251 q 626 664 704 575 l 365 86 q 442 76 399 76 m 653 1067 l 678 965 l 328 900 l 315 950 l 653 1067 z "},"Õ":{"ha":883,"x_min":61,"x_max":822,"o":"m 440 839 q 640 785 554 839 q 774 635 726 732 q 822 410 822 538 q 775 184 822 282 q 641 33 728 86 q 442 -21 554 -21 q 242 33 329 -21 q 108 184 156 86 q 61 410 61 282 q 108 635 61 538 q 242 785 156 732 q 440 839 328 839 m 442 742 q 249 654 318 742 q 179 410 179 567 q 249 164 179 251 q 442 76 318 76 q 635 164 565 76 q 704 410 704 251 q 635 654 704 567 q 442 742 565 742 m 246 985 q 325 1029 294 1017 q 399 1042 356 1042 q 451 1034 429 1042 q 504 1010 474 1026 q 540 992 525 997 q 572 986 556 986 q 608 994 593 986 q 663 1032 624 1003 l 696 954 q 627 907 656 919 q 565 894 599 894 q 526 902 544 894 q 482 924 507 910 q 440 944 458 938 q 403 951 421 951 q 351 945 372 951 q 308 928 331 939 q 275 913 285 917 l 246 985 z "},"Ṍ":{"ha":883,"x_min":61,"x_max":822,"o":"m 440 839 q 640 785 554 839 q 774 635 726 732 q 822 410 822 538 q 775 184 822 282 q 641 33 728 86 q 442 -21 554 -21 q 242 33 329 -21 q 108 184 156 86 q 61 410 61 282 q 108 635 61 538 q 242 785 156 732 q 440 839 328 839 m 442 742 q 249 654 318 742 q 179 410 179 567 q 249 164 179 251 q 442 76 318 76 q 635 164 565 76 q 704 410 704 251 q 635 654 704 567 q 442 742 565 742 m 246 985 q 325 1029 294 1017 q 399 1042 356 1042 q 451 1034 429 1042 q 504 1010 474 1026 q 540 992 525 997 q 572 986 556 986 q 608 994 593 986 q 663 1032 624 1003 l 696 954 q 627 907 656 919 q 565 894 599 894 q 526 902 544 894 q 482 924 507 910 q 440 944 458 938 q 403 951 421 951 q 351 945 372 951 q 308 928 331 939 q 275 913 285 917 l 246 985 m 651 1267 l 676 1165 l 326 1100 l 314 1150 l 651 1267 z "},"Ṏ":{"ha":883,"x_min":61,"x_max":822,"o":"m 440 839 q 640 785 554 839 q 774 635 726 732 q 822 410 822 538 q 775 184 822 282 q 641 33 728 86 q 442 -21 554 -21 q 242 33 329 -21 q 108 184 156 86 q 61 410 61 282 q 108 635 61 538 q 242 785 156 732 q 440 839 328 839 m 442 742 q 249 654 318 742 q 179 410 179 567 q 249 164 179 251 q 442 76 318 76 q 635 164 565 76 q 704 410 704 251 q 635 654 704 567 q 442 742 565 742 m 246 985 q 325 1029 294 1017 q 399 1042 356 1042 q 451 1034 429 1042 q 504 1010 474 1026 q 540 992 525 997 q 572 986 556 986 q 608 994 593 986 q 663 1032 624 1003 l 696 954 q 627 907 656 919 q 565 894 599 894 q 526 902 544 894 q 482 924 507 910 q 440 944 458 938 q 403 951 421 951 q 351 945 372 951 q 308 928 331 939 q 275 913 285 917 l 246 985 m 317 1282 q 371 1259 347 1282 q 394 1204 394 1236 q 372 1149 394 1172 q 317 1126 349 1126 q 262 1149 285 1126 q 239 1204 239 1172 q 262 1259 239 1236 q 317 1282 285 1282 m 564 1282 q 618 1259 594 1282 q 642 1204 642 1236 q 619 1149 642 1172 q 564 1126 596 1126 q 509 1149 532 1126 q 486 1204 486 1172 q 509 1259 486 1236 q 564 1282 532 1282 z "},"Ȭ":{"ha":883,"x_min":61,"x_max":822,"o":"m 440 839 q 640 785 554 839 q 774 635 726 732 q 822 410 822 538 q 775 184 822 282 q 641 33 728 86 q 442 -21 554 -21 q 242 33 329 -21 q 108 184 156 86 q 61 410 61 282 q 108 635 61 538 q 242 785 156 732 q 440 839 328 839 m 442 742 q 249 654 318 742 q 179 410 179 567 q 249 164 179 251 q 442 76 318 76 q 635 164 565 76 q 704 410 704 251 q 635 654 704 567 q 442 742 565 742 m 246 985 q 325 1029 294 1017 q 399 1042 356 1042 q 451 1034 429 1042 q 504 1010 474 1026 q 540 992 525 997 q 572 986 556 986 q 608 994 593 986 q 663 1032 624 1003 l 696 954 q 627 907 656 919 q 565 894 599 894 q 526 902 544 894 q 482 924 507 910 q 440 944 458 938 q 403 951 421 951 q 351 945 372 951 q 308 928 331 939 q 275 913 285 917 l 246 985 m 232 1240 l 647 1240 l 647 1158 l 232 1158 l 232 1240 z "},"Œ":{"ha":1208,"x_min":61,"x_max":1163,"o":"m 471 0 q 261 49 354 0 q 115 191 168 99 q 61 410 61 283 q 169 728 61 638 q 481 818 278 818 l 1061 818 l 1135 604 l 1043 574 l 988 722 l 693 722 l 693 471 l 950 471 l 950 375 l 692 375 l 692 96 l 1015 96 l 1071 244 l 1163 214 l 1089 0 l 471 0 m 481 724 q 313 701 376 724 q 215 610 250 678 q 179 410 179 542 q 259 173 179 253 q 496 94 339 93 l 581 96 l 581 724 l 481 724 z "},"P":{"ha":753,"x_min":51,"x_max":725,"o":"m 419 818 q 647 753 568 818 q 725 563 725 688 q 647 369 725 436 q 419 303 568 303 l 292 303 l 292 96 l 458 96 l 458 0 l 51 0 l 51 96 l 181 96 l 181 722 l 51 722 l 51 818 l 419 818 m 418 400 q 607 561 607 400 q 418 722 607 722 l 293 722 l 293 400 l 418 400 z "},"Þ":{"ha":750,"x_min":51,"x_max":722,"o":"m 51 96 l 181 96 l 181 722 l 51 722 l 51 818 l 429 818 l 429 722 l 293 722 l 293 624 l 457 624 q 653 577 585 624 q 722 418 722 531 q 651 252 722 313 q 472 192 581 192 l 292 192 l 292 96 l 458 96 l 458 0 l 51 0 l 51 96 m 449 289 q 563 315 522 289 q 604 404 604 342 q 565 502 604 476 q 446 528 525 528 l 293 528 l 293 289 l 449 289 z "},"Q":{"ha":921,"x_min":61,"x_max":897,"o":"m 650 38 q 442 -21 560 -21 q 243 32 329 -21 q 109 182 157 85 q 61 410 61 279 q 109 638 61 540 q 242 787 157 735 q 440 839 328 839 q 640 787 554 839 q 774 638 726 735 q 822 410 822 540 q 794 229 822 310 q 711 92 765 149 l 897 -18 l 824 -110 l 650 38 m 442 744 q 245 658 311 744 q 179 410 179 571 q 245 161 179 249 q 442 74 311 74 q 638 161 572 74 q 704 410 704 249 q 638 658 704 571 q 442 744 572 744 z "},"R":{"ha":853,"x_min":51,"x_max":815,"o":"m 815 96 l 815 0 l 608 0 l 433 319 l 419 319 l 293 319 l 293 96 l 381 96 l 381 0 l 51 0 l 51 96 l 182 96 l 182 722 l 51 722 l 51 818 l 419 818 q 651 758 582 818 q 721 571 721 697 q 681 415 721 474 q 551 333 642 356 l 689 96 l 815 96 m 419 418 q 522 430 483 418 q 582 474 561 442 q 603 569 603 507 q 559 691 603 660 q 419 722 515 722 l 294 722 l 294 418 l 419 418 z "},"Ŕ":{"ha":853,"x_min":51,"x_max":815,"o":"m 815 96 l 815 0 l 608 0 l 433 319 l 419 319 l 293 319 l 293 96 l 381 96 l 381 0 l 51 0 l 51 96 l 182 96 l 182 722 l 51 722 l 51 818 l 419 818 q 651 758 582 818 q 721 571 721 697 q 681 415 721 474 q 551 333 642 356 l 689 96 l 815 96 m 419 418 q 522 430 483 418 q 582 474 561 442 q 603 569 603 507 q 559 691 603 660 q 419 722 515 722 l 294 722 l 294 418 l 419 418 m 596 1067 l 621 965 l 271 900 l 258 950 l 596 1067 z "},"Ř":{"ha":853,"x_min":51,"x_max":815,"o":"m 815 96 l 815 0 l 608 0 l 433 319 l 419 319 l 293 319 l 293 96 l 381 96 l 381 0 l 51 0 l 51 96 l 182 96 l 182 722 l 51 722 l 51 818 l 419 818 q 651 758 582 818 q 721 571 721 697 q 681 415 721 474 q 551 333 642 356 l 689 96 l 815 96 m 419 418 q 522 430 483 418 q 582 474 561 442 q 603 569 603 507 q 559 691 603 660 q 419 722 515 722 l 294 722 l 294 418 l 419 418 m 388 883 l 175 1021 l 213 1079 l 388 992 l 563 1082 l 594 1021 l 388 883 z "},"Ŗ":{"ha":853,"x_min":51,"x_max":815,"o":"m 815 96 l 815 0 l 608 0 l 433 319 l 419 319 l 293 319 l 293 96 l 381 96 l 381 0 l 51 0 l 51 96 l 182 96 l 182 722 l 51 722 l 51 818 l 419 818 q 651 758 582 818 q 721 571 721 697 q 681 415 721 474 q 551 333 642 356 l 689 96 l 815 96 m 419 418 q 522 430 483 418 q 582 474 561 442 q 603 569 603 507 q 559 691 603 660 q 419 722 515 722 l 294 722 l 294 418 l 419 418 m 347 -376 q 376 -332 354 -367 q 411 -265 397 -297 q 355 -240 376 -262 q 333 -185 333 -217 q 359 -123 333 -147 q 424 -99 385 -99 q 490 -126 461 -99 q 518 -193 518 -154 q 491 -290 518 -240 q 430 -381 464 -340 q 396 -418 396 -421 l 347 -376 z "},"Ȑ":{"ha":853,"x_min":51,"x_max":815,"o":"m 815 96 l 815 0 l 608 0 l 433 319 l 419 319 l 293 319 l 293 96 l 381 96 l 381 0 l 51 0 l 51 96 l 182 96 l 182 722 l 51 722 l 51 818 l 419 818 q 651 758 582 818 q 721 571 721 697 q 681 415 721 474 q 551 333 642 356 l 689 96 l 815 96 m 419 418 q 522 430 483 418 q 582 474 561 442 q 603 569 603 507 q 559 691 603 660 q 419 722 515 722 l 294 722 l 294 418 l 419 418 m 364 1183 l 539 933 l 488 894 l 282 1122 l 364 1183 m 132 1156 l 350 942 l 307 894 l 64 1081 l 132 1156 z "},"Ṛ":{"ha":853,"x_min":51,"x_max":815,"o":"m 815 96 l 815 0 l 608 0 l 433 319 l 419 319 l 293 319 l 293 96 l 381 96 l 381 0 l 51 0 l 51 96 l 182 96 l 182 722 l 51 722 l 51 818 l 419 818 q 651 758 582 818 q 721 571 721 697 q 681 415 721 474 q 551 333 642 356 l 689 96 l 815 96 m 419 418 q 522 430 483 418 q 582 474 561 442 q 603 569 603 507 q 559 691 603 660 q 419 722 515 722 l 294 722 l 294 418 l 419 418 m 425 -81 q 488 -104 464 -81 q 511 -167 511 -128 q 488 -229 511 -206 q 425 -253 464 -253 q 363 -229 386 -253 q 340 -167 340 -206 q 363 -104 340 -128 q 425 -81 386 -81 z "},"Ȓ":{"ha":853,"x_min":51,"x_max":815,"o":"m 815 96 l 815 0 l 608 0 l 433 319 l 419 319 l 293 319 l 293 96 l 381 96 l 381 0 l 51 0 l 51 96 l 182 96 l 182 722 l 51 722 l 51 818 l 419 818 q 651 758 582 818 q 721 571 721 697 q 681 415 721 474 q 551 333 642 356 l 689 96 l 815 96 m 419 418 q 522 430 483 418 q 582 474 561 442 q 603 569 603 507 q 559 691 603 660 q 419 722 515 722 l 294 722 l 294 418 l 419 418 m 383 1100 q 529 1058 474 1100 q 601 933 585 1015 l 511 917 q 383 1011 499 1011 q 257 917 272 1011 l 167 933 q 238 1058 183 1015 q 383 1100 293 1100 z "},"Ṟ":{"ha":853,"x_min":51,"x_max":815,"o":"m 815 96 l 815 0 l 608 0 l 433 319 l 419 319 l 293 319 l 293 96 l 381 96 l 381 0 l 51 0 l 51 96 l 182 96 l 182 722 l 51 722 l 51 818 l 419 818 q 651 758 582 818 q 721 571 721 697 q 681 415 721 474 q 551 333 642 356 l 689 96 l 815 96 m 419 418 q 522 430 483 418 q 582 474 561 442 q 603 569 603 507 q 559 691 603 660 q 419 722 515 722 l 294 722 l 294 418 l 419 418 m 213 -56 l 639 -56 l 639 -142 l 213 -142 l 213 -56 z "},"S":{"ha":744,"x_min":60,"x_max":682,"o":"m 379 -21 q 86 33 225 -21 l 60 203 l 151 211 l 171 107 q 267 82 221 90 q 378 74 313 74 q 517 110 463 74 q 571 224 571 146 q 539 322 571 283 q 431 371 507 360 l 325 386 q 143 465 207 404 q 79 618 79 525 q 153 778 79 717 q 372 839 228 839 q 510 829 453 839 q 636 793 567 819 l 660 621 l 568 611 l 550 722 q 374 746 486 746 q 232 713 283 746 q 181 621 181 681 q 325 489 181 508 l 451 469 q 624 392 567 453 q 682 239 682 332 q 642 97 682 156 q 532 9 601 39 q 379 -21 463 -21 z "},"Ś":{"ha":744,"x_min":60,"x_max":682,"o":"m 379 -21 q 86 33 225 -21 l 60 203 l 151 211 l 171 107 q 267 82 221 90 q 378 74 313 74 q 517 110 463 74 q 571 224 571 146 q 539 322 571 283 q 431 371 507 360 l 325 386 q 143 465 207 404 q 79 618 79 525 q 153 778 79 717 q 372 839 228 839 q 510 829 453 839 q 636 793 567 819 l 660 621 l 568 611 l 550 722 q 374 746 486 746 q 232 713 283 746 q 181 621 181 681 q 325 489 181 508 l 451 469 q 624 392 567 453 q 682 239 682 332 q 642 97 682 156 q 532 9 601 39 q 379 -21 463 -21 m 583 1067 l 608 965 l 258 900 l 246 950 l 583 1067 z "},"Ṥ":{"ha":744,"x_min":60,"x_max":682,"o":"m 379 -21 q 86 33 225 -21 l 60 203 l 151 211 l 171 107 q 267 82 221 90 q 378 74 313 74 q 517 110 463 74 q 571 224 571 146 q 539 322 571 283 q 431 371 507 360 l 325 386 q 143 465 207 404 q 79 618 79 525 q 153 778 79 717 q 372 839 228 839 q 510 829 453 839 q 636 793 567 819 l 660 621 l 568 611 l 550 722 q 374 746 486 746 q 232 713 283 746 q 181 621 181 681 q 325 489 181 508 l 451 469 q 624 392 567 453 q 682 239 682 332 q 642 97 682 156 q 532 9 601 39 q 379 -21 463 -21 m 583 1067 l 608 965 l 258 900 l 246 950 l 583 1067 m 426 1251 q 489 1228 465 1251 q 513 1165 513 1204 q 489 1103 513 1126 q 426 1079 465 1079 q 365 1103 388 1079 q 342 1165 342 1126 q 365 1228 342 1204 q 426 1251 388 1251 z "},"Š":{"ha":744,"x_min":60,"x_max":682,"o":"m 379 -21 q 86 33 225 -21 l 60 203 l 151 211 l 171 107 q 267 82 221 90 q 378 74 313 74 q 517 110 463 74 q 571 224 571 146 q 539 322 571 283 q 431 371 507 360 l 325 386 q 143 465 207 404 q 79 618 79 525 q 153 778 79 717 q 372 839 228 839 q 510 829 453 839 q 636 793 567 819 l 660 621 l 568 611 l 550 722 q 374 746 486 746 q 232 713 283 746 q 181 621 181 681 q 325 489 181 508 l 451 469 q 624 392 567 453 q 682 239 682 332 q 642 97 682 156 q 532 9 601 39 q 379 -21 463 -21 m 375 883 l 163 1021 l 200 1079 l 375 992 l 550 1082 l 582 1021 l 375 883 z "},"Ṧ":{"ha":744,"x_min":60,"x_max":682,"o":"m 379 -21 q 86 33 225 -21 l 60 203 l 151 211 l 171 107 q 267 82 221 90 q 378 74 313 74 q 517 110 463 74 q 571 224 571 146 q 539 322 571 283 q 431 371 507 360 l 325 386 q 143 465 207 404 q 79 618 79 525 q 153 778 79 717 q 372 839 228 839 q 510 829 453 839 q 636 793 567 819 l 660 621 l 568 611 l 550 722 q 374 746 486 746 q 232 713 283 746 q 181 621 181 681 q 325 489 181 508 l 451 469 q 624 392 567 453 q 682 239 682 332 q 642 97 682 156 q 532 9 601 39 q 379 -21 463 -21 m 375 883 l 163 1021 l 200 1079 l 375 992 l 550 1082 l 582 1021 l 375 883 m 371 1275 q 433 1251 410 1275 q 457 1189 457 1228 q 433 1126 457 1150 q 371 1103 410 1103 q 309 1126 332 1103 q 286 1189 286 1150 q 309 1251 286 1228 q 371 1275 332 1275 z "},"Ş":{"ha":744,"x_min":60,"x_max":682,"o":"m 682 239 q 615 65 682 131 q 442 -17 549 -1 l 442 -87 q 592 -196 592 -87 q 551 -279 592 -249 q 442 -310 511 -310 q 328 -284 361 -310 q 293 -258 294 -258 l 324 -207 q 380 -233 347 -222 q 439 -243 413 -243 q 515 -196 515 -243 q 494 -159 515 -169 q 424 -149 474 -149 l 372 -149 l 372 -21 q 86 33 217 -19 l 60 203 l 151 211 l 171 107 q 267 82 221 90 q 378 74 313 74 q 517 110 463 74 q 571 224 571 146 q 539 322 571 283 q 431 371 507 360 l 325 386 q 143 465 207 404 q 79 618 79 525 q 153 778 79 717 q 372 839 228 839 q 510 829 453 839 q 636 793 567 819 l 660 621 l 568 611 l 550 722 q 374 746 486 746 q 232 713 283 746 q 181 621 181 681 q 325 489 181 508 l 451 469 q 624 392 567 453 q 682 239 682 332 z "},"Ŝ":{"ha":744,"x_min":60,"x_max":682,"o":"m 379 -21 q 86 33 225 -21 l 60 203 l 151 211 l 171 107 q 267 82 221 90 q 378 74 313 74 q 517 110 463 74 q 571 224 571 146 q 539 322 571 283 q 431 371 507 360 l 325 386 q 143 465 207 404 q 79 618 79 525 q 153 778 79 717 q 372 839 228 839 q 510 829 453 839 q 636 793 567 819 l 660 621 l 568 611 l 550 722 q 374 746 486 746 q 232 713 283 746 q 181 621 181 681 q 325 489 181 508 l 451 469 q 624 392 567 453 q 682 239 682 332 q 642 97 682 156 q 532 9 601 39 q 379 -21 463 -21 m 372 1081 l 610 946 l 585 901 l 372 979 l 160 901 l 135 946 l 372 1081 z "},"Ș":{"ha":744,"x_min":60,"x_max":682,"o":"m 379 -21 q 86 33 225 -21 l 60 203 l 151 211 l 171 107 q 267 82 221 90 q 378 74 313 74 q 517 110 463 74 q 571 224 571 146 q 539 322 571 283 q 431 371 507 360 l 325 386 q 143 465 207 404 q 79 618 79 525 q 153 778 79 717 q 372 839 228 839 q 510 829 453 839 q 636 793 567 819 l 660 621 l 568 611 l 550 722 q 374 746 486 746 q 232 713 283 746 q 181 621 181 681 q 325 489 181 508 l 451 469 q 624 392 567 453 q 682 239 682 332 q 642 97 682 156 q 532 9 601 39 q 379 -21 463 -21 m 293 -376 q 322 -332 300 -367 q 357 -265 343 -297 q 301 -240 322 -262 q 279 -185 279 -217 q 305 -123 279 -147 q 369 -99 331 -99 q 435 -126 407 -99 q 464 -193 464 -154 q 437 -290 464 -240 q 376 -381 410 -340 q 342 -418 342 -421 l 293 -376 z "},"Ṡ":{"ha":744,"x_min":60,"x_max":682,"o":"m 379 -21 q 86 33 225 -21 l 60 203 l 151 211 l 171 107 q 267 82 221 90 q 378 74 313 74 q 517 110 463 74 q 571 224 571 146 q 539 322 571 283 q 431 371 507 360 l 325 386 q 143 465 207 404 q 79 618 79 525 q 153 778 79 717 q 372 839 228 839 q 510 829 453 839 q 636 793 567 819 l 660 621 l 568 611 l 550 722 q 374 746 486 746 q 232 713 283 746 q 181 621 181 681 q 325 489 181 508 l 451 469 q 624 392 567 453 q 682 239 682 332 q 642 97 682 156 q 532 9 601 39 q 379 -21 463 -21 m 371 1114 q 433 1090 410 1114 q 457 1028 457 1067 q 433 965 457 989 q 371 942 410 942 q 309 965 332 942 q 286 1028 286 989 q 309 1090 286 1067 q 371 1114 332 1114 z "},"Ṣ":{"ha":744,"x_min":60,"x_max":682,"o":"m 379 -21 q 86 33 225 -21 l 60 203 l 151 211 l 171 107 q 267 82 221 90 q 378 74 313 74 q 517 110 463 74 q 571 224 571 146 q 539 322 571 283 q 431 371 507 360 l 325 386 q 143 465 207 404 q 79 618 79 525 q 153 778 79 717 q 372 839 228 839 q 510 829 453 839 q 636 793 567 819 l 660 621 l 568 611 l 550 722 q 374 746 486 746 q 232 713 283 746 q 181 621 181 681 q 325 489 181 508 l 451 469 q 624 392 567 453 q 682 239 682 332 q 642 97 682 156 q 532 9 601 39 q 379 -21 463 -21 m 371 -81 q 433 -104 410 -81 q 457 -167 457 -128 q 433 -229 457 -206 q 371 -253 410 -253 q 309 -229 332 -253 q 286 -167 286 -206 q 309 -104 286 -128 q 371 -81 332 -81 z "},"Ṩ":{"ha":744,"x_min":60,"x_max":682,"o":"m 379 -21 q 86 33 225 -21 l 60 203 l 151 211 l 171 107 q 267 82 221 90 q 378 74 313 74 q 517 110 463 74 q 571 224 571 146 q 539 322 571 283 q 431 371 507 360 l 325 386 q 143 465 207 404 q 79 618 79 525 q 153 778 79 717 q 372 839 228 839 q 510 829 453 839 q 636 793 567 819 l 660 621 l 568 611 l 550 722 q 374 746 486 746 q 232 713 283 746 q 181 621 181 681 q 325 489 181 508 l 451 469 q 624 392 567 453 q 682 239 682 332 q 642 97 682 156 q 532 9 601 39 q 379 -21 463 -21 m 371 -81 q 433 -104 410 -81 q 457 -167 457 -128 q 433 -229 457 -206 q 371 -253 410 -253 q 309 -229 332 -253 q 286 -167 286 -206 q 309 -104 286 -128 q 371 -81 332 -81 m 371 1114 q 433 1090 410 1114 q 457 1028 457 1067 q 433 965 457 989 q 371 942 410 942 q 309 965 332 942 q 286 1028 286 989 q 309 1090 286 1067 q 371 1114 332 1114 z "},"ẞ":{"ha":811,"x_min":50,"x_max":767,"o":"m 569 -21 q 467 -3 518 -21 q 392 40 417 14 l 369 164 l 460 183 l 474 101 q 515 77 488 86 q 571 68 542 68 q 640 92 614 68 q 667 156 667 117 q 640 223 667 196 q 554 271 614 250 q 431 347 476 299 q 385 450 385 394 q 409 544 385 508 q 478 617 433 579 q 526 665 511 646 q 542 714 542 685 q 507 777 542 751 q 422 803 472 803 q 308 765 342 803 q 275 635 275 728 l 275 0 l 50 0 l 50 86 l 167 86 l 167 510 l 50 510 l 50 596 l 167 596 l 167 657 q 227 835 167 778 q 415 892 288 892 q 583 844 521 892 q 644 714 644 796 q 621 627 644 663 q 554 553 597 592 q 508 504 524 525 q 493 460 493 483 q 518 409 493 429 q 610 365 543 389 q 728 285 690 336 q 767 156 767 233 q 711 28 767 78 q 569 -21 656 -21 z "},"Ə":{"ha":840,"x_min":32,"x_max":771,"o":"m 382 839 q 587 786 499 839 q 723 638 675 733 q 771 414 771 542 q 724 186 771 285 q 590 33 676 88 q 390 -21 504 -21 q 204 31 286 -21 q 77 178 122 83 q 32 396 32 272 l 32 446 l 651 446 q 378 744 628 744 q 265 733 314 744 q 186 708 217 722 l 160 592 l 64 613 l 94 774 q 131 795 101 781 q 224 824 160 810 q 382 839 288 839 m 390 76 q 577 149 504 76 q 650 350 650 222 l 143 350 q 211 149 143 221 q 390 76 279 76 z "},"T":{"ha":815,"x_min":50,"x_max":765,"o":"m 50 818 l 765 818 l 765 590 l 660 590 l 660 722 l 464 722 l 461 96 l 593 96 l 593 0 l 218 0 l 218 96 l 350 96 l 351 722 l 156 722 l 156 590 l 50 590 l 50 818 z "},"Ŧ":{"ha":815,"x_min":50,"x_max":765,"o":"m 50 818 l 765 818 l 765 590 l 660 590 l 660 722 l 464 722 l 463 457 l 621 457 l 621 371 l 463 371 l 461 96 l 593 96 l 593 0 l 218 0 l 218 96 l 350 96 l 350 371 l 194 371 l 194 457 l 351 457 l 351 722 l 156 722 l 156 590 l 50 590 l 50 818 z "},"Ť":{"ha":815,"x_min":50,"x_max":765,"o":"m 50 818 l 765 818 l 765 590 l 660 590 l 660 722 l 464 722 l 461 96 l 593 96 l 593 0 l 218 0 l 218 96 l 350 96 l 351 722 l 156 722 l 156 590 l 50 590 l 50 818 m 411 883 l 199 1021 l 236 1079 l 411 992 l 586 1082 l 618 1021 l 411 883 z "},"Ţ":{"ha":815,"x_min":50,"x_max":765,"o":"m 50 818 l 765 818 l 765 590 l 660 590 l 660 722 l 464 722 l 461 96 l 593 96 l 593 0 l 218 0 l 218 96 l 350 96 l 351 722 l 156 722 l 156 590 l 50 590 l 50 818 m 478 -310 q 364 -284 397 -310 q 329 -258 331 -258 l 360 -207 q 416 -233 383 -222 q 475 -243 449 -243 q 551 -196 551 -243 q 531 -159 551 -169 q 460 -149 510 -149 l 408 -149 l 408 0 l 478 0 l 478 -87 q 628 -196 628 -87 q 588 -279 628 -249 q 478 -310 547 -310 z "},"Ț":{"ha":815,"x_min":50,"x_max":765,"o":"m 50 818 l 765 818 l 765 590 l 660 590 l 660 722 l 464 722 l 461 96 l 593 96 l 593 0 l 218 0 l 218 96 l 350 96 l 351 722 l 156 722 l 156 590 l 50 590 l 50 818 m 329 -376 q 358 -332 336 -367 q 393 -265 379 -297 q 337 -240 358 -262 q 315 -185 315 -217 q 341 -123 315 -147 q 406 -99 367 -99 q 472 -126 443 -99 q 500 -193 500 -154 q 473 -290 500 -240 q 412 -381 446 -340 q 378 -418 378 -421 l 329 -376 z "},"Ṭ":{"ha":815,"x_min":50,"x_max":765,"o":"m 50 818 l 765 818 l 765 590 l 660 590 l 660 722 l 464 722 l 461 96 l 593 96 l 593 0 l 218 0 l 218 96 l 350 96 l 351 722 l 156 722 l 156 590 l 50 590 l 50 818 m 407 -81 q 469 -104 446 -81 q 493 -167 493 -128 q 469 -229 493 -206 q 407 -253 446 -253 q 345 -229 368 -253 q 322 -167 322 -206 q 345 -104 322 -128 q 407 -81 368 -81 z "},"Ṯ":{"ha":815,"x_min":50,"x_max":765,"o":"m 50 818 l 765 818 l 765 590 l 660 590 l 660 722 l 464 722 l 461 96 l 593 96 l 593 0 l 218 0 l 218 96 l 350 96 l 351 722 l 156 722 l 156 590 l 50 590 l 50 818 m 194 -56 l 621 -56 l 621 -142 l 194 -142 l 194 -56 z "},"U":{"ha":942,"x_min":38,"x_max":904,"o":"m 771 299 q 694 64 771 149 q 464 -21 618 -21 q 243 64 315 -21 q 171 299 171 149 l 171 722 l 38 722 l 38 818 l 371 818 l 371 722 l 282 722 l 282 261 q 331 120 282 167 q 464 74 379 74 q 608 124 556 74 q 660 275 660 175 l 660 722 l 571 722 l 571 818 l 904 818 l 904 722 l 771 722 l 771 299 z "},"Ú":{"ha":942,"x_min":38,"x_max":904,"o":"m 771 299 q 694 64 771 149 q 464 -21 618 -21 q 243 64 315 -21 q 171 299 171 149 l 171 722 l 38 722 l 38 818 l 371 818 l 371 722 l 282 722 l 282 261 q 331 120 282 167 q 464 74 379 74 q 608 124 556 74 q 660 275 660 175 l 660 722 l 571 722 l 571 818 l 904 818 l 904 722 l 771 722 l 771 299 m 682 1067 l 707 965 l 357 900 l 344 950 l 682 1067 z "},"Ŭ":{"ha":942,"x_min":38,"x_max":904,"o":"m 771 299 q 694 64 771 149 q 464 -21 618 -21 q 243 64 315 -21 q 171 299 171 149 l 171 722 l 38 722 l 38 818 l 371 818 l 371 722 l 282 722 l 282 261 q 331 120 282 167 q 464 74 379 74 q 608 124 556 74 q 660 275 660 175 l 660 722 l 571 722 l 571 818 l 904 818 l 904 722 l 771 722 l 771 299 m 469 903 q 324 945 379 903 q 253 1069 269 988 l 343 1086 q 469 992 358 992 q 597 1086 585 992 l 688 1069 q 615 945 671 988 q 469 903 560 903 z "},"Û":{"ha":942,"x_min":38,"x_max":904,"o":"m 771 299 q 694 64 771 149 q 464 -21 618 -21 q 243 64 315 -21 q 171 299 171 149 l 171 722 l 38 722 l 38 818 l 371 818 l 371 722 l 282 722 l 282 261 q 331 120 282 167 q 464 74 379 74 q 608 124 556 74 q 660 275 660 175 l 660 722 l 571 722 l 571 818 l 904 818 l 904 722 l 771 722 l 771 299 m 471 1081 l 708 946 l 683 901 l 471 979 l 258 901 l 233 946 l 471 1081 z "},"Ȕ":{"ha":942,"x_min":38,"x_max":904,"o":"m 771 299 q 694 64 771 149 q 464 -21 618 -21 q 243 64 315 -21 q 171 299 171 149 l 171 722 l 38 722 l 38 818 l 371 818 l 371 722 l 282 722 l 282 261 q 331 120 282 167 q 464 74 379 74 q 608 124 556 74 q 660 275 660 175 l 660 722 l 571 722 l 571 818 l 904 818 l 904 722 l 771 722 l 771 299 m 450 1183 l 625 933 l 574 894 l 368 1122 l 450 1183 m 218 1156 l 436 942 l 393 894 l 150 1081 l 218 1156 z "},"Ü":{"ha":942,"x_min":38,"x_max":904,"o":"m 771 299 q 694 64 771 149 q 464 -21 618 -21 q 243 64 315 -21 q 171 299 171 149 l 171 722 l 38 722 l 38 818 l 371 818 l 371 722 l 282 722 l 282 261 q 331 120 282 167 q 464 74 379 74 q 608 124 556 74 q 660 275 660 175 l 660 722 l 571 722 l 571 818 l 904 818 l 904 722 l 771 722 l 771 299 m 347 1082 q 401 1059 378 1082 q 425 1004 425 1036 q 402 949 425 972 q 347 926 379 926 q 292 949 315 926 q 269 1004 269 972 q 292 1059 269 1036 q 347 1082 315 1082 m 594 1082 q 649 1059 625 1082 q 672 1004 672 1036 q 649 949 672 972 q 594 926 626 926 q 540 949 563 926 q 517 1004 517 972 q 540 1059 517 1036 q 594 1082 563 1082 z "},"Ụ":{"ha":942,"x_min":38,"x_max":904,"o":"m 771 299 q 694 64 771 149 q 464 -21 618 -21 q 243 64 315 -21 q 171 299 171 149 l 171 722 l 38 722 l 38 818 l 371 818 l 371 722 l 282 722 l 282 261 q 331 120 282 167 q 464 74 379 74 q 608 124 556 74 q 660 275 660 175 l 660 722 l 571 722 l 571 818 l 904 818 l 904 722 l 771 722 l 771 299 m 463 -81 q 525 -104 501 -81 q 549 -167 549 -128 q 525 -229 549 -206 q 463 -253 501 -253 q 401 -229 424 -253 q 378 -167 378 -206 q 401 -104 378 -128 q 463 -81 424 -81 z "},"Ù":{"ha":942,"x_min":38,"x_max":904,"o":"m 771 299 q 694 64 771 149 q 464 -21 618 -21 q 243 64 315 -21 q 171 299 171 149 l 171 722 l 38 722 l 38 818 l 371 818 l 371 722 l 282 722 l 282 261 q 331 120 282 167 q 464 74 379 74 q 608 124 556 74 q 660 275 660 175 l 660 722 l 571 722 l 571 818 l 904 818 l 904 722 l 771 722 l 771 299 m 217 1058 l 554 942 l 542 892 l 192 957 l 217 1058 z "},"Ủ":{"ha":942,"x_min":38,"x_max":904,"o":"m 771 299 q 694 64 771 149 q 464 -21 618 -21 q 243 64 315 -21 q 171 299 171 149 l 171 722 l 38 722 l 38 818 l 371 818 l 371 722 l 282 722 l 282 261 q 331 120 282 167 q 464 74 379 74 q 608 124 556 74 q 660 275 660 175 l 660 722 l 571 722 l 571 818 l 904 818 l 904 722 l 771 722 l 771 299 m 450 936 q 483 976 471 953 q 496 1019 496 999 q 485 1050 496 1039 q 454 1061 475 1061 q 389 1025 419 1061 l 340 1081 q 400 1128 365 1111 q 471 1144 435 1144 q 553 1114 519 1144 q 586 1029 586 1083 q 485 893 586 963 l 450 936 z "},"Ư":{"ha":953,"x_min":38,"x_max":897,"o":"m 897 928 q 771 728 897 757 l 771 299 q 694 64 771 149 q 464 -21 618 -21 q 243 64 315 -21 q 171 299 171 149 l 171 722 l 38 722 l 38 818 l 371 818 l 371 722 l 282 722 l 282 261 q 331 120 282 167 q 464 74 379 74 q 608 124 556 74 q 660 275 660 175 l 660 722 l 571 722 l 571 818 l 715 818 q 787 846 763 818 q 811 928 811 874 l 897 928 z "},"Ứ":{"ha":953,"x_min":38,"x_max":897,"o":"m 897 928 q 771 728 897 757 l 771 299 q 694 64 771 149 q 464 -21 618 -21 q 243 64 315 -21 q 171 299 171 149 l 171 722 l 38 722 l 38 818 l 371 818 l 371 722 l 282 722 l 282 261 q 331 120 282 167 q 464 74 379 74 q 608 124 556 74 q 660 275 660 175 l 660 722 l 571 722 l 571 818 l 715 818 q 787 846 763 818 q 811 928 811 874 l 897 928 m 674 1067 l 699 965 l 349 900 l 336 950 l 674 1067 z "},"Ự":{"ha":953,"x_min":38,"x_max":897,"o":"m 897 928 q 771 728 897 757 l 771 299 q 694 64 771 149 q 464 -21 618 -21 q 243 64 315 -21 q 171 299 171 149 l 171 722 l 38 722 l 38 818 l 371 818 l 371 722 l 282 722 l 282 261 q 331 120 282 167 q 464 74 379 74 q 608 124 556 74 q 660 275 660 175 l 660 722 l 571 722 l 571 818 l 715 818 q 787 846 763 818 q 811 928 811 874 l 897 928 m 475 -81 q 538 -104 514 -81 q 561 -167 561 -128 q 538 -229 561 -206 q 475 -253 514 -253 q 413 -229 436 -253 q 390 -167 390 -206 q 413 -104 390 -128 q 475 -81 436 -81 z "},"Ừ":{"ha":953,"x_min":38,"x_max":897,"o":"m 897 928 q 771 728 897 757 l 771 299 q 694 64 771 149 q 464 -21 618 -21 q 243 64 315 -21 q 171 299 171 149 l 171 722 l 38 722 l 38 818 l 371 818 l 371 722 l 282 722 l 282 261 q 331 120 282 167 q 464 74 379 74 q 608 124 556 74 q 660 275 660 175 l 660 722 l 571 722 l 571 818 l 715 818 q 787 846 763 818 q 811 928 811 874 l 897 928 m 208 1058 l 546 942 l 533 892 l 183 957 l 208 1058 z "},"Ử":{"ha":953,"x_min":38,"x_max":897,"o":"m 897 928 q 771 728 897 757 l 771 299 q 694 64 771 149 q 464 -21 618 -21 q 243 64 315 -21 q 171 299 171 149 l 171 722 l 38 722 l 38 818 l 371 818 l 371 722 l 282 722 l 282 261 q 331 120 282 167 q 464 74 379 74 q 608 124 556 74 q 660 275 660 175 l 660 722 l 571 722 l 571 818 l 715 818 q 787 846 763 818 q 811 928 811 874 l 897 928 m 442 936 q 475 976 463 953 q 488 1019 488 999 q 477 1050 488 1039 q 446 1061 467 1061 q 381 1025 411 1061 l 332 1081 q 392 1128 357 1111 q 463 1144 426 1144 q 544 1114 511 1144 q 578 1029 578 1083 q 476 893 578 963 l 442 936 z "},"Ữ":{"ha":953,"x_min":38,"x_max":897,"o":"m 897 928 q 771 728 897 757 l 771 299 q 694 64 771 149 q 464 -21 618 -21 q 243 64 315 -21 q 171 299 171 149 l 171 722 l 38 722 l 38 818 l 371 818 l 371 722 l 282 722 l 282 261 q 331 120 282 167 q 464 74 379 74 q 608 124 556 74 q 660 275 660 175 l 660 722 l 571 722 l 571 818 l 715 818 q 787 846 763 818 q 811 928 811 874 l 897 928 m 267 985 q 346 1029 315 1017 q 419 1042 376 1042 q 472 1034 450 1042 q 525 1010 494 1026 q 561 992 546 997 q 593 986 576 986 q 629 994 614 986 q 683 1032 644 1003 l 717 954 q 648 907 676 919 q 586 894 619 894 q 547 902 565 894 q 503 924 528 910 q 460 944 479 938 q 424 951 442 951 q 372 945 393 951 q 328 928 351 939 q 296 913 306 917 l 267 985 z "},"Ű":{"ha":942,"x_min":38,"x_max":904,"o":"m 771 299 q 694 64 771 149 q 464 -21 618 -21 q 243 64 315 -21 q 171 299 171 149 l 171 722 l 38 722 l 38 818 l 371 818 l 371 722 l 282 722 l 282 261 q 331 120 282 167 q 464 74 379 74 q 608 124 556 74 q 660 275 660 175 l 660 722 l 571 722 l 571 818 l 904 818 l 904 722 l 771 722 l 771 299 m 588 1121 l 643 1043 l 413 901 l 385 940 l 588 1121 m 793 1060 l 826 971 l 563 903 l 544 947 l 793 1060 z "},"Ȗ":{"ha":942,"x_min":38,"x_max":904,"o":"m 771 299 q 694 64 771 149 q 464 -21 618 -21 q 243 64 315 -21 q 171 299 171 149 l 171 722 l 38 722 l 38 818 l 371 818 l 371 722 l 282 722 l 282 261 q 331 120 282 167 q 464 74 379 74 q 608 124 556 74 q 660 275 660 175 l 660 722 l 571 722 l 571 818 l 904 818 l 904 722 l 771 722 l 771 299 m 469 1100 q 615 1058 560 1100 q 688 933 671 1015 l 597 917 q 469 1011 585 1011 q 343 917 358 1011 l 253 933 q 324 1058 269 1015 q 469 1100 379 1100 z "},"Ū":{"ha":942,"x_min":38,"x_max":904,"o":"m 771 299 q 694 64 771 149 q 464 -21 618 -21 q 243 64 315 -21 q 171 299 171 149 l 171 722 l 38 722 l 38 818 l 371 818 l 371 722 l 282 722 l 282 261 q 331 120 282 167 q 464 74 379 74 q 608 124 556 74 q 660 275 660 175 l 660 722 l 571 722 l 571 818 l 904 818 l 904 722 l 771 722 l 771 299 m 263 1040 l 678 1040 l 678 958 l 263 958 l 263 1040 z "},"Ṻ":{"ha":942,"x_min":38,"x_max":904,"o":"m 771 299 q 694 64 771 149 q 464 -21 618 -21 q 243 64 315 -21 q 171 299 171 149 l 171 722 l 38 722 l 38 818 l 371 818 l 371 722 l 282 722 l 282 261 q 331 120 282 167 q 464 74 379 74 q 608 124 556 74 q 660 275 660 175 l 660 722 l 571 722 l 571 818 l 904 818 l 904 722 l 771 722 l 771 299 m 263 1040 l 678 1040 l 678 958 l 263 958 l 263 1040 m 372 1290 q 426 1267 403 1290 q 450 1213 450 1244 q 427 1158 450 1181 q 372 1135 404 1135 q 317 1158 340 1135 q 294 1213 294 1181 q 317 1267 294 1244 q 372 1290 340 1290 m 619 1290 q 674 1267 650 1290 q 697 1213 697 1244 q 674 1158 697 1181 q 619 1135 651 1135 q 565 1158 588 1135 q 542 1213 542 1181 q 565 1267 542 1244 q 619 1290 588 1290 z "},"Ų":{"ha":942,"x_min":38,"x_max":904,"o":"m 904 818 l 904 722 l 771 722 l 771 299 q 727 109 771 186 q 594 0 683 32 q 513 -131 513 -56 q 534 -177 513 -161 q 596 -193 556 -193 q 664 -181 629 -193 l 664 -265 q 553 -293 608 -293 q 443 -258 489 -293 q 397 -165 397 -224 q 476 -21 397 -79 l 464 -21 q 243 64 315 -21 q 171 299 171 149 l 171 722 l 38 722 l 38 818 l 371 818 l 371 722 l 282 722 l 282 261 q 331 120 282 167 q 464 74 379 74 q 608 124 556 74 q 660 275 660 175 l 660 722 l 571 722 l 571 818 l 904 818 z "},"Ů":{"ha":942,"x_min":38,"x_max":904,"o":"m 771 299 q 694 64 771 149 q 464 -21 618 -21 q 243 64 315 -21 q 171 299 171 149 l 171 722 l 38 722 l 38 818 l 371 818 l 371 722 l 282 722 l 282 261 q 331 120 282 167 q 464 74 379 74 q 608 124 556 74 q 660 275 660 175 l 660 722 l 571 722 l 571 818 l 904 818 l 904 722 l 771 722 l 771 299 m 471 1149 q 558 1116 525 1149 q 590 1029 590 1083 q 558 942 590 975 q 471 910 525 910 q 384 942 417 910 q 351 1029 351 975 q 384 1116 351 1083 q 471 1149 417 1149 m 471 1083 q 432 1068 447 1083 q 417 1029 417 1053 q 432 990 417 1006 q 471 975 447 975 q 510 990 494 975 q 525 1029 525 1006 q 510 1068 525 1053 q 471 1083 494 1083 z "},"Ũ":{"ha":942,"x_min":38,"x_max":904,"o":"m 771 299 q 694 64 771 149 q 464 -21 618 -21 q 243 64 315 -21 q 171 299 171 149 l 171 722 l 38 722 l 38 818 l 371 818 l 371 722 l 282 722 l 282 261 q 331 120 282 167 q 464 74 379 74 q 608 124 556 74 q 660 275 660 175 l 660 722 l 571 722 l 571 818 l 904 818 l 904 722 l 771 722 l 771 299 m 275 985 q 354 1029 324 1017 q 428 1042 385 1042 q 481 1034 458 1042 q 533 1010 503 1026 q 569 992 554 997 q 601 986 585 986 q 638 994 622 986 q 692 1032 653 1003 l 725 954 q 656 907 685 919 q 594 894 628 894 q 555 902 574 894 q 511 924 536 910 q 469 944 488 938 q 432 951 450 951 q 381 945 401 951 q 337 928 360 939 q 304 913 314 917 l 275 985 z "},"Ṹ":{"ha":942,"x_min":38,"x_max":904,"o":"m 771 299 q 694 64 771 149 q 464 -21 618 -21 q 243 64 315 -21 q 171 299 171 149 l 171 722 l 38 722 l 38 818 l 371 818 l 371 722 l 282 722 l 282 261 q 331 120 282 167 q 464 74 379 74 q 608 124 556 74 q 660 275 660 175 l 660 722 l 571 722 l 571 818 l 904 818 l 904 722 l 771 722 l 771 299 m 275 985 q 354 1029 324 1017 q 428 1042 385 1042 q 481 1034 458 1042 q 533 1010 503 1026 q 569 992 554 997 q 601 986 585 986 q 638 994 622 986 q 692 1032 653 1003 l 725 954 q 656 907 685 919 q 594 894 628 894 q 555 902 574 894 q 511 924 536 910 q 469 944 488 938 q 432 951 450 951 q 381 945 401 951 q 337 928 360 939 q 304 913 314 917 l 275 985 m 681 1267 l 706 1165 l 356 1100 l 343 1150 l 681 1267 z "},"V":{"ha":917,"x_min":6,"x_max":911,"o":"m 6 818 l 346 818 l 346 722 l 257 722 l 400 342 l 474 124 l 539 331 l 676 722 l 588 722 l 588 818 l 911 818 l 911 722 l 781 722 l 535 0 l 410 0 l 138 722 l 6 722 l 6 818 z "},"W":{"ha":1267,"x_min":1,"x_max":1265,"o":"m 1 818 l 339 818 l 339 722 l 250 722 l 367 329 l 428 126 l 469 322 l 583 714 l 706 714 l 803 331 l 847 128 l 907 331 l 1036 722 l 947 722 l 947 818 l 1265 818 l 1265 722 l 1133 722 l 906 0 l 778 0 l 679 374 l 635 561 l 581 367 l 483 0 l 364 0 l 133 722 l 1 722 l 1 818 z "},"Ẃ":{"ha":1267,"x_min":1,"x_max":1265,"o":"m 1 818 l 339 818 l 339 722 l 250 722 l 367 329 l 428 126 l 469 322 l 583 714 l 706 714 l 803 331 l 847 128 l 907 331 l 1036 722 l 947 722 l 947 818 l 1265 818 l 1265 722 l 1133 722 l 906 0 l 778 0 l 679 374 l 635 561 l 581 367 l 483 0 l 364 0 l 133 722 l 1 722 l 1 818 m 849 1067 l 874 965 l 524 900 l 511 950 l 849 1067 z "},"Ŵ":{"ha":1267,"x_min":1,"x_max":1265,"o":"m 1 818 l 339 818 l 339 722 l 250 722 l 367 329 l 428 126 l 469 322 l 583 714 l 706 714 l 803 331 l 847 128 l 907 331 l 1036 722 l 947 722 l 947 818 l 1265 818 l 1265 722 l 1133 722 l 906 0 l 778 0 l 679 374 l 635 561 l 581 367 l 483 0 l 364 0 l 133 722 l 1 722 l 1 818 m 638 1081 l 875 946 l 850 901 l 638 979 l 425 901 l 400 946 l 638 1081 z "},"Ẅ":{"ha":1267,"x_min":1,"x_max":1265,"o":"m 1 818 l 339 818 l 339 722 l 250 722 l 367 329 l 428 126 l 469 322 l 583 714 l 706 714 l 803 331 l 847 128 l 907 331 l 1036 722 l 947 722 l 947 818 l 1265 818 l 1265 722 l 1133 722 l 906 0 l 778 0 l 679 374 l 635 561 l 581 367 l 483 0 l 364 0 l 133 722 l 1 722 l 1 818 m 514 1082 q 568 1059 544 1082 q 592 1004 592 1036 q 569 949 592 972 q 514 926 546 926 q 459 949 482 926 q 436 1004 436 972 q 459 1059 436 1036 q 514 1082 482 1082 m 761 1082 q 815 1059 792 1082 q 839 1004 839 1036 q 816 949 839 972 q 761 926 793 926 q 706 949 729 926 q 683 1004 683 972 q 706 1059 683 1036 q 761 1082 729 1082 z "},"Ẁ":{"ha":1267,"x_min":1,"x_max":1265,"o":"m 1 818 l 339 818 l 339 722 l 250 722 l 367 329 l 428 126 l 469 322 l 583 714 l 706 714 l 803 331 l 847 128 l 907 331 l 1036 722 l 947 722 l 947 818 l 1265 818 l 1265 722 l 1133 722 l 906 0 l 778 0 l 679 374 l 635 561 l 581 367 l 483 0 l 364 0 l 133 722 l 1 722 l 1 818 m 383 1058 l 721 942 l 708 892 l 358 957 l 383 1058 z "},"X":{"ha":922,"x_min":26,"x_max":903,"o":"m 28 0 l 28 96 l 146 96 l 386 418 l 144 722 l 26 722 l 26 818 l 376 818 l 376 722 l 288 722 l 463 501 l 626 722 l 531 722 l 531 818 l 878 818 l 878 722 l 746 722 l 525 424 l 785 96 l 903 96 l 903 0 l 540 0 l 540 96 l 643 96 l 447 340 l 265 96 l 368 96 l 368 0 l 28 0 z "},"Y":{"ha":904,"x_min":6,"x_max":899,"o":"m 6 818 l 338 818 l 338 722 l 264 722 l 457 450 l 674 722 l 569 722 l 569 818 l 899 818 l 899 722 l 804 722 l 508 357 l 506 96 l 636 96 l 636 0 l 265 0 l 265 96 l 396 96 l 397 353 l 122 722 l 6 722 l 6 818 z "},"Ý":{"ha":904,"x_min":6,"x_max":899,"o":"m 6 818 l 338 818 l 338 722 l 264 722 l 457 450 l 674 722 l 569 722 l 569 818 l 899 818 l 899 722 l 804 722 l 508 357 l 506 96 l 636 96 l 636 0 l 265 0 l 265 96 l 396 96 l 397 353 l 122 722 l 6 722 l 6 818 m 663 1067 l 688 965 l 338 900 l 325 950 l 663 1067 z "},"Ŷ":{"ha":904,"x_min":6,"x_max":899,"o":"m 6 818 l 338 818 l 338 722 l 264 722 l 457 450 l 674 722 l 569 722 l 569 818 l 899 818 l 899 722 l 804 722 l 508 357 l 506 96 l 636 96 l 636 0 l 265 0 l 265 96 l 396 96 l 397 353 l 122 722 l 6 722 l 6 818 m 451 1081 l 689 946 l 664 901 l 451 979 l 239 901 l 214 946 l 451 1081 z "},"Ÿ":{"ha":904,"x_min":6,"x_max":899,"o":"m 6 818 l 338 818 l 338 722 l 264 722 l 457 450 l 674 722 l 569 722 l 569 818 l 899 818 l 899 722 l 804 722 l 508 357 l 506 96 l 636 96 l 636 0 l 265 0 l 265 96 l 396 96 l 397 353 l 122 722 l 6 722 l 6 818 m 328 1082 q 382 1059 358 1082 q 406 1004 406 1036 q 383 949 406 972 q 328 926 360 926 q 273 949 296 926 q 250 1004 250 972 q 273 1059 250 1036 q 328 1082 296 1082 m 575 1082 q 629 1059 606 1082 q 653 1004 653 1036 q 630 949 653 972 q 575 926 607 926 q 520 949 543 926 q 497 1004 497 972 q 520 1059 497 1036 q 575 1082 543 1082 z "},"Ẏ":{"ha":904,"x_min":6,"x_max":899,"o":"m 6 818 l 338 818 l 338 722 l 264 722 l 457 450 l 674 722 l 569 722 l 569 818 l 899 818 l 899 722 l 804 722 l 508 357 l 506 96 l 636 96 l 636 0 l 265 0 l 265 96 l 396 96 l 397 353 l 122 722 l 6 722 l 6 818 m 450 1114 q 513 1090 489 1114 q 536 1028 536 1067 q 513 965 536 989 q 450 942 489 942 q 388 965 411 942 q 365 1028 365 989 q 388 1090 365 1067 q 450 1114 411 1114 z "},"Ỵ":{"ha":904,"x_min":6,"x_max":899,"o":"m 6 818 l 338 818 l 338 722 l 264 722 l 457 450 l 674 722 l 569 722 l 569 818 l 899 818 l 899 722 l 804 722 l 508 357 l 506 96 l 636 96 l 636 0 l 265 0 l 265 96 l 396 96 l 397 353 l 122 722 l 6 722 l 6 818 m 450 -81 q 513 -104 489 -81 q 536 -167 536 -128 q 513 -229 536 -206 q 450 -253 489 -253 q 388 -229 411 -253 q 365 -167 365 -206 q 388 -104 365 -128 q 450 -81 411 -81 z "},"Ỳ":{"ha":904,"x_min":6,"x_max":899,"o":"m 6 818 l 338 818 l 338 722 l 264 722 l 457 450 l 674 722 l 569 722 l 569 818 l 899 818 l 899 722 l 804 722 l 508 357 l 506 96 l 636 96 l 636 0 l 265 0 l 265 96 l 396 96 l 397 353 l 122 722 l 6 722 l 6 818 m 197 1058 l 535 942 l 522 892 l 172 957 l 197 1058 z "},"Ỷ":{"ha":904,"x_min":6,"x_max":899,"o":"m 6 818 l 338 818 l 338 722 l 264 722 l 457 450 l 674 722 l 569 722 l 569 818 l 899 818 l 899 722 l 804 722 l 508 357 l 506 96 l 636 96 l 636 0 l 265 0 l 265 96 l 396 96 l 397 353 l 122 722 l 6 722 l 6 818 m 431 936 q 464 976 451 953 q 476 1019 476 999 q 466 1050 476 1039 q 435 1061 456 1061 q 369 1025 400 1061 l 321 1081 q 381 1128 346 1111 q 451 1144 415 1144 q 533 1114 500 1144 q 567 1029 567 1083 q 465 893 567 963 l 431 936 z "},"Ȳ":{"ha":904,"x_min":6,"x_max":899,"o":"m 6 818 l 338 818 l 338 722 l 264 722 l 457 450 l 674 722 l 569 722 l 569 818 l 899 818 l 899 722 l 804 722 l 508 357 l 506 96 l 636 96 l 636 0 l 265 0 l 265 96 l 396 96 l 397 353 l 122 722 l 6 722 l 6 818 m 243 1040 l 658 1040 l 658 958 l 243 958 l 243 1040 z "},"Ỹ":{"ha":904,"x_min":6,"x_max":899,"o":"m 6 818 l 338 818 l 338 722 l 264 722 l 457 450 l 674 722 l 569 722 l 569 818 l 899 818 l 899 722 l 804 722 l 508 357 l 506 96 l 636 96 l 636 0 l 265 0 l 265 96 l 396 96 l 397 353 l 122 722 l 6 722 l 6 818 m 256 985 q 335 1029 304 1017 q 408 1042 365 1042 q 461 1034 439 1042 q 514 1010 483 1026 q 550 992 535 997 q 582 986 565 986 q 618 994 603 986 q 672 1032 633 1003 l 706 954 q 637 907 665 919 q 575 894 608 894 q 535 902 554 894 q 492 924 517 910 q 449 944 468 938 q 413 951 431 951 q 361 945 382 951 q 317 928 340 939 q 285 913 294 917 l 256 985 z "},"Z":{"ha":742,"x_min":46,"x_max":694,"o":"m 85 818 l 667 818 l 667 746 l 199 96 l 547 96 l 603 244 l 694 214 l 622 0 l 57 0 l 57 78 l 521 722 l 163 722 l 135 588 l 46 600 l 85 818 z "},"Ź":{"ha":742,"x_min":46,"x_max":694,"o":"m 85 818 l 667 818 l 667 746 l 199 96 l 547 96 l 603 244 l 694 214 l 622 0 l 57 0 l 57 78 l 521 722 l 163 722 l 135 588 l 46 600 l 85 818 m 576 1067 l 601 965 l 251 900 l 239 950 l 576 1067 z "},"Ž":{"ha":742,"x_min":46,"x_max":694,"o":"m 85 818 l 667 818 l 667 746 l 199 96 l 547 96 l 603 244 l 694 214 l 622 0 l 57 0 l 57 78 l 521 722 l 163 722 l 135 588 l 46 600 l 85 818 m 368 883 l 156 1021 l 193 1079 l 368 992 l 543 1082 l 575 1021 l 368 883 z "},"Ż":{"ha":742,"x_min":46,"x_max":694,"o":"m 85 818 l 667 818 l 667 746 l 199 96 l 547 96 l 603 244 l 694 214 l 622 0 l 57 0 l 57 78 l 521 722 l 163 722 l 135 588 l 46 600 l 85 818 m 364 1114 q 426 1090 403 1114 q 450 1028 450 1067 q 426 965 450 989 q 364 942 403 942 q 302 965 325 942 q 279 1028 279 989 q 302 1090 279 1067 q 364 1114 325 1114 z "},"Ẓ":{"ha":742,"x_min":46,"x_max":694,"o":"m 85 818 l 667 818 l 667 746 l 199 96 l 547 96 l 603 244 l 694 214 l 622 0 l 57 0 l 57 78 l 521 722 l 163 722 l 135 588 l 46 600 l 85 818 m 364 -81 q 426 -104 403 -81 q 450 -167 450 -128 q 426 -229 450 -206 q 364 -253 403 -253 q 302 -229 325 -253 q 279 -167 279 -206 q 302 -104 279 -128 q 364 -81 325 -81 z "},"a":{"ha":729,"x_min":50,"x_max":700,"o":"m 485 40 q 289 -21 394 -21 q 110 27 171 -21 q 50 167 50 75 q 108 301 50 256 q 281 346 167 346 l 460 344 q 425 483 460 438 q 319 528 390 528 q 194 511 250 528 l 181 435 l 92 451 l 114 578 q 315 617 222 617 q 504 549 440 617 q 568 350 568 482 l 568 108 l 700 65 l 672 -24 l 485 40 m 285 258 q 192 235 224 258 q 161 165 161 211 q 195 93 161 118 q 294 68 229 68 q 460 121 390 68 l 460 257 l 285 258 z "},"á":{"ha":729,"x_min":50,"x_max":700,"o":"m 485 40 q 289 -21 394 -21 q 110 27 171 -21 q 50 167 50 75 q 108 301 50 256 q 281 346 167 346 l 460 344 q 425 483 460 438 q 319 528 390 528 q 194 511 250 528 l 181 435 l 92 451 l 114 578 q 315 617 222 617 q 504 549 440 617 q 568 350 568 482 l 568 108 l 700 65 l 672 -24 l 485 40 m 285 258 q 192 235 224 258 q 161 165 161 211 q 195 93 161 118 q 294 68 229 68 q 460 121 390 68 l 460 257 l 285 258 m 422 961 l 504 900 l 299 672 l 247 711 l 422 961 z "},"ă":{"ha":729,"x_min":50,"x_max":700,"o":"m 485 40 q 289 -21 394 -21 q 110 27 171 -21 q 50 167 50 75 q 108 301 50 256 q 281 346 167 346 l 460 344 q 425 483 460 438 q 319 528 390 528 q 194 511 250 528 l 181 435 l 92 451 l 114 578 q 315 617 222 617 q 504 549 440 617 q 568 350 568 482 l 568 108 l 700 65 l 672 -24 l 485 40 m 285 258 q 192 235 224 258 q 161 165 161 211 q 195 93 161 118 q 294 68 229 68 q 460 121 390 68 l 460 257 l 285 258 m 322 681 q 177 723 232 681 q 106 847 122 765 l 196 864 q 322 769 211 769 q 450 864 438 769 l 540 847 q 468 723 524 765 q 322 681 413 681 z "},"ắ":{"ha":729,"x_min":50,"x_max":700,"o":"m 485 40 q 289 -21 394 -21 q 110 27 171 -21 q 50 167 50 75 q 108 301 50 256 q 281 346 167 346 l 460 344 q 425 483 460 438 q 319 528 390 528 q 194 511 250 528 l 181 435 l 92 451 l 114 578 q 315 617 222 617 q 504 549 440 617 q 568 350 568 482 l 568 108 l 700 65 l 672 -24 l 485 40 m 285 258 q 192 235 224 258 q 161 165 161 211 q 195 93 161 118 q 294 68 229 68 q 460 121 390 68 l 460 257 l 285 258 m 389 1068 l 471 1007 l 318 844 l 267 883 l 389 1068 m 322 681 q 177 723 232 681 q 106 847 122 765 l 196 864 q 322 769 211 769 q 450 864 438 769 l 540 847 q 468 723 524 765 q 322 681 413 681 z "},"ặ":{"ha":729,"x_min":50,"x_max":700,"o":"m 485 40 q 289 -21 394 -21 q 110 27 171 -21 q 50 167 50 75 q 108 301 50 256 q 281 346 167 346 l 460 344 q 425 483 460 438 q 319 528 390 528 q 194 511 250 528 l 181 435 l 92 451 l 114 578 q 315 617 222 617 q 504 549 440 617 q 568 350 568 482 l 568 108 l 700 65 l 672 -24 l 485 40 m 285 258 q 192 235 224 258 q 161 165 161 211 q 195 93 161 118 q 294 68 229 68 q 460 121 390 68 l 460 257 l 285 258 m 350 -81 q 413 -104 389 -81 q 436 -167 436 -128 q 413 -229 436 -206 q 350 -253 389 -253 q 288 -229 311 -253 q 265 -167 265 -206 q 288 -104 265 -128 q 350 -81 311 -81 m 322 681 q 177 723 232 681 q 106 847 122 765 l 196 864 q 322 769 211 769 q 450 864 438 769 l 540 847 q 468 723 524 765 q 322 681 413 681 z "},"ằ":{"ha":729,"x_min":50,"x_max":700,"o":"m 485 40 q 289 -21 394 -21 q 110 27 171 -21 q 50 167 50 75 q 108 301 50 256 q 281 346 167 346 l 460 344 q 425 483 460 438 q 319 528 390 528 q 194 511 250 528 l 181 435 l 92 451 l 114 578 q 315 617 222 617 q 504 549 440 617 q 568 350 568 482 l 568 108 l 700 65 l 672 -24 l 485 40 m 285 258 q 192 235 224 258 q 161 165 161 211 q 195 93 161 118 q 294 68 229 68 q 460 121 390 68 l 460 257 l 285 258 m 329 844 l 175 1006 l 257 1067 l 381 883 l 329 844 m 322 681 q 177 723 232 681 q 106 847 122 765 l 196 864 q 322 769 211 769 q 450 864 438 769 l 540 847 q 468 723 524 765 q 322 681 413 681 z "},"ẳ":{"ha":729,"x_min":50,"x_max":700,"o":"m 485 40 q 289 -21 394 -21 q 110 27 171 -21 q 50 167 50 75 q 108 301 50 256 q 281 346 167 346 l 460 344 q 425 483 460 438 q 319 528 390 528 q 194 511 250 528 l 181 435 l 92 451 l 114 578 q 315 617 222 617 q 504 549 440 617 q 568 350 568 482 l 568 108 l 700 65 l 672 -24 l 485 40 m 285 258 q 192 235 224 258 q 161 165 161 211 q 195 93 161 118 q 294 68 229 68 q 460 121 390 68 l 460 257 l 285 258 m 322 681 q 177 723 232 681 q 106 847 122 765 l 196 864 q 322 769 211 769 q 450 864 438 769 l 540 847 q 468 723 524 765 q 322 681 413 681 m 289 915 q 322 955 310 932 q 335 999 335 978 q 324 1029 335 1018 q 293 1040 314 1040 q 228 1004 258 1040 l 179 1060 q 239 1107 204 1090 q 310 1124 274 1124 q 392 1093 358 1124 q 425 1008 425 1063 q 324 872 425 942 l 289 915 z "},"ẵ":{"ha":729,"x_min":50,"x_max":700,"o":"m 485 40 q 289 -21 394 -21 q 110 27 171 -21 q 50 167 50 75 q 108 301 50 256 q 281 346 167 346 l 460 344 q 425 483 460 438 q 319 528 390 528 q 194 511 250 528 l 181 435 l 92 451 l 114 578 q 315 617 222 617 q 504 549 440 617 q 568 350 568 482 l 568 108 l 700 65 l 672 -24 l 485 40 m 285 258 q 192 235 224 258 q 161 165 161 211 q 195 93 161 118 q 294 68 229 68 q 460 121 390 68 l 460 257 l 285 258 m 99 985 q 178 1029 147 1017 q 251 1042 208 1042 q 304 1034 282 1042 q 357 1010 326 1026 q 393 992 378 997 q 425 986 408 986 q 461 994 446 986 q 515 1032 476 1003 l 542 958 q 473 911 501 924 q 411 899 444 899 q 372 906 390 899 q 328 928 353 914 q 285 949 304 942 q 249 956 267 956 q 197 949 218 956 q 153 932 176 943 q 121 917 131 921 l 99 985 m 322 681 q 177 723 232 681 q 106 847 122 765 l 196 864 q 322 769 211 769 q 450 864 438 769 l 540 847 q 468 723 524 765 q 322 681 413 681 z "},"â":{"ha":729,"x_min":50,"x_max":700,"o":"m 485 40 q 289 -21 394 -21 q 110 27 171 -21 q 50 167 50 75 q 108 301 50 256 q 281 346 167 346 l 460 344 q 425 483 460 438 q 319 528 390 528 q 194 511 250 528 l 181 435 l 92 451 l 114 578 q 315 617 222 617 q 504 549 440 617 q 568 350 568 482 l 568 108 l 700 65 l 672 -24 l 485 40 m 285 258 q 192 235 224 258 q 161 165 161 211 q 195 93 161 118 q 294 68 229 68 q 460 121 390 68 l 460 257 l 285 258 m 326 875 l 533 738 l 501 676 l 326 767 l 151 679 l 114 738 l 326 875 z "},"ấ":{"ha":729,"x_min":50,"x_max":700,"o":"m 485 40 q 289 -21 394 -21 q 110 27 171 -21 q 50 167 50 75 q 108 301 50 256 q 281 346 167 346 l 460 344 q 425 483 460 438 q 319 528 390 528 q 194 511 250 528 l 181 435 l 92 451 l 114 578 q 315 617 222 617 q 504 549 440 617 q 568 350 568 482 l 568 108 l 700 65 l 672 -24 l 485 40 m 285 258 q 192 235 224 258 q 161 165 161 211 q 195 93 161 118 q 294 68 229 68 q 460 121 390 68 l 460 257 l 285 258 m 522 1054 l 604 993 l 451 831 l 400 869 l 522 1054 m 326 875 l 533 738 l 501 676 l 326 767 l 151 679 l 114 738 l 326 875 z "},"ậ":{"ha":729,"x_min":50,"x_max":700,"o":"m 485 40 q 289 -21 394 -21 q 110 27 171 -21 q 50 167 50 75 q 108 301 50 256 q 281 346 167 346 l 460 344 q 425 483 460 438 q 319 528 390 528 q 194 511 250 528 l 181 435 l 92 451 l 114 578 q 315 617 222 617 q 504 549 440 617 q 568 350 568 482 l 568 108 l 700 65 l 672 -24 l 485 40 m 285 258 q 192 235 224 258 q 161 165 161 211 q 195 93 161 118 q 294 68 229 68 q 460 121 390 68 l 460 257 l 285 258 m 350 -81 q 413 -104 389 -81 q 436 -167 436 -128 q 413 -229 436 -206 q 350 -253 389 -253 q 288 -229 311 -253 q 265 -167 265 -206 q 288 -104 265 -128 q 350 -81 311 -81 m 326 875 l 533 738 l 501 676 l 326 767 l 151 679 l 114 738 l 326 875 z "},"ầ":{"ha":729,"x_min":50,"x_max":700,"o":"m 485 40 q 289 -21 394 -21 q 110 27 171 -21 q 50 167 50 75 q 108 301 50 256 q 281 346 167 346 l 460 344 q 425 483 460 438 q 319 528 390 528 q 194 511 250 528 l 181 435 l 92 451 l 114 578 q 315 617 222 617 q 504 549 440 617 q 568 350 568 482 l 568 108 l 700 65 l 672 -24 l 485 40 m 285 258 q 192 235 224 258 q 161 165 161 211 q 195 93 161 118 q 294 68 229 68 q 460 121 390 68 l 460 257 l 285 258 m 468 831 l 314 992 l 396 1053 l 519 869 l 468 831 m 326 875 l 533 738 l 501 676 l 326 767 l 151 679 l 114 738 l 326 875 z "},"ẩ":{"ha":729,"x_min":50,"x_max":700,"o":"m 485 40 q 289 -21 394 -21 q 110 27 171 -21 q 50 167 50 75 q 108 301 50 256 q 281 346 167 346 l 460 344 q 425 483 460 438 q 319 528 390 528 q 194 511 250 528 l 181 435 l 92 451 l 114 578 q 315 617 222 617 q 504 549 440 617 q 568 350 568 482 l 568 108 l 700 65 l 672 -24 l 485 40 m 285 258 q 192 235 224 258 q 161 165 161 211 q 195 93 161 118 q 294 68 229 68 q 460 121 390 68 l 460 257 l 285 258 m 326 875 l 533 738 l 501 676 l 326 767 l 151 679 l 114 738 l 326 875 m 456 858 q 489 898 476 875 q 501 942 501 921 q 491 972 501 961 q 460 983 481 983 q 394 947 425 983 l 346 1003 q 406 1050 371 1033 q 476 1067 440 1067 q 558 1036 525 1067 q 592 951 592 1006 q 490 815 592 885 l 456 858 z "},"ẫ":{"ha":729,"x_min":50,"x_max":700,"o":"m 485 40 q 289 -21 394 -21 q 110 27 171 -21 q 50 167 50 75 q 108 301 50 256 q 281 346 167 346 l 460 344 q 425 483 460 438 q 319 528 390 528 q 194 511 250 528 l 181 435 l 92 451 l 114 578 q 315 617 222 617 q 504 549 440 617 q 568 350 568 482 l 568 108 l 700 65 l 672 -24 l 485 40 m 285 258 q 192 235 224 258 q 161 165 161 211 q 195 93 161 118 q 294 68 229 68 q 460 121 390 68 l 460 257 l 285 258 m 114 985 q 193 1029 163 1017 q 267 1042 224 1042 q 319 1034 297 1042 q 372 1010 342 1026 q 408 992 393 997 q 440 986 424 986 q 476 994 461 986 q 531 1032 492 1003 l 557 958 q 488 911 517 924 q 426 899 460 899 q 387 906 406 899 q 343 928 368 914 q 301 949 319 942 q 264 956 282 956 q 213 949 233 956 q 169 932 192 943 q 136 917 146 921 l 114 985 m 326 875 l 533 738 l 501 676 l 326 767 l 151 679 l 114 738 l 326 875 z "},"ȁ":{"ha":729,"x_min":3,"x_max":700,"o":"m 485 40 q 289 -21 394 -21 q 110 27 171 -21 q 50 167 50 75 q 108 301 50 256 q 281 346 167 346 l 460 344 q 425 483 460 438 q 319 528 390 528 q 194 511 250 528 l 181 435 l 92 451 l 114 578 q 315 617 222 617 q 504 549 440 617 q 568 350 568 482 l 568 108 l 700 65 l 672 -24 l 485 40 m 285 258 q 192 235 224 258 q 161 165 161 211 q 195 93 161 118 q 294 68 229 68 q 460 121 390 68 l 460 257 l 285 258 m 303 961 l 478 711 l 426 672 l 221 900 l 303 961 m 71 933 l 289 719 l 246 672 l 3 858 l 71 933 z "},"ä":{"ha":729,"x_min":50,"x_max":700,"o":"m 485 40 q 289 -21 394 -21 q 110 27 171 -21 q 50 167 50 75 q 108 301 50 256 q 281 346 167 346 l 460 344 q 425 483 460 438 q 319 528 390 528 q 194 511 250 528 l 181 435 l 92 451 l 114 578 q 315 617 222 617 q 504 549 440 617 q 568 350 568 482 l 568 108 l 700 65 l 672 -24 l 485 40 m 285 258 q 192 235 224 258 q 161 165 161 211 q 195 93 161 118 q 294 68 229 68 q 460 121 390 68 l 460 257 l 285 258 m 200 860 q 254 837 231 860 q 278 782 278 814 q 255 727 278 750 q 200 704 232 704 q 145 727 168 704 q 122 782 122 750 q 145 837 122 814 q 200 860 168 860 m 447 860 q 501 837 478 860 q 525 782 525 814 q 502 727 525 750 q 447 704 479 704 q 392 727 415 704 q 369 782 369 750 q 392 837 369 814 q 447 860 415 860 z "},"ạ":{"ha":729,"x_min":50,"x_max":700,"o":"m 485 40 q 289 -21 394 -21 q 110 27 171 -21 q 50 167 50 75 q 108 301 50 256 q 281 346 167 346 l 460 344 q 425 483 460 438 q 319 528 390 528 q 194 511 250 528 l 181 435 l 92 451 l 114 578 q 315 617 222 617 q 504 549 440 617 q 568 350 568 482 l 568 108 l 700 65 l 672 -24 l 485 40 m 285 258 q 192 235 224 258 q 161 165 161 211 q 195 93 161 118 q 294 68 229 68 q 460 121 390 68 l 460 257 l 285 258 m 350 -81 q 413 -104 389 -81 q 436 -167 436 -128 q 413 -229 436 -206 q 350 -253 389 -253 q 288 -229 311 -253 q 265 -167 265 -206 q 288 -104 265 -128 q 350 -81 311 -81 z "},"à":{"ha":729,"x_min":50,"x_max":700,"o":"m 485 40 q 289 -21 394 -21 q 110 27 171 -21 q 50 167 50 75 q 108 301 50 256 q 281 346 167 346 l 460 344 q 425 483 460 438 q 319 528 390 528 q 194 511 250 528 l 181 435 l 92 451 l 114 578 q 315 617 222 617 q 504 549 440 617 q 568 350 568 482 l 568 108 l 700 65 l 672 -24 l 485 40 m 285 258 q 192 235 224 258 q 161 165 161 211 q 195 93 161 118 q 294 68 229 68 q 460 121 390 68 l 460 257 l 285 258 m 315 672 l 110 900 l 192 961 l 367 711 l 315 672 z "},"ả":{"ha":729,"x_min":50,"x_max":700,"o":"m 485 40 q 289 -21 394 -21 q 110 27 171 -21 q 50 167 50 75 q 108 301 50 256 q 281 346 167 346 l 460 344 q 425 483 460 438 q 319 528 390 528 q 194 511 250 528 l 181 435 l 92 451 l 114 578 q 315 617 222 617 q 504 549 440 617 q 568 350 568 482 l 568 108 l 700 65 l 672 -24 l 485 40 m 285 258 q 192 235 224 258 q 161 165 161 211 q 195 93 161 118 q 294 68 229 68 q 460 121 390 68 l 460 257 l 285 258 m 303 714 q 336 753 324 731 q 349 797 349 776 q 338 828 349 817 q 307 839 328 839 q 242 803 272 839 l 193 858 q 253 906 218 889 q 324 922 288 922 q 406 892 372 922 q 439 807 439 861 q 338 671 439 740 l 303 714 z "},"ȃ":{"ha":729,"x_min":50,"x_max":700,"o":"m 485 40 q 289 -21 394 -21 q 110 27 171 -21 q 50 167 50 75 q 108 301 50 256 q 281 346 167 346 l 460 344 q 425 483 460 438 q 319 528 390 528 q 194 511 250 528 l 181 435 l 92 451 l 114 578 q 315 617 222 617 q 504 549 440 617 q 568 350 568 482 l 568 108 l 700 65 l 672 -24 l 485 40 m 285 258 q 192 235 224 258 q 161 165 161 211 q 195 93 161 118 q 294 68 229 68 q 460 121 390 68 l 460 257 l 285 258 m 322 878 q 468 835 413 878 q 540 711 524 793 l 450 694 q 322 789 438 789 q 196 694 211 789 l 106 711 q 177 835 122 793 q 322 878 232 878 z "},"ā":{"ha":729,"x_min":50,"x_max":700,"o":"m 485 40 q 289 -21 394 -21 q 110 27 171 -21 q 50 167 50 75 q 108 301 50 256 q 281 346 167 346 l 460 344 q 425 483 460 438 q 319 528 390 528 q 194 511 250 528 l 181 435 l 92 451 l 114 578 q 315 617 222 617 q 504 549 440 617 q 568 350 568 482 l 568 108 l 700 65 l 672 -24 l 485 40 m 285 258 q 192 235 224 258 q 161 165 161 211 q 195 93 161 118 q 294 68 229 68 q 460 121 390 68 l 460 257 l 285 258 m 115 818 l 531 818 l 531 736 l 115 736 l 115 818 z "},"ą":{"ha":729,"x_min":50,"x_max":719,"o":"m 651 -231 q 719 -218 685 -231 l 719 -303 q 608 -331 664 -331 q 499 -296 544 -331 q 453 -203 453 -261 q 494 -92 453 -139 q 624 -7 536 -44 l 485 40 q 289 -21 394 -21 q 110 27 171 -21 q 50 167 50 75 q 108 301 50 256 q 281 346 167 346 l 460 344 q 425 483 460 438 q 319 528 390 528 q 194 511 250 528 l 181 435 l 92 451 l 114 578 q 315 617 222 617 q 504 549 440 617 q 568 350 568 482 l 568 108 l 700 65 l 672 -22 l 674 -24 q 594 -90 619 -54 q 568 -168 568 -125 q 590 -215 568 -199 q 651 -231 611 -231 m 460 257 l 285 258 q 192 235 224 258 q 161 165 161 211 q 195 93 161 118 q 294 68 229 68 q 460 121 390 68 l 460 257 z "},"å":{"ha":729,"x_min":50,"x_max":700,"o":"m 485 40 q 289 -21 394 -21 q 110 27 171 -21 q 50 167 50 75 q 108 301 50 256 q 281 346 167 346 l 460 344 q 425 483 460 438 q 319 528 390 528 q 194 511 250 528 l 181 435 l 92 451 l 114 578 q 315 617 222 617 q 504 549 440 617 q 568 350 568 482 l 568 108 l 700 65 l 672 -24 l 485 40 m 285 258 q 192 235 224 258 q 161 165 161 211 q 195 93 161 118 q 294 68 229 68 q 460 121 390 68 l 460 257 l 285 258 m 324 926 q 410 894 378 926 q 443 807 443 861 q 410 720 443 753 q 324 688 378 688 q 237 720 269 688 q 204 807 204 753 q 237 894 204 861 q 324 926 269 926 m 324 861 q 285 846 300 861 q 269 807 269 831 q 285 768 269 783 q 324 753 300 753 q 363 768 347 753 q 378 807 378 783 q 363 846 378 831 q 324 861 347 861 z "},"ǻ":{"ha":729,"x_min":50,"x_max":700,"o":"m 485 40 q 289 -21 394 -21 q 110 27 171 -21 q 50 167 50 75 q 108 301 50 256 q 281 346 167 346 l 460 344 q 425 483 460 438 q 319 528 390 528 q 194 511 250 528 l 181 435 l 92 451 l 114 578 q 315 617 222 617 q 504 549 440 617 q 568 350 568 482 l 568 108 l 700 65 l 672 -24 l 485 40 m 285 258 q 192 235 224 258 q 161 165 161 211 q 195 93 161 118 q 294 68 229 68 q 460 121 390 68 l 460 257 l 285 258 m 324 926 q 410 894 378 926 q 443 807 443 861 q 410 720 443 753 q 324 688 378 688 q 237 720 269 688 q 204 807 204 753 q 237 894 204 861 q 324 926 269 926 m 324 861 q 285 846 300 861 q 269 807 269 831 q 285 768 269 783 q 324 753 300 753 q 363 768 347 753 q 378 807 378 783 q 363 846 378 831 q 324 861 347 861 m 422 1292 l 504 1231 l 299 1003 l 247 1042 l 422 1292 z "},"ã":{"ha":729,"x_min":50,"x_max":700,"o":"m 485 40 q 289 -21 394 -21 q 110 27 171 -21 q 50 167 50 75 q 108 301 50 256 q 281 346 167 346 l 460 344 q 425 483 460 438 q 319 528 390 528 q 194 511 250 528 l 181 435 l 92 451 l 114 578 q 315 617 222 617 q 504 549 440 617 q 568 350 568 482 l 568 108 l 700 65 l 672 -24 l 485 40 m 285 258 q 192 235 224 258 q 161 165 161 211 q 195 93 161 118 q 294 68 229 68 q 460 121 390 68 l 460 257 l 285 258 m 128 763 q 207 807 176 794 q 281 819 238 819 q 333 812 311 819 q 386 788 356 804 q 422 769 407 775 q 454 764 438 764 q 490 772 475 764 q 544 810 506 781 l 578 732 q 509 685 538 697 q 447 672 481 672 q 408 680 426 672 q 364 701 389 688 q 322 722 340 715 q 285 729 303 729 q 233 723 254 729 q 190 706 213 717 q 157 690 167 694 l 128 763 z "},"æ":{"ha":1079,"x_min":49,"x_max":1019,"o":"m 113 578 q 209 608 167 599 q 314 617 251 617 q 456 582 401 617 q 533 483 511 547 q 634 581 572 546 q 775 617 696 617 q 949 553 879 617 q 1018 340 1018 489 q 1014 272 1018 310 l 567 269 q 621 120 572 172 q 758 68 669 68 q 863 83 815 68 q 940 116 910 99 q 969 136 969 133 l 1019 71 q 984 43 1019 67 q 890 -1 949 19 q 757 -21 832 -21 q 535 67 618 -21 q 417 8 492 38 q 288 -21 342 -21 q 113 32 178 -21 q 49 167 49 85 q 113 301 49 257 q 279 346 178 346 l 458 344 q 447 451 458 413 q 406 509 436 490 q 318 528 375 528 q 193 511 250 528 l 179 435 l 90 451 l 113 578 m 921 357 q 883 485 918 443 q 771 528 847 528 q 635 482 689 528 q 568 356 581 436 l 921 357 m 283 258 q 192 240 225 258 q 160 165 160 221 q 198 93 160 118 q 293 68 236 68 q 394 87 339 68 q 490 132 449 106 q 457 257 461 190 l 283 258 z "},"ǽ":{"ha":1079,"x_min":49,"x_max":1019,"o":"m 113 578 q 209 608 167 599 q 314 617 251 617 q 456 582 401 617 q 533 483 511 547 q 634 581 572 546 q 775 617 696 617 q 949 553 879 617 q 1018 340 1018 489 q 1014 272 1018 310 l 567 269 q 621 120 572 172 q 758 68 669 68 q 863 83 815 68 q 940 116 910 99 q 969 136 969 133 l 1019 71 q 984 43 1019 67 q 890 -1 949 19 q 757 -21 832 -21 q 535 67 618 -21 q 417 8 492 38 q 288 -21 342 -21 q 113 32 178 -21 q 49 167 49 85 q 113 301 49 257 q 279 346 178 346 l 458 344 q 447 451 458 413 q 406 509 436 490 q 318 528 375 528 q 193 511 250 528 l 179 435 l 90 451 l 113 578 m 921 357 q 883 485 918 443 q 771 528 847 528 q 635 482 689 528 q 568 356 581 436 l 921 357 m 283 258 q 192 240 225 258 q 160 165 160 221 q 198 93 160 118 q 293 68 236 68 q 394 87 339 68 q 490 132 449 106 q 457 257 461 190 l 283 258 m 639 961 l 721 900 l 515 672 l 464 711 l 639 961 z "},"b":{"ha":717,"x_min":-40,"x_max":656,"o":"m 354 -21 q 211 -1 279 -21 q 92 57 143 18 l 92 769 l -40 815 l -11 901 l 199 829 l 199 571 q 360 617 285 617 q 583 543 511 617 q 656 314 656 469 q 583 60 656 142 q 354 -21 510 -21 m 353 68 q 498 128 451 68 q 544 314 544 188 q 499 476 544 424 q 358 528 454 528 q 199 476 283 528 l 199 103 q 353 68 260 68 z "},"c":{"ha":651,"x_min":56,"x_max":603,"o":"m 496 513 q 371 532 436 532 q 221 472 275 532 q 167 299 167 413 q 225 131 167 190 q 372 71 283 71 q 547 128 464 71 l 593 60 q 486 -2 533 17 q 358 -21 439 -21 q 201 18 269 -21 q 94 129 132 57 q 56 299 56 201 q 97 472 56 399 q 211 582 139 544 q 372 619 283 619 q 460 610 421 619 q 583 578 500 601 l 603 428 l 514 408 l 496 513 z "},"ć":{"ha":651,"x_min":56,"x_max":603,"o":"m 496 513 q 371 532 436 532 q 221 472 275 532 q 167 299 167 413 q 225 131 167 190 q 372 71 283 71 q 547 128 464 71 l 593 60 q 486 -2 533 17 q 358 -21 439 -21 q 201 18 269 -21 q 94 129 132 57 q 56 299 56 201 q 97 472 56 399 q 211 582 139 544 q 372 619 283 619 q 460 610 421 619 q 583 578 500 601 l 603 428 l 514 408 l 496 513 m 472 961 l 554 900 l 349 672 l 297 711 l 472 961 z "},"č":{"ha":651,"x_min":56,"x_max":603,"o":"m 496 513 q 371 532 436 532 q 221 472 275 532 q 167 299 167 413 q 225 131 167 190 q 372 71 283 71 q 547 128 464 71 l 593 60 q 486 -2 533 17 q 358 -21 439 -21 q 201 18 269 -21 q 94 129 132 57 q 56 299 56 201 q 97 472 56 399 q 211 582 139 544 q 372 619 283 619 q 460 610 421 619 q 583 578 500 601 l 603 428 l 514 408 l 496 513 m 376 661 l 164 799 l 201 857 l 376 769 l 551 860 l 583 799 l 376 661 z "},"ç":{"ha":651,"x_min":56,"x_max":603,"o":"m 593 60 q 513 9 549 26 q 429 -17 476 -8 l 429 -87 q 579 -196 579 -87 q 539 -279 579 -249 q 429 -310 499 -310 q 315 -284 349 -310 q 281 -258 282 -258 l 311 -207 q 367 -233 335 -222 q 426 -243 400 -243 q 503 -196 503 -243 q 482 -159 503 -169 q 411 -149 461 -149 l 360 -149 l 360 -21 l 358 -21 q 201 18 269 -21 q 94 129 132 57 q 56 299 56 201 q 97 472 56 399 q 211 582 139 544 q 372 619 283 619 q 460 610 421 619 q 583 578 500 601 l 603 428 l 514 408 l 496 513 q 371 532 436 532 q 221 472 275 532 q 167 299 167 413 q 225 131 167 190 q 372 71 283 71 q 547 128 464 71 l 593 60 z "},"ḉ":{"ha":651,"x_min":56,"x_max":603,"o":"m 554 900 l 349 672 l 297 711 l 472 961 l 554 900 m 593 60 q 513 9 549 26 q 429 -17 476 -8 l 429 -87 q 579 -196 579 -87 q 539 -279 579 -249 q 429 -310 499 -310 q 315 -284 349 -310 q 281 -258 282 -258 l 311 -207 q 367 -233 335 -222 q 426 -243 400 -243 q 503 -196 503 -243 q 482 -159 503 -169 q 411 -149 461 -149 l 360 -149 l 360 -21 l 358 -21 q 201 18 269 -21 q 94 129 132 57 q 56 299 56 201 q 97 472 56 399 q 211 582 139 544 q 372 619 283 619 q 460 610 421 619 q 583 578 500 601 l 603 428 l 514 408 l 496 513 q 371 532 436 532 q 221 472 275 532 q 167 299 167 413 q 225 131 167 190 q 372 71 283 71 q 547 128 464 71 l 593 60 z "},"ĉ":{"ha":651,"x_min":56,"x_max":603,"o":"m 496 513 q 371 532 436 532 q 221 472 275 532 q 167 299 167 413 q 225 131 167 190 q 372 71 283 71 q 547 128 464 71 l 593 60 q 486 -2 533 17 q 358 -21 439 -21 q 201 18 269 -21 q 94 129 132 57 q 56 299 56 201 q 97 472 56 399 q 211 582 139 544 q 372 619 283 619 q 460 610 421 619 q 583 578 500 601 l 603 428 l 514 408 l 496 513 m 376 875 l 583 738 l 551 676 l 376 767 l 201 679 l 164 738 l 376 875 z "},"ċ":{"ha":651,"x_min":56,"x_max":603,"o":"m 496 513 q 371 532 436 532 q 221 472 275 532 q 167 299 167 413 q 225 131 167 190 q 372 71 283 71 q 547 128 464 71 l 593 60 q 486 -2 533 17 q 358 -21 439 -21 q 201 18 269 -21 q 94 129 132 57 q 56 299 56 201 q 97 472 56 399 q 211 582 139 544 q 372 619 283 619 q 460 610 421 619 q 583 578 500 601 l 603 428 l 514 408 l 496 513 m 372 892 q 435 868 411 892 q 458 806 458 844 q 435 743 458 767 q 372 719 411 719 q 310 743 333 719 q 288 806 288 767 q 310 868 288 844 q 372 892 333 892 z "},"d":{"ha":782,"x_min":57,"x_max":753,"o":"m 540 40 q 452 -5 500 11 q 360 -21 404 -21 q 137 67 217 -21 q 57 311 57 154 q 137 536 57 456 q 360 617 217 617 q 514 588 438 617 l 514 769 l 382 815 l 411 901 l 622 829 l 622 110 l 753 65 l 725 -24 l 540 40 m 361 68 q 438 82 396 68 q 514 119 479 96 l 514 493 q 440 518 482 508 q 361 528 399 528 q 222 469 275 528 q 168 313 168 410 q 222 135 168 203 q 361 68 275 68 z "},"ð":{"ha":726,"x_min":56,"x_max":664,"o":"m 408 803 q 537 697 479 767 q 628 539 594 626 q 664 364 661 451 q 624 149 664 236 q 515 20 583 63 q 358 -22 446 -22 q 208 14 276 -22 q 97 122 139 50 q 56 296 56 193 q 94 465 56 393 q 201 576 132 538 q 358 614 269 614 q 496 588 432 614 q 349 736 440 681 l 285 667 l 228 722 l 275 775 q 136 829 217 803 l 154 906 q 336 842 279 869 l 400 913 l 457 857 l 408 803 m 360 525 q 216 466 265 525 q 167 296 167 407 q 216 126 167 185 q 360 67 265 67 q 503 138 453 67 q 554 340 554 210 q 549 408 554 378 q 532 479 543 439 q 456 513 503 500 q 360 525 408 525 z "},"ď":{"ha":782,"x_min":57,"x_max":778,"o":"m 540 40 q 452 -5 500 11 q 360 -21 404 -21 q 137 67 217 -21 q 57 311 57 154 q 137 536 57 456 q 360 617 217 617 q 514 588 438 617 l 514 769 l 382 815 l 411 901 l 622 829 l 622 110 l 753 65 l 725 -24 l 540 40 m 361 68 q 438 82 396 68 q 514 119 479 96 l 514 493 q 440 518 482 508 q 361 528 399 528 q 222 469 275 528 q 168 313 168 410 q 222 135 168 203 q 361 68 275 68 m 571 883 l 358 1021 l 396 1079 l 571 992 l 746 1082 l 778 1021 l 571 883 z "},"đ":{"ha":782,"x_min":57,"x_max":753,"o":"m 753 65 l 725 -24 l 540 40 q 452 -5 500 11 q 360 -21 404 -21 q 137 63 217 -21 q 57 297 57 147 q 138 516 57 436 q 360 596 218 596 q 514 567 438 596 l 514 646 l 307 646 l 307 729 l 514 729 l 514 769 l 382 815 l 411 901 l 622 829 l 622 729 l 733 729 l 733 646 l 622 646 l 622 110 l 753 65 m 514 472 q 440 497 482 488 q 361 507 399 507 q 222 449 275 507 q 168 299 168 390 q 222 131 168 194 q 361 68 275 68 q 440 81 403 68 q 514 119 476 94 l 514 472 z "},"ḍ":{"ha":782,"x_min":57,"x_max":753,"o":"m 540 40 q 452 -5 500 11 q 360 -21 404 -21 q 137 67 217 -21 q 57 311 57 154 q 137 536 57 456 q 360 617 217 617 q 514 588 438 617 l 514 769 l 382 815 l 411 901 l 622 829 l 622 110 l 753 65 l 725 -24 l 540 40 m 361 68 q 438 82 396 68 q 514 119 479 96 l 514 493 q 440 518 482 508 q 361 528 399 528 q 222 469 275 528 q 168 313 168 410 q 222 135 168 203 q 361 68 275 68 m 399 -81 q 461 -104 438 -81 q 485 -167 485 -128 q 461 -229 485 -206 q 399 -253 438 -253 q 337 -229 360 -253 q 314 -167 314 -206 q 337 -104 314 -128 q 399 -81 360 -81 z "},"ḏ":{"ha":782,"x_min":57,"x_max":753,"o":"m 540 40 q 452 -5 500 11 q 360 -21 404 -21 q 137 67 217 -21 q 57 311 57 154 q 137 536 57 456 q 360 617 217 617 q 514 588 438 617 l 514 769 l 382 815 l 411 901 l 622 829 l 622 110 l 753 65 l 725 -24 l 540 40 m 361 68 q 438 82 396 68 q 514 119 479 96 l 514 493 q 440 518 482 508 q 361 528 399 528 q 222 469 275 528 q 168 313 168 410 q 222 135 168 203 q 361 68 275 68 m 186 -56 l 613 -56 l 613 -142 l 186 -142 l 186 -56 z "},"e":{"ha":682,"x_min":54,"x_max":626,"o":"m 619 71 q 506 1 564 24 q 375 -21 447 -21 q 140 64 226 -21 q 54 299 54 149 q 92 465 54 393 q 198 577 129 538 q 357 617 267 617 q 554 538 482 617 q 626 326 626 460 q 624 274 626 310 l 161 271 q 226 119 167 169 q 371 69 285 69 q 569 136 489 69 l 619 71 m 519 358 q 474 484 518 436 q 358 532 431 532 q 228 483 283 532 q 163 357 174 435 l 519 358 z "},"é":{"ha":682,"x_min":54,"x_max":626,"o":"m 619 71 q 506 1 564 24 q 375 -21 447 -21 q 140 64 226 -21 q 54 299 54 149 q 92 465 54 393 q 198 577 129 538 q 357 617 267 617 q 554 538 482 617 q 626 326 626 460 q 624 274 626 310 l 161 271 q 226 119 167 169 q 371 69 285 69 q 569 136 489 69 l 619 71 m 519 358 q 474 484 518 436 q 358 532 431 532 q 228 483 283 532 q 163 357 174 435 l 519 358 m 451 961 l 533 900 l 328 672 l 276 711 l 451 961 z "},"ĕ":{"ha":682,"x_min":54,"x_max":626,"o":"m 619 71 q 506 1 564 24 q 375 -21 447 -21 q 140 64 226 -21 q 54 299 54 149 q 92 465 54 393 q 198 577 129 538 q 357 617 267 617 q 554 538 482 617 q 626 326 626 460 q 624 274 626 310 l 161 271 q 226 119 167 169 q 371 69 285 69 q 569 136 489 69 l 619 71 m 519 358 q 474 484 518 436 q 358 532 431 532 q 228 483 283 532 q 163 357 174 435 l 519 358 m 351 681 q 206 723 261 681 q 135 847 151 765 l 225 864 q 351 769 240 769 q 479 864 467 769 l 569 847 q 497 723 553 765 q 351 681 442 681 z "},"ě":{"ha":682,"x_min":54,"x_max":626,"o":"m 619 71 q 506 1 564 24 q 375 -21 447 -21 q 140 64 226 -21 q 54 299 54 149 q 92 465 54 393 q 198 577 129 538 q 357 617 267 617 q 554 538 482 617 q 626 326 626 460 q 624 274 626 310 l 161 271 q 226 119 167 169 q 371 69 285 69 q 569 136 489 69 l 619 71 m 519 358 q 474 484 518 436 q 358 532 431 532 q 228 483 283 532 q 163 357 174 435 l 519 358 m 356 661 l 143 799 l 181 857 l 356 769 l 531 860 l 563 799 l 356 661 z "},"ḝ":{"ha":682,"x_min":54,"x_max":626,"o":"m 351 681 q 206 723 261 681 q 135 847 151 765 l 225 864 q 351 769 240 769 q 479 864 467 769 l 569 847 q 497 723 553 765 q 351 681 442 681 m 626 326 q 624 274 626 310 l 161 271 q 226 119 167 169 q 371 69 285 69 q 569 136 489 69 l 619 71 q 519 8 569 29 q 410 -19 469 -14 l 410 -87 q 560 -196 560 -87 q 519 -279 560 -249 q 410 -310 479 -310 q 296 -284 329 -310 q 261 -258 263 -258 l 292 -207 q 348 -233 315 -222 q 407 -243 381 -243 q 483 -196 483 -243 q 463 -159 483 -169 q 392 -149 442 -149 l 340 -149 l 340 -19 q 131 74 207 -10 q 54 299 54 158 q 92 465 54 393 q 198 577 129 538 q 357 617 267 617 q 554 538 482 617 q 626 326 626 460 m 519 358 q 474 484 518 436 q 358 532 431 532 q 228 483 283 532 q 163 357 174 435 l 519 358 z "},"ê":{"ha":682,"x_min":54,"x_max":626,"o":"m 619 71 q 506 1 564 24 q 375 -21 447 -21 q 140 64 226 -21 q 54 299 54 149 q 92 465 54 393 q 198 577 129 538 q 357 617 267 617 q 554 538 482 617 q 626 326 626 460 q 624 274 626 310 l 161 271 q 226 119 167 169 q 371 69 285 69 q 569 136 489 69 l 619 71 m 519 358 q 474 484 518 436 q 358 532 431 532 q 228 483 283 532 q 163 357 174 435 l 519 358 m 356 875 l 563 738 l 531 676 l 356 767 l 181 679 l 143 738 l 356 875 z "},"ế":{"ha":682,"x_min":54,"x_max":633,"o":"m 619 71 q 506 1 564 24 q 375 -21 447 -21 q 140 64 226 -21 q 54 299 54 149 q 92 465 54 393 q 198 577 129 538 q 357 617 267 617 q 554 538 482 617 q 626 326 626 460 q 624 274 626 310 l 161 271 q 226 119 167 169 q 371 69 285 69 q 569 136 489 69 l 619 71 m 519 358 q 474 484 518 436 q 358 532 431 532 q 228 483 283 532 q 163 357 174 435 l 519 358 m 551 1054 l 633 993 l 481 831 l 429 869 l 551 1054 m 356 875 l 563 738 l 531 676 l 356 767 l 181 679 l 143 738 l 356 875 z "},"ệ":{"ha":682,"x_min":54,"x_max":626,"o":"m 619 71 q 506 1 564 24 q 375 -21 447 -21 q 140 64 226 -21 q 54 299 54 149 q 92 465 54 393 q 198 577 129 538 q 357 617 267 617 q 554 538 482 617 q 626 326 626 460 q 624 274 626 310 l 161 271 q 226 119 167 169 q 371 69 285 69 q 569 136 489 69 l 619 71 m 519 358 q 474 484 518 436 q 358 532 431 532 q 228 483 283 532 q 163 357 174 435 l 519 358 m 339 -81 q 401 -104 378 -81 q 425 -167 425 -128 q 401 -229 425 -206 q 339 -253 378 -253 q 277 -229 300 -253 q 254 -167 254 -206 q 277 -104 254 -128 q 339 -81 300 -81 m 356 875 l 563 738 l 531 676 l 356 767 l 181 679 l 143 738 l 356 875 z "},"ề":{"ha":682,"x_min":54,"x_max":626,"o":"m 619 71 q 506 1 564 24 q 375 -21 447 -21 q 140 64 226 -21 q 54 299 54 149 q 92 465 54 393 q 198 577 129 538 q 357 617 267 617 q 554 538 482 617 q 626 326 626 460 q 624 274 626 310 l 161 271 q 226 119 167 169 q 371 69 285 69 q 569 136 489 69 l 619 71 m 519 358 q 474 484 518 436 q 358 532 431 532 q 228 483 283 532 q 163 357 174 435 l 519 358 m 497 831 l 343 992 l 425 1053 l 549 869 l 497 831 m 356 875 l 563 738 l 531 676 l 356 767 l 181 679 l 143 738 l 356 875 z "},"ể":{"ha":682,"x_min":54,"x_max":626,"o":"m 619 71 q 506 1 564 24 q 375 -21 447 -21 q 140 64 226 -21 q 54 299 54 149 q 92 465 54 393 q 198 577 129 538 q 357 617 267 617 q 554 538 482 617 q 626 326 626 460 q 624 274 626 310 l 161 271 q 226 119 167 169 q 371 69 285 69 q 569 136 489 69 l 619 71 m 519 358 q 474 484 518 436 q 358 532 431 532 q 228 483 283 532 q 163 357 174 435 l 519 358 m 356 875 l 563 738 l 531 676 l 356 767 l 181 679 l 143 738 l 356 875 m 485 858 q 518 898 506 875 q 531 942 531 921 q 520 972 531 961 q 489 983 510 983 q 424 947 454 983 l 375 1003 q 435 1050 400 1033 q 506 1067 469 1067 q 588 1036 554 1067 q 621 951 621 1006 q 519 815 621 885 l 485 858 z "},"ễ":{"ha":682,"x_min":54,"x_max":626,"o":"m 619 71 q 506 1 564 24 q 375 -21 447 -21 q 140 64 226 -21 q 54 299 54 149 q 92 465 54 393 q 198 577 129 538 q 357 617 267 617 q 554 538 482 617 q 626 326 626 460 q 624 274 626 310 l 161 271 q 226 119 167 169 q 371 69 285 69 q 569 136 489 69 l 619 71 m 519 358 q 474 484 518 436 q 358 532 431 532 q 228 483 283 532 q 163 357 174 435 l 519 358 m 143 985 q 222 1029 192 1017 q 296 1042 253 1042 q 349 1034 326 1042 q 401 1010 371 1026 q 438 992 422 997 q 469 986 453 986 q 506 994 490 986 q 560 1032 521 1003 l 586 958 q 517 911 546 924 q 456 899 489 899 q 416 906 435 899 q 372 928 397 914 q 330 949 349 942 q 293 956 311 956 q 242 949 263 956 q 198 932 221 943 q 165 917 175 921 l 143 985 m 356 875 l 563 738 l 531 676 l 356 767 l 181 679 l 143 738 l 356 875 z "},"ȅ":{"ha":682,"x_min":32,"x_max":626,"o":"m 619 71 q 506 1 564 24 q 375 -21 447 -21 q 140 64 226 -21 q 54 299 54 149 q 92 465 54 393 q 198 577 129 538 q 357 617 267 617 q 554 538 482 617 q 626 326 626 460 q 624 274 626 310 l 161 271 q 226 119 167 169 q 371 69 285 69 q 569 136 489 69 l 619 71 m 519 358 q 474 484 518 436 q 358 532 431 532 q 228 483 283 532 q 163 357 174 435 l 519 358 m 332 961 l 507 711 l 456 672 l 250 900 l 332 961 m 100 933 l 318 719 l 275 672 l 32 858 l 100 933 z "},"ë":{"ha":682,"x_min":54,"x_max":626,"o":"m 619 71 q 506 1 564 24 q 375 -21 447 -21 q 140 64 226 -21 q 54 299 54 149 q 92 465 54 393 q 198 577 129 538 q 357 617 267 617 q 554 538 482 617 q 626 326 626 460 q 624 274 626 310 l 161 271 q 226 119 167 169 q 371 69 285 69 q 569 136 489 69 l 619 71 m 519 358 q 474 484 518 436 q 358 532 431 532 q 228 483 283 532 q 163 357 174 435 l 519 358 m 229 860 q 283 837 260 860 q 307 782 307 814 q 284 727 307 750 q 229 704 261 704 q 174 727 197 704 q 151 782 151 750 q 174 837 151 814 q 229 860 197 860 m 476 860 q 531 837 507 860 q 554 782 554 814 q 531 727 554 750 q 476 704 508 704 q 422 727 444 704 q 399 782 399 750 q 422 837 399 814 q 476 860 444 860 z "},"ė":{"ha":682,"x_min":54,"x_max":626,"o":"m 619 71 q 506 1 564 24 q 375 -21 447 -21 q 140 64 226 -21 q 54 299 54 149 q 92 465 54 393 q 198 577 129 538 q 357 617 267 617 q 554 538 482 617 q 626 326 626 460 q 624 274 626 310 l 161 271 q 226 119 167 169 q 371 69 285 69 q 569 136 489 69 l 619 71 m 519 358 q 474 484 518 436 q 358 532 431 532 q 228 483 283 532 q 163 357 174 435 l 519 358 m 351 892 q 414 868 390 892 q 438 806 438 844 q 414 743 438 767 q 351 719 390 719 q 290 743 313 719 q 267 806 267 767 q 290 868 267 844 q 351 892 313 892 z "},"ẹ":{"ha":682,"x_min":54,"x_max":626,"o":"m 619 71 q 506 1 564 24 q 375 -21 447 -21 q 140 64 226 -21 q 54 299 54 149 q 92 465 54 393 q 198 577 129 538 q 357 617 267 617 q 554 538 482 617 q 626 326 626 460 q 624 274 626 310 l 161 271 q 226 119 167 169 q 371 69 285 69 q 569 136 489 69 l 619 71 m 519 358 q 474 484 518 436 q 358 532 431 532 q 228 483 283 532 q 163 357 174 435 l 519 358 m 339 -81 q 401 -104 378 -81 q 425 -167 425 -128 q 401 -229 425 -206 q 339 -253 378 -253 q 277 -229 300 -253 q 254 -167 254 -206 q 277 -104 254 -128 q 339 -81 300 -81 z "},"è":{"ha":682,"x_min":54,"x_max":626,"o":"m 619 71 q 506 1 564 24 q 375 -21 447 -21 q 140 64 226 -21 q 54 299 54 149 q 92 465 54 393 q 198 577 129 538 q 357 617 267 617 q 554 538 482 617 q 626 326 626 460 q 624 274 626 310 l 161 271 q 226 119 167 169 q 371 69 285 69 q 569 136 489 69 l 619 71 m 519 358 q 474 484 518 436 q 358 532 431 532 q 228 483 283 532 q 163 357 174 435 l 519 358 m 344 672 l 139 900 l 221 961 l 396 711 l 344 672 z "},"ẻ":{"ha":682,"x_min":54,"x_max":626,"o":"m 619 71 q 506 1 564 24 q 375 -21 447 -21 q 140 64 226 -21 q 54 299 54 149 q 92 465 54 393 q 198 577 129 538 q 357 617 267 617 q 554 538 482 617 q 626 326 626 460 q 624 274 626 310 l 161 271 q 226 119 167 169 q 371 69 285 69 q 569 136 489 69 l 619 71 m 519 358 q 474 484 518 436 q 358 532 431 532 q 228 483 283 532 q 163 357 174 435 l 519 358 m 332 714 q 365 753 353 731 q 378 797 378 776 q 367 828 378 817 q 336 839 357 839 q 271 803 301 839 l 222 858 q 282 906 247 889 q 353 922 317 922 q 435 892 401 922 q 468 807 468 861 q 367 671 468 740 l 332 714 z "},"ȇ":{"ha":682,"x_min":54,"x_max":626,"o":"m 619 71 q 506 1 564 24 q 375 -21 447 -21 q 140 64 226 -21 q 54 299 54 149 q 92 465 54 393 q 198 577 129 538 q 357 617 267 617 q 554 538 482 617 q 626 326 626 460 q 624 274 626 310 l 161 271 q 226 119 167 169 q 371 69 285 69 q 569 136 489 69 l 619 71 m 519 358 q 474 484 518 436 q 358 532 431 532 q 228 483 283 532 q 163 357 174 435 l 519 358 m 351 878 q 497 835 442 878 q 569 711 553 793 l 479 694 q 351 789 467 789 q 225 694 240 789 l 135 711 q 206 835 151 793 q 351 878 261 878 z "},"ē":{"ha":682,"x_min":54,"x_max":626,"o":"m 619 71 q 506 1 564 24 q 375 -21 447 -21 q 140 64 226 -21 q 54 299 54 149 q 92 465 54 393 q 198 577 129 538 q 357 617 267 617 q 554 538 482 617 q 626 326 626 460 q 624 274 626 310 l 161 271 q 226 119 167 169 q 371 69 285 69 q 569 136 489 69 l 619 71 m 519 358 q 474 484 518 436 q 358 532 431 532 q 228 483 283 532 q 163 357 174 435 l 519 358 m 144 818 l 560 818 l 560 736 l 144 736 l 144 818 z "},"ḗ":{"ha":682,"x_min":54,"x_max":626,"o":"m 619 71 q 506 1 564 24 q 375 -21 447 -21 q 140 64 226 -21 q 54 299 54 149 q 92 465 54 393 q 198 577 129 538 q 357 617 267 617 q 554 538 482 617 q 626 326 626 460 q 624 274 626 310 l 161 271 q 226 119 167 169 q 371 69 285 69 q 569 136 489 69 l 619 71 m 519 358 q 474 484 518 436 q 358 532 431 532 q 228 483 283 532 q 163 357 174 435 l 519 358 m 144 818 l 560 818 l 560 736 l 144 736 l 144 818 m 476 1169 l 558 1108 l 353 881 l 301 919 l 476 1169 z "},"ḕ":{"ha":682,"x_min":54,"x_max":626,"o":"m 619 71 q 506 1 564 24 q 375 -21 447 -21 q 140 64 226 -21 q 54 299 54 149 q 92 465 54 393 q 198 577 129 538 q 357 617 267 617 q 554 538 482 617 q 626 326 626 460 q 624 274 626 310 l 161 271 q 226 119 167 169 q 371 69 285 69 q 569 136 489 69 l 619 71 m 519 358 q 474 484 518 436 q 358 532 431 532 q 228 483 283 532 q 163 357 174 435 l 519 358 m 144 818 l 560 818 l 560 736 l 144 736 l 144 818 m 369 881 l 164 1108 l 246 1169 l 421 919 l 369 881 z "},"ę":{"ha":682,"x_min":54,"x_max":626,"o":"m 626 326 q 624 274 626 310 l 161 271 q 226 119 167 169 q 371 69 285 69 q 569 136 489 69 l 619 71 q 546 19 582 39 q 485 -40 504 -8 q 467 -108 467 -71 q 488 -155 467 -139 q 550 -171 510 -171 q 618 -158 583 -171 l 618 -243 q 507 -271 563 -271 q 397 -236 443 -271 q 351 -143 351 -201 q 406 -19 351 -74 q 375 -21 396 -21 q 140 64 226 -21 q 54 299 54 149 q 92 465 54 393 q 198 577 129 538 q 357 617 267 617 q 554 538 482 617 q 626 326 626 460 m 519 358 q 474 484 518 436 q 358 532 431 532 q 228 483 283 532 q 163 357 174 435 l 519 358 z "},"ẽ":{"ha":682,"x_min":54,"x_max":626,"o":"m 619 71 q 506 1 564 24 q 375 -21 447 -21 q 140 64 226 -21 q 54 299 54 149 q 92 465 54 393 q 198 577 129 538 q 357 617 267 617 q 554 538 482 617 q 626 326 626 460 q 624 274 626 310 l 161 271 q 226 119 167 169 q 371 69 285 69 q 569 136 489 69 l 619 71 m 519 358 q 474 484 518 436 q 358 532 431 532 q 228 483 283 532 q 163 357 174 435 l 519 358 m 157 763 q 236 807 206 794 q 310 819 267 819 q 363 812 340 819 q 415 788 385 804 q 451 769 436 775 q 483 764 467 764 q 519 772 504 764 q 574 810 535 781 l 607 732 q 538 685 567 697 q 476 672 510 672 q 437 680 456 672 q 393 701 418 688 q 351 722 369 715 q 314 729 332 729 q 263 723 283 729 q 219 706 242 717 q 186 690 196 694 l 157 763 z "},"ə":{"ha":682,"x_min":56,"x_max":628,"o":"m 63 525 q 176 594 118 572 q 307 617 235 617 q 542 532 456 617 q 628 297 628 447 q 590 131 628 203 q 484 19 553 58 q 325 -21 415 -21 q 128 58 200 -21 q 56 269 56 136 q 58 322 56 286 l 521 325 q 456 476 515 426 q 311 526 397 526 q 113 460 194 526 l 63 525 m 163 238 q 208 112 164 160 q 324 64 251 64 q 453 113 399 64 q 519 239 508 161 l 163 238 z "},"f":{"ha":485,"x_min":50,"x_max":589,"o":"m 167 679 q 232 852 167 790 q 415 914 297 914 q 511 899 465 914 q 589 856 557 883 l 546 779 q 486 813 522 801 q 408 825 450 825 q 310 781 346 825 q 275 657 275 736 l 275 596 l 447 596 l 447 510 l 275 510 l 275 86 l 400 86 l 400 0 l 50 0 l 50 86 l 167 86 l 167 510 l 50 510 l 50 596 l 167 596 l 167 679 z "},"g":{"ha":743,"x_min":32,"x_max":718,"o":"m 403 38 q 625 -124 625 38 q 547 -260 625 -211 q 329 -310 468 -310 q 167 -288 263 -310 q 32 -243 71 -267 l 71 -161 q 193 -202 119 -186 q 329 -218 267 -218 q 469 -197 419 -218 q 518 -133 518 -176 q 374 -49 518 -49 l 175 -49 l 175 189 q 79 266 113 215 q 46 386 46 317 q 119 554 46 492 q 319 617 193 617 q 489 578 421 617 l 686 651 l 718 560 l 554 522 q 596 393 596 471 q 521 226 596 288 q 318 164 446 164 q 281 165 293 164 l 281 38 l 403 38 m 321 528 q 198 492 240 528 q 156 390 156 456 q 201 291 156 329 q 321 253 246 253 q 441 291 396 253 q 486 390 486 329 q 444 492 486 456 q 321 528 401 528 z "},"ğ":{"ha":743,"x_min":32,"x_max":718,"o":"m 403 38 q 625 -124 625 38 q 547 -260 625 -211 q 329 -310 468 -310 q 167 -288 263 -310 q 32 -243 71 -267 l 71 -161 q 193 -202 119 -186 q 329 -218 267 -218 q 469 -197 419 -218 q 518 -133 518 -176 q 374 -49 518 -49 l 175 -49 l 175 189 q 79 266 113 215 q 46 386 46 317 q 119 554 46 492 q 319 617 193 617 q 489 578 421 617 l 686 651 l 718 560 l 554 522 q 596 393 596 471 q 521 226 596 288 q 318 164 446 164 q 281 165 293 164 l 281 38 l 403 38 m 321 528 q 198 492 240 528 q 156 390 156 456 q 201 291 156 329 q 321 253 246 253 q 441 291 396 253 q 486 390 486 329 q 444 492 486 456 q 321 528 401 528 m 321 681 q 176 723 231 681 q 104 847 121 765 l 194 864 q 321 769 210 769 q 449 864 436 769 l 539 847 q 467 723 522 765 q 321 681 411 681 z "},"ǧ":{"ha":743,"x_min":32,"x_max":718,"o":"m 403 38 q 625 -124 625 38 q 547 -260 625 -211 q 329 -310 468 -310 q 167 -288 263 -310 q 32 -243 71 -267 l 71 -161 q 193 -202 119 -186 q 329 -218 267 -218 q 469 -197 419 -218 q 518 -133 518 -176 q 374 -49 518 -49 l 175 -49 l 175 189 q 79 266 113 215 q 46 386 46 317 q 119 554 46 492 q 319 617 193 617 q 489 578 421 617 l 686 651 l 718 560 l 554 522 q 596 393 596 471 q 521 226 596 288 q 318 164 446 164 q 281 165 293 164 l 281 38 l 403 38 m 321 528 q 198 492 240 528 q 156 390 156 456 q 201 291 156 329 q 321 253 246 253 q 441 291 396 253 q 486 390 486 329 q 444 492 486 456 q 321 528 401 528 m 325 661 l 113 799 l 150 857 l 325 769 l 500 860 l 532 799 l 325 661 z "},"ĝ":{"ha":743,"x_min":32,"x_max":718,"o":"m 403 38 q 625 -124 625 38 q 547 -260 625 -211 q 329 -310 468 -310 q 167 -288 263 -310 q 32 -243 71 -267 l 71 -161 q 193 -202 119 -186 q 329 -218 267 -218 q 469 -197 419 -218 q 518 -133 518 -176 q 374 -49 518 -49 l 175 -49 l 175 189 q 79 266 113 215 q 46 386 46 317 q 119 554 46 492 q 319 617 193 617 q 489 578 421 617 l 686 651 l 718 560 l 554 522 q 596 393 596 471 q 521 226 596 288 q 318 164 446 164 q 281 165 293 164 l 281 38 l 403 38 m 321 528 q 198 492 240 528 q 156 390 156 456 q 201 291 156 329 q 321 253 246 253 q 441 291 396 253 q 486 390 486 329 q 444 492 486 456 q 321 528 401 528 m 325 875 l 532 738 l 500 676 l 325 767 l 150 679 l 113 738 l 325 875 z "},"ģ":{"ha":743,"x_min":32,"x_max":718,"o":"m 403 38 q 625 -124 625 38 q 547 -260 625 -211 q 329 -310 468 -310 q 167 -288 263 -310 q 32 -243 71 -267 l 71 -161 q 193 -202 119 -186 q 329 -218 267 -218 q 469 -197 419 -218 q 518 -133 518 -176 q 374 -49 518 -49 l 175 -49 l 175 189 q 79 266 113 215 q 46 386 46 317 q 119 554 46 492 q 319 617 193 617 q 489 578 421 617 l 686 651 l 718 560 l 554 522 q 596 393 596 471 q 521 226 596 288 q 318 164 446 164 q 281 165 293 164 l 281 38 l 403 38 m 321 528 q 198 492 240 528 q 156 390 156 456 q 201 291 156 329 q 321 253 246 253 q 441 291 396 253 q 486 390 486 329 q 444 492 486 456 q 321 528 401 528 m 401 961 q 373 917 394 951 q 338 850 351 882 q 394 824 372 847 q 415 769 415 801 q 390 708 415 732 q 325 683 364 683 q 259 712 288 683 q 231 779 231 740 q 258 876 231 826 q 319 966 285 926 q 353 1003 353 1006 l 401 961 z "},"ġ":{"ha":743,"x_min":32,"x_max":718,"o":"m 403 38 q 625 -124 625 38 q 547 -260 625 -211 q 329 -310 468 -310 q 167 -288 263 -310 q 32 -243 71 -267 l 71 -161 q 193 -202 119 -186 q 329 -218 267 -218 q 469 -197 419 -218 q 518 -133 518 -176 q 374 -49 518 -49 l 175 -49 l 175 189 q 79 266 113 215 q 46 386 46 317 q 119 554 46 492 q 319 617 193 617 q 489 578 421 617 l 686 651 l 718 560 l 554 522 q 596 393 596 471 q 521 226 596 288 q 318 164 446 164 q 281 165 293 164 l 281 38 l 403 38 m 321 528 q 198 492 240 528 q 156 390 156 456 q 201 291 156 329 q 321 253 246 253 q 441 291 396 253 q 486 390 486 329 q 444 492 486 456 q 321 528 401 528 m 321 892 q 383 868 360 892 q 407 806 407 844 q 383 743 407 767 q 321 719 360 719 q 259 743 282 719 q 236 806 236 767 q 259 868 236 844 q 321 892 282 892 z "},"ḡ":{"ha":743,"x_min":32,"x_max":718,"o":"m 403 38 q 625 -124 625 38 q 547 -260 625 -211 q 329 -310 468 -310 q 167 -288 263 -310 q 32 -243 71 -267 l 71 -161 q 193 -202 119 -186 q 329 -218 267 -218 q 469 -197 419 -218 q 518 -133 518 -176 q 374 -49 518 -49 l 175 -49 l 175 189 q 79 266 113 215 q 46 386 46 317 q 119 554 46 492 q 319 617 193 617 q 489 578 421 617 l 686 651 l 718 560 l 554 522 q 596 393 596 471 q 521 226 596 288 q 318 164 446 164 q 281 165 293 164 l 281 38 l 403 38 m 321 528 q 198 492 240 528 q 156 390 156 456 q 201 291 156 329 q 321 253 246 253 q 441 291 396 253 q 486 390 486 329 q 444 492 486 456 q 321 528 401 528 m 114 818 l 529 818 l 529 736 l 114 736 l 114 818 z "},"h":{"ha":833,"x_min":14,"x_max":801,"o":"m 29 86 l 146 86 l 146 771 l 14 817 l 43 903 l 254 831 l 254 558 q 344 601 297 586 q 436 617 392 617 q 624 560 564 617 q 685 382 685 503 l 685 86 l 801 86 l 801 0 l 514 0 l 514 86 l 576 86 l 576 360 q 542 488 576 449 q 429 528 507 528 q 334 515 383 528 q 254 481 285 501 l 254 86 l 317 86 l 317 0 l 29 0 l 29 86 z "},"ħ":{"ha":833,"x_min":14,"x_max":801,"o":"m 801 86 l 801 0 l 514 0 l 514 86 l 576 86 l 576 339 q 542 467 576 428 q 429 507 507 507 q 334 494 383 507 q 254 460 285 481 l 254 86 l 317 86 l 317 0 l 29 0 l 29 86 l 146 86 l 146 646 l 21 646 l 21 729 l 146 729 l 146 771 l 14 817 l 43 903 l 254 831 l 254 729 l 447 729 l 447 646 l 254 646 l 254 538 q 344 581 297 565 q 436 596 392 596 q 624 539 564 596 q 685 361 685 482 l 685 86 l 801 86 z "},"ḫ":{"ha":833,"x_min":14,"x_max":801,"o":"m 29 86 l 146 86 l 146 771 l 14 817 l 43 903 l 254 831 l 254 558 q 344 601 297 586 q 436 617 392 617 q 624 560 564 617 q 685 382 685 503 l 685 86 l 801 86 l 801 0 l 514 0 l 514 86 l 576 86 l 576 360 q 542 488 576 449 q 429 528 507 528 q 334 515 383 528 q 254 481 285 501 l 254 86 l 317 86 l 317 0 l 29 0 l 29 86 m 411 -250 q 266 -208 321 -250 q 194 -83 211 -165 l 285 -67 q 411 -161 300 -161 q 539 -67 526 -161 l 629 -83 q 557 -208 613 -165 q 411 -250 501 -250 z "},"ĥ":{"ha":833,"x_min":-82,"x_max":801,"o":"m 29 86 l 146 86 l 146 771 l 14 817 l 43 903 l 254 831 l 254 558 q 344 601 297 586 q 436 617 392 617 q 624 560 564 617 q 685 382 685 503 l 685 86 l 801 86 l 801 0 l 514 0 l 514 86 l 576 86 l 576 360 q 542 488 576 449 q 429 528 507 528 q 334 515 383 528 q 254 481 285 501 l 254 86 l 317 86 l 317 0 l 29 0 l 29 86 m 156 1086 l 393 951 l 368 907 l 156 985 l -57 907 l -82 951 l 156 1086 z "},"ḥ":{"ha":833,"x_min":14,"x_max":801,"o":"m 29 86 l 146 86 l 146 771 l 14 817 l 43 903 l 254 831 l 254 558 q 344 601 297 586 q 436 617 392 617 q 624 560 564 617 q 685 382 685 503 l 685 86 l 801 86 l 801 0 l 514 0 l 514 86 l 576 86 l 576 360 q 542 488 576 449 q 429 528 507 528 q 334 515 383 528 q 254 481 285 501 l 254 86 l 317 86 l 317 0 l 29 0 l 29 86 m 411 -81 q 474 -104 450 -81 q 497 -167 497 -128 q 474 -229 497 -206 q 411 -253 450 -253 q 349 -229 372 -253 q 326 -167 326 -206 q 349 -104 326 -128 q 411 -81 372 -81 z "},"i":{"ha":422,"x_min":50,"x_max":390,"o":"m 50 596 l 275 596 l 275 86 l 390 86 l 390 0 l 50 0 l 50 86 l 165 86 l 165 510 l 50 510 l 50 596 m 206 892 q 268 868 244 892 q 292 806 292 844 q 268 743 292 767 q 206 719 244 719 q 144 743 167 719 q 121 806 121 767 q 144 868 121 844 q 206 892 167 892 z "},"ı":{"ha":422,"x_min":50,"x_max":390,"o":"m 50 596 l 275 596 l 275 86 l 390 86 l 390 0 l 50 0 l 50 86 l 165 86 l 165 510 l 50 510 l 50 596 z "},"í":{"ha":422,"x_min":50,"x_max":390,"o":"m 50 596 l 275 596 l 275 86 l 390 86 l 390 0 l 50 0 l 50 86 l 165 86 l 165 510 l 50 510 l 50 596 m 306 961 l 388 900 l 182 672 l 131 711 l 306 961 z "},"ĭ":{"ha":422,"x_min":17,"x_max":396,"o":"m 50 596 l 275 596 l 275 86 l 390 86 l 390 0 l 50 0 l 50 86 l 165 86 l 165 510 l 50 510 l 50 596 m 206 681 q 79 723 128 681 q 17 847 31 765 l 107 864 q 138 793 113 817 q 206 769 163 769 q 306 864 297 769 l 396 847 q 333 723 382 765 q 206 681 285 681 z "},"î":{"ha":422,"x_min":-3,"x_max":417,"o":"m 50 596 l 275 596 l 275 86 l 390 86 l 390 0 l 50 0 l 50 86 l 165 86 l 165 510 l 50 510 l 50 596 m 210 875 l 417 738 l 385 676 l 210 767 l 35 679 l -3 738 l 210 875 z "},"ȉ":{"ha":422,"x_min":-114,"x_max":390,"o":"m 50 596 l 275 596 l 275 86 l 390 86 l 390 0 l 50 0 l 50 86 l 165 86 l 165 510 l 50 510 l 50 596 m 186 961 l 361 711 l 310 672 l 104 900 l 186 961 m -46 933 l 172 719 l 129 672 l -114 858 l -46 933 z "},"ï":{"ha":422,"x_min":6,"x_max":408,"o":"m 50 596 l 275 596 l 275 86 l 390 86 l 390 0 l 50 0 l 50 86 l 165 86 l 165 510 l 50 510 l 50 596 m 83 860 q 138 837 114 860 q 161 782 161 814 q 138 727 161 750 q 83 704 115 704 q 28 727 51 704 q 6 782 6 750 q 28 837 6 814 q 83 860 51 860 m 331 860 q 385 837 361 860 q 408 782 408 814 q 385 727 408 750 q 331 704 363 704 q 276 727 299 704 q 253 782 253 750 q 276 837 253 814 q 331 860 299 860 z "},"ḯ":{"ha":422,"x_min":6,"x_max":408,"o":"m 50 596 l 275 596 l 275 86 l 390 86 l 390 0 l 50 0 l 50 86 l 165 86 l 165 510 l 50 510 l 50 596 m 83 860 q 138 837 114 860 q 161 782 161 814 q 138 727 161 750 q 83 704 115 704 q 28 727 51 704 q 6 782 6 750 q 28 837 6 814 q 83 860 51 860 m 331 860 q 385 837 361 860 q 408 782 408 814 q 385 727 408 750 q 331 704 363 704 q 276 727 299 704 q 253 782 253 750 q 276 837 253 814 q 331 860 299 860 m 306 1142 l 388 1081 l 182 853 l 131 892 l 306 1142 z "},"ị":{"ha":422,"x_min":50,"x_max":390,"o":"m 50 596 l 275 596 l 275 86 l 390 86 l 390 0 l 50 0 l 50 86 l 165 86 l 165 510 l 50 510 l 50 596 m 206 892 q 268 868 244 892 q 292 806 292 844 q 268 743 292 767 q 206 719 244 719 q 144 743 167 719 q 121 806 121 767 q 144 868 121 844 q 206 892 167 892 m 247 -81 q 310 -104 286 -81 q 333 -167 333 -128 q 310 -229 333 -206 q 247 -253 286 -253 q 185 -229 208 -253 q 163 -167 163 -206 q 185 -104 163 -128 q 247 -81 208 -81 z "},"ì":{"ha":422,"x_min":-7,"x_max":390,"o":"m 50 596 l 275 596 l 275 86 l 390 86 l 390 0 l 50 0 l 50 86 l 165 86 l 165 510 l 50 510 l 50 596 m 199 672 l -7 900 l 75 961 l 250 711 l 199 672 z "},"ỉ":{"ha":422,"x_min":50,"x_max":390,"o":"m 50 596 l 275 596 l 275 86 l 390 86 l 390 0 l 50 0 l 50 86 l 165 86 l 165 510 l 50 510 l 50 596 m 186 714 q 219 753 207 731 q 232 797 232 776 q 222 828 232 817 q 190 839 211 839 q 125 803 156 839 l 76 858 q 136 906 101 889 q 207 922 171 922 q 289 892 256 922 q 322 807 322 861 q 221 671 322 740 l 186 714 z "},"ȋ":{"ha":422,"x_min":24,"x_max":390,"o":"m 50 596 l 275 596 l 275 86 l 390 86 l 390 0 l 50 0 l 50 86 l 165 86 l 165 510 l 50 510 l 50 596 m 206 878 q 331 835 283 878 q 389 711 378 793 l 310 694 q 206 789 301 789 q 133 765 160 789 q 103 694 107 742 l 24 711 q 81 835 35 793 q 206 878 128 878 z "},"ī":{"ha":422,"x_min":40,"x_max":390,"o":"m 50 596 l 275 596 l 275 86 l 390 86 l 390 0 l 50 0 l 50 86 l 165 86 l 165 510 l 50 510 l 50 596 m 40 818 l 372 818 l 372 736 l 40 736 l 40 818 z "},"į":{"ha":422,"x_min":50,"x_max":390,"o":"m 206 719 q 144 743 167 719 q 121 806 121 767 q 144 868 121 844 q 206 892 167 892 q 268 868 244 892 q 292 806 292 844 q 268 743 292 767 q 206 719 244 719 m 297 0 q 217 -66 243 -31 q 192 -144 192 -101 q 213 -191 192 -175 q 275 -207 235 -207 q 343 -194 308 -207 l 343 -279 q 232 -307 288 -307 q 122 -272 168 -307 q 76 -179 76 -237 q 110 -78 76 -122 q 213 0 143 -35 l 50 0 l 50 86 l 165 86 l 165 510 l 50 510 l 50 596 l 275 596 l 275 86 l 390 86 l 390 0 l 297 0 z "},"ĩ":{"ha":422,"x_min":35,"x_max":415,"o":"m 50 596 l 275 596 l 275 86 l 390 86 l 390 0 l 50 0 l 50 86 l 165 86 l 165 510 l 50 510 l 50 596 m 35 763 q 101 807 75 794 q 164 819 126 819 q 206 811 188 819 q 249 788 224 803 q 280 769 267 775 q 307 764 293 764 q 340 773 326 764 q 386 810 354 782 l 415 732 q 358 685 383 697 q 297 672 332 672 q 265 679 281 672 q 229 701 250 686 q 194 722 210 715 q 163 729 178 729 q 124 723 140 729 q 90 706 108 717 q 63 690 71 696 l 35 763 z "},"j":{"ha":353,"x_min":-64,"x_max":275,"o":"m 257 -43 q 244 -176 257 -122 q 175 -270 231 -231 q 4 -310 119 -310 q -32 -308 -8 -310 q -64 -304 -56 -306 l -50 -219 q 8 -222 -14 -222 q 108 -197 78 -222 q 144 -140 139 -171 q 149 -51 149 -108 l 149 510 l 32 510 l 32 596 l 257 596 l 257 -43 m 189 892 q 251 868 228 892 q 275 806 275 844 q 251 743 275 767 q 189 719 228 719 q 127 743 150 719 q 104 806 104 767 q 127 868 104 844 q 189 892 150 892 z "},"ȷ":{"ha":353,"x_min":-64,"x_max":257,"o":"m 257 -43 q 244 -176 257 -122 q 175 -270 231 -231 q 4 -310 119 -310 q -32 -308 -8 -310 q -64 -304 -56 -306 l -50 -219 q 8 -222 -14 -222 q 108 -197 78 -222 q 144 -140 139 -171 q 149 -51 149 -108 l 149 510 l 32 510 l 32 596 l 257 596 l 257 -43 z "},"ĵ":{"ha":353,"x_min":-64,"x_max":400,"o":"m 257 -43 q 244 -176 257 -122 q 175 -270 231 -231 q 4 -310 119 -310 q -32 -308 -8 -310 q -64 -304 -56 -306 l -50 -219 q 8 -222 -14 -222 q 108 -197 78 -222 q 144 -140 139 -171 q 149 -51 149 -108 l 149 510 l 32 510 l 32 596 l 257 596 l 257 -43 m 193 875 l 400 738 l 368 676 l 193 767 l 18 679 l -19 738 l 193 875 z "},"k":{"ha":765,"x_min":17,"x_max":721,"o":"m 46 904 l 257 832 l 257 346 l 383 346 l 479 510 l 407 510 l 407 596 l 699 596 l 699 510 l 582 510 l 467 311 l 601 86 l 721 86 l 721 0 l 536 0 l 379 260 l 257 260 l 257 86 l 319 86 l 319 0 l 32 0 l 32 86 l 149 86 l 149 772 l 17 818 l 46 904 z "},"ķ":{"ha":765,"x_min":17,"x_max":721,"o":"m 46 904 l 257 832 l 257 346 l 383 346 l 479 510 l 407 510 l 407 596 l 699 596 l 699 510 l 582 510 l 467 311 l 601 86 l 721 86 l 721 0 l 536 0 l 379 260 l 257 260 l 257 86 l 319 86 l 319 0 l 32 0 l 32 86 l 149 86 l 149 772 l 17 818 l 46 904 m 349 -376 q 377 -332 356 -367 q 413 -265 399 -297 q 356 -240 378 -262 q 335 -185 335 -217 q 360 -123 335 -147 q 425 -99 386 -99 q 491 -126 463 -99 q 519 -193 519 -154 q 492 -290 519 -240 q 431 -381 465 -340 q 397 -418 397 -421 l 349 -376 z "},"ĸ":{"ha":792,"x_min":58,"x_max":747,"o":"m 58 596 l 346 596 l 346 510 l 283 510 l 283 338 l 410 338 l 518 510 l 447 510 l 447 596 l 739 596 l 739 510 l 622 510 l 493 303 l 628 86 l 747 86 l 747 0 l 560 0 l 404 251 l 283 251 l 283 86 l 346 86 l 346 0 l 58 0 l 58 86 l 175 86 l 175 510 l 58 510 l 58 596 z "},"l":{"ha":406,"x_min":10,"x_max":374,"o":"m 32 0 l 32 86 l 149 86 l 149 786 l 10 817 l 33 906 l 257 854 l 257 86 l 374 86 l 374 0 l 32 0 z "},"ĺ":{"ha":406,"x_min":10,"x_max":421,"o":"m 32 0 l 32 86 l 149 86 l 149 786 l 10 817 l 33 906 l 257 854 l 257 86 l 374 86 l 374 0 l 32 0 m 396 1117 l 421 1015 l 71 950 l 58 1000 l 396 1117 z "},"ľ":{"ha":406,"x_min":-25,"x_max":394,"o":"m 0 1029 l 185 938 l 369 1029 l 394 985 l 185 836 l -25 985 l 0 1029 m 32 0 l 32 86 l 149 86 l 149 689 l 10 719 l 33 808 l 257 757 l 257 86 l 374 86 l 374 0 l 32 0 z "},"ļ":{"ha":406,"x_min":10,"x_max":374,"o":"m 32 0 l 32 86 l 149 86 l 149 786 l 10 817 l 33 906 l 257 854 l 257 86 l 374 86 l 374 0 l 32 0 m 124 -376 q 152 -332 131 -367 q 188 -265 174 -297 q 131 -240 153 -262 q 110 -185 110 -217 q 135 -123 110 -147 q 200 -99 161 -99 q 266 -126 238 -99 q 294 -193 294 -154 q 267 -290 294 -240 q 206 -381 240 -340 q 172 -418 172 -421 l 124 -376 z "},"ŀ":{"ha":503,"x_min":10,"x_max":475,"o":"m 32 0 l 32 86 l 149 86 l 149 786 l 10 817 l 33 906 l 257 854 l 257 86 l 374 86 l 374 0 l 32 0 m 390 492 q 450 466 425 492 q 475 406 475 440 q 450 345 475 371 q 390 319 425 319 q 330 345 356 319 q 304 406 304 371 q 330 467 304 442 q 390 492 356 492 z "},"ḷ":{"ha":406,"x_min":10,"x_max":374,"o":"m 32 0 l 32 86 l 149 86 l 149 786 l 10 817 l 33 906 l 257 854 l 257 86 l 374 86 l 374 0 l 32 0 m 201 -81 q 264 -104 240 -81 q 288 -167 288 -128 q 264 -229 288 -206 q 201 -253 240 -253 q 140 -229 163 -253 q 117 -167 117 -206 q 140 -104 117 -128 q 201 -81 163 -81 z "},"ḻ":{"ha":406,"x_min":-11,"x_max":415,"o":"m 32 0 l 32 86 l 149 86 l 149 786 l 10 817 l 33 906 l 257 854 l 257 86 l 374 86 l 374 0 l 32 0 m -11 -56 l 415 -56 l 415 -142 l -11 -142 l -11 -56 z "},"ł":{"ha":406,"x_min":10,"x_max":374,"o":"m 257 86 l 374 86 l 374 0 l 32 0 l 32 86 l 149 86 l 149 349 l 51 265 l 51 365 l 149 449 l 149 786 l 10 817 l 33 906 l 257 854 l 257 542 l 361 631 l 361 531 l 257 442 l 257 86 z "},"m":{"ha":1226,"x_min":42,"x_max":1194,"o":"m 58 86 l 175 86 l 175 485 l 42 531 l 71 617 l 254 553 q 344 599 293 582 q 442 617 394 617 q 642 544 582 617 q 731 597 676 576 q 839 617 786 617 q 1022 561 965 617 q 1078 382 1078 506 l 1078 86 l 1194 86 l 1194 0 l 907 0 l 907 86 l 969 86 l 969 360 q 938 490 969 451 q 832 528 907 528 q 745 515 788 528 q 681 481 703 501 l 681 86 l 743 86 l 743 0 l 510 0 l 510 86 l 572 86 l 572 360 q 541 490 572 451 q 435 528 510 528 q 348 515 390 528 q 283 481 306 501 l 283 86 l 346 86 l 346 0 l 58 0 l 58 86 z "},"ṃ":{"ha":1226,"x_min":42,"x_max":1194,"o":"m 58 86 l 175 86 l 175 485 l 42 531 l 71 617 l 254 553 q 344 599 293 582 q 442 617 394 617 q 642 544 582 617 q 731 597 676 576 q 839 617 786 617 q 1022 561 965 617 q 1078 382 1078 506 l 1078 86 l 1194 86 l 1194 0 l 907 0 l 907 86 l 969 86 l 969 360 q 938 490 969 451 q 832 528 907 528 q 745 515 788 528 q 681 481 703 501 l 681 86 l 743 86 l 743 0 l 510 0 l 510 86 l 572 86 l 572 360 q 541 490 572 451 q 435 528 510 528 q 348 515 390 528 q 283 481 306 501 l 283 86 l 346 86 l 346 0 l 58 0 l 58 86 m 607 -81 q 669 -104 646 -81 q 693 -167 693 -128 q 669 -229 693 -206 q 607 -253 646 -253 q 545 -229 568 -253 q 522 -167 522 -206 q 545 -104 522 -128 q 607 -81 568 -81 z "},"n":{"ha":863,"x_min":42,"x_max":831,"o":"m 58 86 l 175 86 l 175 485 l 42 531 l 71 617 l 256 553 q 467 617 353 617 q 643 556 572 617 q 714 382 714 494 l 714 86 l 831 86 l 831 0 l 543 0 l 543 86 l 606 86 l 606 360 q 563 486 606 444 q 449 528 519 528 q 283 481 369 528 l 283 86 l 346 86 l 346 0 l 58 0 l 58 86 z "},"ń":{"ha":863,"x_min":42,"x_max":831,"o":"m 58 86 l 175 86 l 175 485 l 42 531 l 71 617 l 256 553 q 467 617 353 617 q 643 556 572 617 q 714 382 714 494 l 714 86 l 831 86 l 831 0 l 543 0 l 543 86 l 606 86 l 606 360 q 563 486 606 444 q 449 528 519 528 q 283 481 369 528 l 283 86 l 346 86 l 346 0 l 58 0 l 58 86 m 524 961 l 606 900 l 400 672 l 349 711 l 524 961 z "},"ň":{"ha":863,"x_min":42,"x_max":831,"o":"m 58 86 l 175 86 l 175 485 l 42 531 l 71 617 l 256 553 q 467 617 353 617 q 643 556 572 617 q 714 382 714 494 l 714 86 l 831 86 l 831 0 l 543 0 l 543 86 l 606 86 l 606 360 q 563 486 606 444 q 449 528 519 528 q 283 481 369 528 l 283 86 l 346 86 l 346 0 l 58 0 l 58 86 m 428 661 l 215 799 l 253 857 l 428 769 l 603 860 l 635 799 l 428 661 z "},"ņ":{"ha":863,"x_min":42,"x_max":831,"o":"m 58 86 l 175 86 l 175 485 l 42 531 l 71 617 l 256 553 q 467 617 353 617 q 643 556 572 617 q 714 382 714 494 l 714 86 l 831 86 l 831 0 l 543 0 l 543 86 l 606 86 l 606 360 q 563 486 606 444 q 449 528 519 528 q 283 481 369 528 l 283 86 l 346 86 l 346 0 l 58 0 l 58 86 m 346 -376 q 374 -332 353 -367 q 410 -265 396 -297 q 353 -240 375 -262 q 332 -185 332 -217 q 358 -123 332 -147 q 422 -99 383 -99 q 488 -126 460 -99 q 517 -193 517 -154 q 490 -290 517 -240 q 428 -381 463 -340 q 394 -418 394 -421 l 346 -376 z "},"ṅ":{"ha":863,"x_min":42,"x_max":831,"o":"m 58 86 l 175 86 l 175 485 l 42 531 l 71 617 l 256 553 q 467 617 353 617 q 643 556 572 617 q 714 382 714 494 l 714 86 l 831 86 l 831 0 l 543 0 l 543 86 l 606 86 l 606 360 q 563 486 606 444 q 449 528 519 528 q 283 481 369 528 l 283 86 l 346 86 l 346 0 l 58 0 l 58 86 m 424 892 q 486 868 463 892 q 510 806 510 844 q 486 743 510 767 q 424 719 463 719 q 362 743 385 719 q 339 806 339 767 q 362 868 339 844 q 424 892 385 892 z "},"ṇ":{"ha":863,"x_min":42,"x_max":831,"o":"m 58 86 l 175 86 l 175 485 l 42 531 l 71 617 l 256 553 q 467 617 353 617 q 643 556 572 617 q 714 382 714 494 l 714 86 l 831 86 l 831 0 l 543 0 l 543 86 l 606 86 l 606 360 q 563 486 606 444 q 449 528 519 528 q 283 481 369 528 l 283 86 l 346 86 l 346 0 l 58 0 l 58 86 m 424 -81 q 486 -104 463 -81 q 510 -167 510 -128 q 486 -229 510 -206 q 424 -253 463 -253 q 362 -229 385 -253 q 339 -167 339 -206 q 362 -104 339 -128 q 424 -81 385 -81 z "},"ŋ":{"ha":783,"x_min":42,"x_max":714,"o":"m 467 617 q 646 552 578 617 q 714 382 714 488 l 714 29 q 653 -222 714 -133 q 482 -310 593 -310 q 315 -271 407 -310 l 340 -185 q 465 -211 415 -211 q 571 -160 536 -211 q 606 1 606 -108 l 606 360 q 565 484 606 440 q 449 528 524 528 q 283 481 369 528 l 283 86 l 346 86 l 346 0 l 58 0 l 58 86 l 175 86 l 175 485 l 42 531 l 71 617 l 256 553 q 467 617 351 617 z "},"ṉ":{"ha":863,"x_min":42,"x_max":831,"o":"m 58 86 l 175 86 l 175 485 l 42 531 l 71 617 l 256 553 q 467 617 353 617 q 643 556 572 617 q 714 382 714 494 l 714 86 l 831 86 l 831 0 l 543 0 l 543 86 l 606 86 l 606 360 q 563 486 606 444 q 449 528 519 528 q 283 481 369 528 l 283 86 l 346 86 l 346 0 l 58 0 l 58 86 m 211 -56 l 638 -56 l 638 -142 l 211 -142 l 211 -56 z "},"ñ":{"ha":863,"x_min":42,"x_max":831,"o":"m 58 86 l 175 86 l 175 485 l 42 531 l 71 617 l 256 553 q 467 617 353 617 q 643 556 572 617 q 714 382 714 494 l 714 86 l 831 86 l 831 0 l 543 0 l 543 86 l 606 86 l 606 360 q 563 486 606 444 q 449 528 519 528 q 283 481 369 528 l 283 86 l 346 86 l 346 0 l 58 0 l 58 86 m 229 763 q 308 807 278 794 q 382 819 339 819 q 435 812 413 819 q 488 788 457 804 q 524 769 508 775 q 556 764 539 764 q 592 772 576 764 q 646 810 607 781 l 679 732 q 610 685 639 697 q 549 672 582 672 q 509 680 528 672 q 465 701 490 688 q 423 722 442 715 q 386 729 404 729 q 335 723 356 729 q 291 706 314 717 q 258 690 268 694 l 229 763 z "},"o":{"ha":724,"x_min":57,"x_max":668,"o":"m 360 617 q 522 578 451 617 q 630 467 592 539 q 668 297 668 396 q 584 65 668 150 q 360 -21 500 -21 q 202 17 271 -21 q 95 128 133 56 q 57 297 57 200 q 95 467 57 394 q 202 578 133 539 q 360 617 271 617 m 361 528 q 217 468 267 528 q 168 297 168 408 q 217 127 168 186 q 361 68 267 68 q 508 127 458 68 q 557 297 557 186 q 508 468 557 408 q 361 528 458 528 z "},"ó":{"ha":724,"x_min":57,"x_max":668,"o":"m 360 617 q 522 578 451 617 q 630 467 592 539 q 668 297 668 396 q 584 65 668 150 q 360 -21 500 -21 q 202 17 271 -21 q 95 128 133 56 q 57 297 57 200 q 95 467 57 394 q 202 578 133 539 q 360 617 271 617 m 361 528 q 217 468 267 528 q 168 297 168 408 q 217 127 168 186 q 361 68 267 68 q 508 127 458 68 q 557 297 557 186 q 508 468 557 408 q 361 528 458 528 m 461 961 l 543 900 l 338 672 l 286 711 l 461 961 z "},"ŏ":{"ha":724,"x_min":57,"x_max":668,"o":"m 360 617 q 522 578 451 617 q 630 467 592 539 q 668 297 668 396 q 584 65 668 150 q 360 -21 500 -21 q 202 17 271 -21 q 95 128 133 56 q 57 297 57 200 q 95 467 57 394 q 202 578 133 539 q 360 617 271 617 m 361 528 q 217 468 267 528 q 168 297 168 408 q 217 127 168 186 q 361 68 267 68 q 508 127 458 68 q 557 297 557 186 q 508 468 557 408 q 361 528 458 528 m 361 681 q 216 723 271 681 q 144 847 161 765 l 235 864 q 361 769 250 769 q 489 864 476 769 l 579 847 q 507 723 563 765 q 361 681 451 681 z "},"ô":{"ha":724,"x_min":57,"x_max":668,"o":"m 360 617 q 522 578 451 617 q 630 467 592 539 q 668 297 668 396 q 584 65 668 150 q 360 -21 500 -21 q 202 17 271 -21 q 95 128 133 56 q 57 297 57 200 q 95 467 57 394 q 202 578 133 539 q 360 617 271 617 m 361 528 q 217 468 267 528 q 168 297 168 408 q 217 127 168 186 q 361 68 267 68 q 508 127 458 68 q 557 297 557 186 q 508 468 557 408 q 361 528 458 528 m 365 875 l 572 738 l 540 676 l 365 767 l 190 679 l 153 738 l 365 875 z "},"ố":{"ha":724,"x_min":57,"x_max":668,"o":"m 360 617 q 522 578 451 617 q 630 467 592 539 q 668 297 668 396 q 584 65 668 150 q 360 -21 500 -21 q 202 17 271 -21 q 95 128 133 56 q 57 297 57 200 q 95 467 57 394 q 202 578 133 539 q 360 617 271 617 m 361 528 q 217 468 267 528 q 168 297 168 408 q 217 127 168 186 q 361 68 267 68 q 508 127 458 68 q 557 297 557 186 q 508 468 557 408 q 361 528 458 528 m 561 1054 l 643 993 l 490 831 l 439 869 l 561 1054 m 365 875 l 572 738 l 540 676 l 365 767 l 190 679 l 153 738 l 365 875 z "},"ộ":{"ha":724,"x_min":57,"x_max":668,"o":"m 360 617 q 522 578 451 617 q 630 467 592 539 q 668 297 668 396 q 584 65 668 150 q 360 -21 500 -21 q 202 17 271 -21 q 95 128 133 56 q 57 297 57 200 q 95 467 57 394 q 202 578 133 539 q 360 617 271 617 m 361 528 q 217 468 267 528 q 168 297 168 408 q 217 127 168 186 q 361 68 267 68 q 508 127 458 68 q 557 297 557 186 q 508 468 557 408 q 361 528 458 528 m 361 -81 q 424 -104 400 -81 q 447 -167 447 -128 q 424 -229 447 -206 q 361 -253 400 -253 q 299 -229 322 -253 q 276 -167 276 -206 q 299 -104 276 -128 q 361 -81 322 -81 m 365 875 l 572 738 l 540 676 l 365 767 l 190 679 l 153 738 l 365 875 z "},"ồ":{"ha":724,"x_min":57,"x_max":668,"o":"m 360 617 q 522 578 451 617 q 630 467 592 539 q 668 297 668 396 q 584 65 668 150 q 360 -21 500 -21 q 202 17 271 -21 q 95 128 133 56 q 57 297 57 200 q 95 467 57 394 q 202 578 133 539 q 360 617 271 617 m 361 528 q 217 468 267 528 q 168 297 168 408 q 217 127 168 186 q 361 68 267 68 q 508 127 458 68 q 557 297 557 186 q 508 468 557 408 q 361 528 458 528 m 507 831 l 353 992 l 435 1053 l 558 869 l 507 831 m 365 875 l 572 738 l 540 676 l 365 767 l 190 679 l 153 738 l 365 875 z "},"ổ":{"ha":724,"x_min":57,"x_max":668,"o":"m 360 617 q 522 578 451 617 q 630 467 592 539 q 668 297 668 396 q 584 65 668 150 q 360 -21 500 -21 q 202 17 271 -21 q 95 128 133 56 q 57 297 57 200 q 95 467 57 394 q 202 578 133 539 q 360 617 271 617 m 361 528 q 217 468 267 528 q 168 297 168 408 q 217 127 168 186 q 361 68 267 68 q 508 127 458 68 q 557 297 557 186 q 508 468 557 408 q 361 528 458 528 m 365 875 l 572 738 l 540 676 l 365 767 l 190 679 l 153 738 l 365 875 m 494 858 q 528 898 515 875 q 540 942 540 921 q 530 972 540 961 q 499 983 519 983 q 433 947 464 983 l 385 1003 q 444 1050 410 1033 q 515 1067 479 1067 q 597 1036 564 1067 q 631 951 631 1006 q 529 815 631 885 l 494 858 z "},"ỗ":{"ha":724,"x_min":57,"x_max":668,"o":"m 360 617 q 522 578 451 617 q 630 467 592 539 q 668 297 668 396 q 584 65 668 150 q 360 -21 500 -21 q 202 17 271 -21 q 95 128 133 56 q 57 297 57 200 q 95 467 57 394 q 202 578 133 539 q 360 617 271 617 m 361 528 q 217 468 267 528 q 168 297 168 408 q 217 127 168 186 q 361 68 267 68 q 508 127 458 68 q 557 297 557 186 q 508 468 557 408 q 361 528 458 528 m 153 985 q 232 1029 201 1017 q 306 1042 263 1042 q 358 1034 336 1042 q 411 1010 381 1026 q 447 992 432 997 q 479 986 463 986 q 515 994 500 986 q 569 1032 531 1003 l 596 958 q 527 911 556 924 q 465 899 499 899 q 426 906 444 899 q 382 928 407 914 q 340 949 358 942 q 303 956 321 956 q 251 949 272 956 q 208 932 231 943 q 175 917 185 921 l 153 985 m 365 875 l 572 738 l 540 676 l 365 767 l 190 679 l 153 738 l 365 875 z "},"ȍ":{"ha":724,"x_min":42,"x_max":668,"o":"m 360 617 q 522 578 451 617 q 630 467 592 539 q 668 297 668 396 q 584 65 668 150 q 360 -21 500 -21 q 202 17 271 -21 q 95 128 133 56 q 57 297 57 200 q 95 467 57 394 q 202 578 133 539 q 360 617 271 617 m 361 528 q 217 468 267 528 q 168 297 168 408 q 217 127 168 186 q 361 68 267 68 q 508 127 458 68 q 557 297 557 186 q 508 468 557 408 q 361 528 458 528 m 342 961 l 517 711 l 465 672 l 260 900 l 342 961 m 110 933 l 328 719 l 285 672 l 42 858 l 110 933 z "},"ö":{"ha":724,"x_min":57,"x_max":668,"o":"m 360 617 q 522 578 451 617 q 630 467 592 539 q 668 297 668 396 q 584 65 668 150 q 360 -21 500 -21 q 202 17 271 -21 q 95 128 133 56 q 57 297 57 200 q 95 467 57 394 q 202 578 133 539 q 360 617 271 617 m 361 528 q 217 468 267 528 q 168 297 168 408 q 217 127 168 186 q 361 68 267 68 q 508 127 458 68 q 557 297 557 186 q 508 468 557 408 q 361 528 458 528 m 239 860 q 293 837 269 860 q 317 782 317 814 q 294 727 317 750 q 239 704 271 704 q 184 727 207 704 q 161 782 161 750 q 184 837 161 814 q 239 860 207 860 m 486 860 q 540 837 517 860 q 564 782 564 814 q 541 727 564 750 q 486 704 518 704 q 431 727 454 704 q 408 782 408 750 q 431 837 408 814 q 486 860 454 860 z "},"ȫ":{"ha":724,"x_min":57,"x_max":668,"o":"m 360 617 q 522 578 451 617 q 630 467 592 539 q 668 297 668 396 q 584 65 668 150 q 360 -21 500 -21 q 202 17 271 -21 q 95 128 133 56 q 57 297 57 200 q 95 467 57 394 q 202 578 133 539 q 360 617 271 617 m 361 528 q 217 468 267 528 q 168 297 168 408 q 217 127 168 186 q 361 68 267 68 q 508 127 458 68 q 557 297 557 186 q 508 468 557 408 q 361 528 458 528 m 239 860 q 293 837 269 860 q 317 782 317 814 q 294 727 317 750 q 239 704 271 704 q 184 727 207 704 q 161 782 161 750 q 184 837 161 814 q 239 860 207 860 m 486 860 q 540 837 517 860 q 564 782 564 814 q 541 727 564 750 q 486 704 518 704 q 431 727 454 704 q 408 782 408 750 q 431 837 408 814 q 486 860 454 860 m 154 999 l 569 999 l 569 917 l 154 917 l 154 999 z "},"ȱ":{"ha":724,"x_min":57,"x_max":668,"o":"m 360 617 q 522 578 451 617 q 630 467 592 539 q 668 297 668 396 q 584 65 668 150 q 360 -21 500 -21 q 202 17 271 -21 q 95 128 133 56 q 57 297 57 200 q 95 467 57 394 q 202 578 133 539 q 360 617 271 617 m 361 528 q 217 468 267 528 q 168 297 168 408 q 217 127 168 186 q 361 68 267 68 q 508 127 458 68 q 557 297 557 186 q 508 468 557 408 q 361 528 458 528 m 361 892 q 424 868 400 892 q 447 806 447 844 q 424 743 447 767 q 361 719 400 719 q 299 743 322 719 q 276 806 276 767 q 299 868 276 844 q 361 892 322 892 m 154 1031 l 569 1031 l 569 949 l 154 949 l 154 1031 z "},"ọ":{"ha":724,"x_min":57,"x_max":668,"o":"m 360 617 q 522 578 451 617 q 630 467 592 539 q 668 297 668 396 q 584 65 668 150 q 360 -21 500 -21 q 202 17 271 -21 q 95 128 133 56 q 57 297 57 200 q 95 467 57 394 q 202 578 133 539 q 360 617 271 617 m 361 528 q 217 468 267 528 q 168 297 168 408 q 217 127 168 186 q 361 68 267 68 q 508 127 458 68 q 557 297 557 186 q 508 468 557 408 q 361 528 458 528 m 361 -81 q 424 -104 400 -81 q 447 -167 447 -128 q 424 -229 447 -206 q 361 -253 400 -253 q 299 -229 322 -253 q 276 -167 276 -206 q 299 -104 276 -128 q 361 -81 322 -81 z "},"ò":{"ha":724,"x_min":57,"x_max":668,"o":"m 360 617 q 522 578 451 617 q 630 467 592 539 q 668 297 668 396 q 584 65 668 150 q 360 -21 500 -21 q 202 17 271 -21 q 95 128 133 56 q 57 297 57 200 q 95 467 57 394 q 202 578 133 539 q 360 617 271 617 m 361 528 q 217 468 267 528 q 168 297 168 408 q 217 127 168 186 q 361 68 267 68 q 508 127 458 68 q 557 297 557 186 q 508 468 557 408 q 361 528 458 528 m 354 672 l 149 900 l 231 961 l 406 711 l 354 672 z "},"ỏ":{"ha":724,"x_min":57,"x_max":668,"o":"m 360 617 q 522 578 451 617 q 630 467 592 539 q 668 297 668 396 q 584 65 668 150 q 360 -21 500 -21 q 202 17 271 -21 q 95 128 133 56 q 57 297 57 200 q 95 467 57 394 q 202 578 133 539 q 360 617 271 617 m 361 528 q 217 468 267 528 q 168 297 168 408 q 217 127 168 186 q 361 68 267 68 q 508 127 458 68 q 557 297 557 186 q 508 468 557 408 q 361 528 458 528 m 342 714 q 375 753 363 731 q 388 797 388 776 q 377 828 388 817 q 346 839 367 839 q 281 803 311 839 l 232 858 q 292 906 257 889 q 363 922 326 922 q 444 892 411 922 q 478 807 478 861 q 376 671 478 740 l 342 714 z "},"ơ":{"ha":724,"x_min":57,"x_max":668,"o":"m 582 533 q 646 431 624 490 q 668 297 668 371 q 584 65 668 150 q 360 -21 500 -21 q 202 17 271 -21 q 95 128 133 56 q 57 297 57 200 q 95 467 57 394 q 202 578 133 539 q 360 617 271 617 q 483 596 428 617 q 551 625 528 597 q 575 706 575 653 l 661 706 q 582 533 661 578 m 361 68 q 508 127 458 68 q 557 297 557 186 q 508 468 557 408 q 361 528 458 528 q 217 468 267 528 q 168 297 168 408 q 217 127 168 186 q 361 68 267 68 z "},"ớ":{"ha":724,"x_min":57,"x_max":668,"o":"m 582 533 q 646 431 624 490 q 668 297 668 371 q 584 65 668 150 q 360 -21 500 -21 q 202 17 271 -21 q 95 128 133 56 q 57 297 57 200 q 95 467 57 394 q 202 578 133 539 q 360 617 271 617 q 483 596 428 617 q 551 625 528 597 q 575 706 575 653 l 661 706 q 582 533 661 578 m 361 68 q 508 127 458 68 q 557 297 557 186 q 508 468 557 408 q 361 528 458 528 q 217 468 267 528 q 168 297 168 408 q 217 127 168 186 q 361 68 267 68 m 461 961 l 543 900 l 338 672 l 286 711 l 461 961 z "},"ợ":{"ha":724,"x_min":57,"x_max":668,"o":"m 582 533 q 646 431 624 490 q 668 297 668 371 q 584 65 668 150 q 360 -21 500 -21 q 202 17 271 -21 q 95 128 133 56 q 57 297 57 200 q 95 467 57 394 q 202 578 133 539 q 360 617 271 617 q 483 596 428 617 q 551 625 528 597 q 575 706 575 653 l 661 706 q 582 533 661 578 m 361 68 q 508 127 458 68 q 557 297 557 186 q 508 468 557 408 q 361 528 458 528 q 217 468 267 528 q 168 297 168 408 q 217 127 168 186 q 361 68 267 68 m 361 -81 q 424 -104 400 -81 q 447 -167 447 -128 q 424 -229 447 -206 q 361 -253 400 -253 q 299 -229 322 -253 q 276 -167 276 -206 q 299 -104 276 -128 q 361 -81 322 -81 z "},"ờ":{"ha":724,"x_min":57,"x_max":668,"o":"m 582 533 q 646 431 624 490 q 668 297 668 371 q 584 65 668 150 q 360 -21 500 -21 q 202 17 271 -21 q 95 128 133 56 q 57 297 57 200 q 95 467 57 394 q 202 578 133 539 q 360 617 271 617 q 483 596 428 617 q 551 625 528 597 q 575 706 575 653 l 661 706 q 582 533 661 578 m 361 68 q 508 127 458 68 q 557 297 557 186 q 508 468 557 408 q 361 528 458 528 q 217 468 267 528 q 168 297 168 408 q 217 127 168 186 q 361 68 267 68 m 354 672 l 149 900 l 231 961 l 406 711 l 354 672 z "},"ở":{"ha":724,"x_min":57,"x_max":668,"o":"m 582 533 q 646 431 624 490 q 668 297 668 371 q 584 65 668 150 q 360 -21 500 -21 q 202 17 271 -21 q 95 128 133 56 q 57 297 57 200 q 95 467 57 394 q 202 578 133 539 q 360 617 271 617 q 483 596 428 617 q 551 625 528 597 q 575 706 575 653 l 661 706 q 582 533 661 578 m 361 68 q 508 127 458 68 q 557 297 557 186 q 508 468 557 408 q 361 528 458 528 q 217 468 267 528 q 168 297 168 408 q 217 127 168 186 q 361 68 267 68 m 342 714 q 375 753 363 731 q 388 797 388 776 q 377 828 388 817 q 346 839 367 839 q 281 803 311 839 l 232 858 q 292 906 257 889 q 363 922 326 922 q 444 892 411 922 q 478 807 478 861 q 376 671 478 740 l 342 714 z "},"ỡ":{"ha":724,"x_min":57,"x_max":668,"o":"m 582 533 q 646 431 624 490 q 668 297 668 371 q 584 65 668 150 q 360 -21 500 -21 q 202 17 271 -21 q 95 128 133 56 q 57 297 57 200 q 95 467 57 394 q 202 578 133 539 q 360 617 271 617 q 483 596 428 617 q 551 624 528 597 q 575 700 574 650 q 530 678 550 685 q 486 672 510 672 q 447 680 465 672 q 403 701 428 688 q 360 722 379 715 q 324 729 342 729 q 272 723 293 729 q 228 706 251 717 q 196 690 206 694 l 167 763 q 246 807 215 794 q 319 819 276 819 q 372 812 350 819 q 425 788 394 804 q 461 769 446 775 q 493 764 476 764 q 529 772 514 764 q 583 810 544 781 l 617 732 q 583 706 601 719 l 661 706 q 582 533 661 578 m 361 68 q 508 127 458 68 q 557 297 557 186 q 508 468 557 408 q 361 528 458 528 q 217 468 267 528 q 168 297 168 408 q 217 127 168 186 q 361 68 267 68 z "},"ő":{"ha":724,"x_min":57,"x_max":692,"o":"m 360 617 q 522 578 451 617 q 630 467 592 539 q 668 297 668 396 q 584 65 668 150 q 360 -21 500 -21 q 202 17 271 -21 q 95 128 133 56 q 57 297 57 200 q 95 467 57 394 q 202 578 133 539 q 360 617 271 617 m 361 528 q 217 468 267 528 q 168 297 168 408 q 217 127 168 186 q 361 68 267 68 q 508 127 458 68 q 557 297 557 186 q 508 468 557 408 q 361 528 458 528 m 392 961 l 474 900 l 268 672 l 217 711 l 392 961 m 624 933 l 692 858 l 449 672 l 406 719 l 624 933 z "},"ȏ":{"ha":724,"x_min":57,"x_max":668,"o":"m 360 617 q 522 578 451 617 q 630 467 592 539 q 668 297 668 396 q 584 65 668 150 q 360 -21 500 -21 q 202 17 271 -21 q 95 128 133 56 q 57 297 57 200 q 95 467 57 394 q 202 578 133 539 q 360 617 271 617 m 361 528 q 217 468 267 528 q 168 297 168 408 q 217 127 168 186 q 361 68 267 68 q 508 127 458 68 q 557 297 557 186 q 508 468 557 408 q 361 528 458 528 m 361 878 q 507 835 451 878 q 579 711 563 793 l 489 694 q 361 789 476 789 q 235 694 250 789 l 144 711 q 216 835 161 793 q 361 878 271 878 z "},"ō":{"ha":724,"x_min":57,"x_max":668,"o":"m 360 617 q 522 578 451 617 q 630 467 592 539 q 668 297 668 396 q 584 65 668 150 q 360 -21 500 -21 q 202 17 271 -21 q 95 128 133 56 q 57 297 57 200 q 95 467 57 394 q 202 578 133 539 q 360 617 271 617 m 361 528 q 217 468 267 528 q 168 297 168 408 q 217 127 168 186 q 361 68 267 68 q 508 127 458 68 q 557 297 557 186 q 508 468 557 408 q 361 528 458 528 m 154 818 l 569 818 l 569 736 l 154 736 l 154 818 z "},"ṓ":{"ha":724,"x_min":57,"x_max":668,"o":"m 360 617 q 522 578 451 617 q 630 467 592 539 q 668 297 668 396 q 584 65 668 150 q 360 -21 500 -21 q 202 17 271 -21 q 95 128 133 56 q 57 297 57 200 q 95 467 57 394 q 202 578 133 539 q 360 617 271 617 m 361 528 q 217 468 267 528 q 168 297 168 408 q 217 127 168 186 q 361 68 267 68 q 508 127 458 68 q 557 297 557 186 q 508 468 557 408 q 361 528 458 528 m 154 818 l 569 818 l 569 736 l 154 736 l 154 818 m 486 1169 l 568 1108 l 363 881 l 311 919 l 486 1169 z "},"ṑ":{"ha":724,"x_min":57,"x_max":668,"o":"m 360 617 q 522 578 451 617 q 630 467 592 539 q 668 297 668 396 q 584 65 668 150 q 360 -21 500 -21 q 202 17 271 -21 q 95 128 133 56 q 57 297 57 200 q 95 467 57 394 q 202 578 133 539 q 360 617 271 617 m 361 528 q 217 468 267 528 q 168 297 168 408 q 217 127 168 186 q 361 68 267 68 q 508 127 458 68 q 557 297 557 186 q 508 468 557 408 q 361 528 458 528 m 154 818 l 569 818 l 569 736 l 154 736 l 154 818 m 379 881 l 174 1108 l 256 1169 l 431 919 l 379 881 z "},"ǫ":{"ha":724,"x_min":57,"x_max":668,"o":"m 442 -112 q 463 -159 442 -143 q 525 -175 485 -175 q 593 -162 558 -175 l 593 -247 q 482 -275 538 -275 q 372 -240 418 -275 q 326 -147 326 -206 q 385 -19 326 -74 q 360 -21 376 -21 q 202 17 271 -21 q 95 128 133 56 q 57 297 57 200 q 95 467 57 394 q 202 578 133 539 q 360 617 271 617 q 522 578 451 617 q 630 467 592 539 q 668 297 668 396 q 636 141 668 208 q 546 33 604 74 l 547 32 q 467 -34 493 1 q 442 -112 442 -69 m 168 297 q 217 127 168 186 q 361 68 267 68 q 508 127 458 68 q 557 297 557 186 q 508 468 557 408 q 361 528 458 528 q 217 468 267 528 q 168 297 168 408 z "},"ø":{"ha":724,"x_min":57,"x_max":668,"o":"m 517 581 q 628 470 589 543 q 668 297 668 397 q 584 65 668 150 q 360 -21 500 -21 q 271 -10 315 -21 l 235 -96 l 165 -96 l 210 13 q 97 124 138 50 q 57 297 57 197 q 95 467 57 394 q 202 578 133 539 q 360 617 271 617 q 456 604 411 617 l 493 693 l 563 693 l 517 581 m 168 297 q 247 100 168 156 l 421 521 q 361 528 390 528 q 217 468 267 528 q 168 297 168 408 m 361 68 q 508 127 458 68 q 557 297 557 186 q 479 494 557 438 l 306 74 q 361 68 328 68 z "},"ǿ":{"ha":724,"x_min":57,"x_max":668,"o":"m 517 581 q 628 470 589 543 q 668 297 668 397 q 584 65 668 150 q 360 -21 500 -21 q 271 -10 315 -21 l 235 -96 l 165 -96 l 210 13 q 97 124 138 50 q 57 297 57 197 q 95 467 57 394 q 202 578 133 539 q 360 617 271 617 q 456 604 411 617 l 493 693 l 563 693 l 517 581 m 168 297 q 247 100 168 156 l 421 521 q 361 528 390 528 q 217 468 267 528 q 168 297 168 408 m 361 68 q 508 127 458 68 q 557 297 557 186 q 479 494 557 438 l 306 74 q 361 68 328 68 m 461 961 l 543 900 l 338 672 l 286 711 l 461 961 z "},"õ":{"ha":724,"x_min":57,"x_max":668,"o":"m 360 617 q 522 578 451 617 q 630 467 592 539 q 668 297 668 396 q 584 65 668 150 q 360 -21 500 -21 q 202 17 271 -21 q 95 128 133 56 q 57 297 57 200 q 95 467 57 394 q 202 578 133 539 q 360 617 271 617 m 361 528 q 217 468 267 528 q 168 297 168 408 q 217 127 168 186 q 361 68 267 68 q 508 127 458 68 q 557 297 557 186 q 508 468 557 408 q 361 528 458 528 m 167 763 q 246 807 215 794 q 319 819 276 819 q 372 812 350 819 q 425 788 394 804 q 461 769 446 775 q 493 764 476 764 q 529 772 514 764 q 583 810 544 781 l 617 732 q 548 685 576 697 q 486 672 519 672 q 447 680 465 672 q 403 701 428 688 q 360 722 379 715 q 324 729 342 729 q 272 723 293 729 q 228 706 251 717 q 196 690 206 694 l 167 763 z "},"ṍ":{"ha":724,"x_min":57,"x_max":668,"o":"m 360 617 q 522 578 451 617 q 630 467 592 539 q 668 297 668 396 q 584 65 668 150 q 360 -21 500 -21 q 202 17 271 -21 q 95 128 133 56 q 57 297 57 200 q 95 467 57 394 q 202 578 133 539 q 360 617 271 617 m 361 528 q 217 468 267 528 q 168 297 168 408 q 217 127 168 186 q 361 68 267 68 q 508 127 458 68 q 557 297 557 186 q 508 468 557 408 q 361 528 458 528 m 167 763 q 246 807 215 794 q 319 819 276 819 q 372 812 350 819 q 425 788 394 804 q 461 769 446 775 q 493 764 476 764 q 529 772 514 764 q 583 810 544 781 l 617 732 q 548 685 576 697 q 486 672 519 672 q 447 680 465 672 q 403 701 428 688 q 360 722 379 715 q 324 729 342 729 q 272 723 293 729 q 228 706 251 717 q 196 690 206 694 l 167 763 m 460 1161 l 542 1100 l 336 872 l 285 911 l 460 1161 z "},"ṏ":{"ha":724,"x_min":57,"x_max":668,"o":"m 360 617 q 522 578 451 617 q 630 467 592 539 q 668 297 668 396 q 584 65 668 150 q 360 -21 500 -21 q 202 17 271 -21 q 95 128 133 56 q 57 297 57 200 q 95 467 57 394 q 202 578 133 539 q 360 617 271 617 m 361 528 q 217 468 267 528 q 168 297 168 408 q 217 127 168 186 q 361 68 267 68 q 508 127 458 68 q 557 297 557 186 q 508 468 557 408 q 361 528 458 528 m 167 763 q 246 807 215 794 q 319 819 276 819 q 372 812 350 819 q 425 788 394 804 q 461 769 446 775 q 493 764 476 764 q 529 772 514 764 q 583 810 544 781 l 617 732 q 548 685 576 697 q 486 672 519 672 q 447 680 465 672 q 403 701 428 688 q 360 722 379 715 q 324 729 342 729 q 272 723 293 729 q 228 706 251 717 q 196 690 206 694 l 167 763 m 238 1060 q 292 1037 268 1060 q 315 982 315 1014 q 292 927 315 950 q 238 904 269 904 q 183 927 206 904 q 160 982 160 950 q 183 1037 160 1014 q 238 1060 206 1060 m 485 1060 q 539 1037 515 1060 q 563 982 563 1014 q 540 927 563 950 q 485 904 517 904 q 430 927 453 904 q 407 982 407 950 q 430 1037 407 1014 q 485 1060 453 1060 z "},"ȭ":{"ha":724,"x_min":57,"x_max":668,"o":"m 360 617 q 522 578 451 617 q 630 467 592 539 q 668 297 668 396 q 584 65 668 150 q 360 -21 500 -21 q 202 17 271 -21 q 95 128 133 56 q 57 297 57 200 q 95 467 57 394 q 202 578 133 539 q 360 617 271 617 m 361 528 q 217 468 267 528 q 168 297 168 408 q 217 127 168 186 q 361 68 267 68 q 508 127 458 68 q 557 297 557 186 q 508 468 557 408 q 361 528 458 528 m 167 763 q 246 807 215 794 q 319 819 276 819 q 372 812 350 819 q 425 788 394 804 q 461 769 446 775 q 493 764 476 764 q 529 772 514 764 q 583 810 544 781 l 617 732 q 548 685 576 697 q 486 672 519 672 q 447 680 465 672 q 403 701 428 688 q 360 722 379 715 q 324 729 342 729 q 272 723 293 729 q 228 706 251 717 q 196 690 206 694 l 167 763 m 153 1018 l 568 1018 l 568 936 l 153 936 l 153 1018 z "},"œ":{"ha":1046,"x_min":56,"x_max":986,"o":"m 986 71 q 951 43 986 67 q 857 -1 915 19 q 724 -21 799 -21 q 535 38 613 -21 q 358 -21 450 -21 q 201 20 269 -21 q 94 136 132 61 q 56 310 56 211 q 96 467 56 397 q 205 577 136 538 q 358 617 274 617 q 551 569 460 617 q 724 617 625 617 q 912 553 839 617 q 985 339 985 489 q 981 272 985 308 l 533 269 q 588 120 539 172 q 725 68 636 68 q 829 83 782 68 q 906 116 876 99 q 936 136 936 133 l 986 71 m 360 528 q 219 467 272 528 q 167 311 167 406 q 217 133 167 199 q 360 68 267 68 q 476 99 421 68 q 421 297 421 178 q 483 507 421 425 q 360 528 426 528 m 886 357 q 844 484 885 440 q 725 528 803 528 q 596 483 644 528 q 535 356 547 438 l 886 357 z "},"p":{"ha":779,"x_min":28,"x_max":724,"o":"m 42 -203 l 158 -203 l 158 489 l 28 532 l 56 621 l 242 557 q 335 601 288 585 q 426 617 383 617 q 644 536 564 617 q 724 317 724 456 q 685 142 724 218 q 578 22 647 65 q 421 -21 510 -21 q 267 3 342 -21 l 267 -203 l 383 -203 l 383 -289 l 42 -289 l 42 -203 m 419 68 q 561 134 510 68 q 613 317 613 200 q 425 528 613 528 q 337 513 382 528 q 267 476 292 499 l 267 103 q 333 78 290 88 q 419 68 375 68 z "},"þ":{"ha":718,"x_min":-33,"x_max":663,"o":"m 206 572 q 365 617 286 617 q 581 538 500 617 q 663 315 663 458 q 624 140 663 217 q 517 22 586 64 q 360 -21 449 -21 q 206 3 276 -21 l 206 -203 l 322 -203 l 322 -289 l -19 -289 l -19 -203 l 97 -203 l 97 774 l -33 817 l -6 906 l 206 833 l 206 572 m 206 103 q 228 92 210 100 q 281 76 247 83 q 358 68 314 68 q 501 135 451 68 q 551 315 551 203 q 364 528 551 528 q 285 517 319 528 q 228 492 250 506 q 206 476 206 478 l 206 103 z "},"q":{"ha":714,"x_min":57,"x_max":740,"o":"m 399 -203 l 515 -203 l 515 24 q 438 -9 479 3 q 360 -21 396 -21 q 137 67 217 -21 q 57 311 57 154 q 143 535 57 453 q 374 617 229 617 q 624 538 535 617 l 624 -203 l 740 -203 l 740 -289 l 399 -289 l 399 -203 m 361 68 q 441 83 399 68 q 515 121 483 97 l 515 492 q 445 519 479 510 q 361 528 411 528 q 222 469 275 528 q 168 313 168 410 q 222 135 168 203 q 361 68 275 68 z "},"r":{"ha":581,"x_min":43,"x_max":560,"o":"m 257 551 q 363 599 303 582 q 483 617 424 617 q 536 614 533 617 l 560 468 l 469 449 l 456 526 q 367 514 413 526 q 285 479 322 501 l 285 86 l 421 86 l 421 0 l 60 0 l 60 86 l 176 86 l 176 483 l 43 529 l 72 615 l 257 551 z "},"ŕ":{"ha":581,"x_min":43,"x_max":560,"o":"m 257 551 q 363 599 303 582 q 483 617 424 617 q 536 614 533 617 l 560 468 l 469 449 l 456 526 q 367 514 413 526 q 285 479 322 501 l 285 86 l 421 86 l 421 0 l 60 0 l 60 86 l 176 86 l 176 483 l 43 529 l 72 615 l 257 551 m 390 961 l 472 900 l 267 672 l 215 711 l 390 961 z "},"ř":{"ha":581,"x_min":43,"x_max":560,"o":"m 257 551 q 363 599 303 582 q 483 617 424 617 q 536 614 533 617 l 560 468 l 469 449 l 456 526 q 367 514 413 526 q 285 479 322 501 l 285 86 l 421 86 l 421 0 l 60 0 l 60 86 l 176 86 l 176 483 l 43 529 l 72 615 l 257 551 m 294 661 l 82 799 l 119 857 l 294 769 l 469 860 l 501 799 l 294 661 z "},"ŗ":{"ha":581,"x_min":43,"x_max":560,"o":"m 257 551 q 363 599 303 582 q 483 617 424 617 q 536 614 533 617 l 560 468 l 469 449 l 456 526 q 367 514 413 526 q 285 479 322 501 l 285 86 l 421 86 l 421 0 l 60 0 l 60 86 l 176 86 l 176 483 l 43 529 l 72 615 l 257 551 m 160 -376 q 188 -332 167 -367 q 224 -265 210 -297 q 167 -240 189 -262 q 146 -185 146 -217 q 172 -123 146 -147 q 236 -99 197 -99 q 302 -126 274 -99 q 331 -193 331 -154 q 303 -290 331 -240 q 242 -381 276 -340 q 208 -418 208 -421 l 160 -376 z "},"ȑ":{"ha":581,"x_min":-29,"x_max":560,"o":"m 257 551 q 363 599 303 582 q 483 617 424 617 q 536 614 533 617 l 560 468 l 469 449 l 456 526 q 367 514 413 526 q 285 479 322 501 l 285 86 l 421 86 l 421 0 l 60 0 l 60 86 l 176 86 l 176 483 l 43 529 l 72 615 l 257 551 m 271 961 l 446 711 l 394 672 l 189 900 l 271 961 m 39 933 l 257 719 l 214 672 l -29 858 l 39 933 z "},"ṛ":{"ha":581,"x_min":43,"x_max":560,"o":"m 257 551 q 363 599 303 582 q 483 617 424 617 q 536 614 533 617 l 560 468 l 469 449 l 456 526 q 367 514 413 526 q 285 479 322 501 l 285 86 l 421 86 l 421 0 l 60 0 l 60 86 l 176 86 l 176 483 l 43 529 l 72 615 l 257 551 m 238 -81 q 300 -104 276 -81 q 324 -167 324 -128 q 300 -229 324 -206 q 238 -253 276 -253 q 176 -229 199 -253 q 153 -167 153 -206 q 176 -104 153 -128 q 238 -81 199 -81 z "},"ȓ":{"ha":581,"x_min":43,"x_max":560,"o":"m 257 551 q 363 599 303 582 q 483 617 424 617 q 536 614 533 617 l 560 468 l 469 449 l 456 526 q 367 514 413 526 q 285 479 322 501 l 285 86 l 421 86 l 421 0 l 60 0 l 60 86 l 176 86 l 176 483 l 43 529 l 72 615 l 257 551 m 290 878 q 436 835 381 878 q 508 711 492 793 l 418 694 q 290 789 406 789 q 164 694 179 789 l 74 711 q 145 835 90 793 q 290 878 200 878 z "},"ṟ":{"ha":581,"x_min":25,"x_max":560,"o":"m 257 551 q 363 599 303 582 q 483 617 424 617 q 536 614 533 617 l 560 468 l 469 449 l 456 526 q 367 514 413 526 q 285 479 322 501 l 285 86 l 421 86 l 421 0 l 60 0 l 60 86 l 176 86 l 176 483 l 43 529 l 72 615 l 257 551 m 25 -56 l 451 -56 l 451 -142 l 25 -142 l 25 -56 z "},"s":{"ha":625,"x_min":49,"x_max":567,"o":"m 438 508 q 376 528 404 522 q 307 535 349 535 q 210 510 251 535 q 169 444 169 485 q 304 350 169 364 l 361 344 q 519 290 471 333 q 567 169 567 246 q 497 32 567 85 q 317 -21 428 -21 q 185 -3 250 -21 q 72 42 121 14 l 49 182 l 144 206 l 165 108 q 313 71 231 71 q 422 97 378 71 q 467 167 467 122 q 440 225 467 207 q 342 251 413 243 l 281 258 q 124 317 179 269 q 69 438 69 365 q 140 571 69 524 q 308 618 211 618 q 424 606 372 618 q 524 569 475 594 l 549 438 l 461 418 l 438 508 z "},"ś":{"ha":625,"x_min":49,"x_max":567,"o":"m 438 508 q 376 528 404 522 q 307 535 349 535 q 210 510 251 535 q 169 444 169 485 q 304 350 169 364 l 361 344 q 519 290 471 333 q 567 169 567 246 q 497 32 567 85 q 317 -21 428 -21 q 185 -3 250 -21 q 72 42 121 14 l 49 182 l 144 206 l 165 108 q 313 71 231 71 q 422 97 378 71 q 467 167 467 122 q 440 225 467 207 q 342 251 413 243 l 281 258 q 124 317 179 269 q 69 438 69 365 q 140 571 69 524 q 308 618 211 618 q 424 606 372 618 q 524 569 475 594 l 549 438 l 461 418 l 438 508 m 408 961 l 490 900 l 285 672 l 233 711 l 408 961 z "},"ṥ":{"ha":625,"x_min":49,"x_max":567,"o":"m 438 508 q 376 528 404 522 q 307 535 349 535 q 210 510 251 535 q 169 444 169 485 q 304 350 169 364 l 361 344 q 519 290 471 333 q 567 169 567 246 q 497 32 567 85 q 317 -21 428 -21 q 185 -3 250 -21 q 72 42 121 14 l 49 182 l 144 206 l 165 108 q 313 71 231 71 q 422 97 378 71 q 467 167 467 122 q 440 225 467 207 q 342 251 413 243 l 281 258 q 124 317 179 269 q 69 438 69 365 q 140 571 69 524 q 308 618 211 618 q 424 606 372 618 q 524 569 475 594 l 549 438 l 461 418 l 438 508 m 408 961 l 490 900 l 285 672 l 233 711 l 408 961 m 383 1174 q 446 1150 422 1174 q 469 1088 469 1126 q 446 1025 469 1049 q 383 1001 422 1001 q 322 1025 344 1001 q 299 1088 299 1049 q 322 1150 299 1126 q 383 1174 344 1174 z "},"š":{"ha":625,"x_min":49,"x_max":567,"o":"m 438 508 q 376 528 404 522 q 307 535 349 535 q 210 510 251 535 q 169 444 169 485 q 304 350 169 364 l 361 344 q 519 290 471 333 q 567 169 567 246 q 497 32 567 85 q 317 -21 428 -21 q 185 -3 250 -21 q 72 42 121 14 l 49 182 l 144 206 l 165 108 q 313 71 231 71 q 422 97 378 71 q 467 167 467 122 q 440 225 467 207 q 342 251 413 243 l 281 258 q 124 317 179 269 q 69 438 69 365 q 140 571 69 524 q 308 618 211 618 q 424 606 372 618 q 524 569 475 594 l 549 438 l 461 418 l 438 508 m 313 661 l 100 799 l 138 857 l 313 769 l 488 860 l 519 799 l 313 661 z "},"ṧ":{"ha":625,"x_min":49,"x_max":567,"o":"m 438 508 q 376 528 404 522 q 307 535 349 535 q 210 510 251 535 q 169 444 169 485 q 304 350 169 364 l 361 344 q 519 290 471 333 q 567 169 567 246 q 497 32 567 85 q 317 -21 428 -21 q 185 -3 250 -21 q 72 42 121 14 l 49 182 l 144 206 l 165 108 q 313 71 231 71 q 422 97 378 71 q 467 167 467 122 q 440 225 467 207 q 342 251 413 243 l 281 258 q 124 317 179 269 q 69 438 69 365 q 140 571 69 524 q 308 618 211 618 q 424 606 372 618 q 524 569 475 594 l 549 438 l 461 418 l 438 508 m 313 661 l 100 799 l 138 857 l 313 769 l 488 860 l 519 799 l 313 661 m 308 1053 q 371 1029 347 1053 q 394 967 394 1006 q 371 904 394 928 q 308 881 347 881 q 247 904 269 881 q 224 967 224 928 q 247 1029 224 1006 q 308 1053 269 1053 z "},"ş":{"ha":625,"x_min":49,"x_max":567,"o":"m 379 -87 q 529 -196 529 -87 q 489 -279 529 -249 q 379 -310 449 -310 q 265 -284 299 -310 q 231 -258 232 -258 l 261 -207 q 317 -233 285 -222 q 376 -243 350 -243 q 453 -196 453 -243 q 432 -159 453 -169 q 361 -149 411 -149 l 310 -149 l 310 -21 q 183 -3 246 -19 q 72 42 121 14 l 49 182 l 144 206 l 165 108 q 313 71 231 71 q 422 97 378 71 q 467 167 467 122 q 440 225 467 207 q 342 251 413 243 l 281 258 q 124 317 179 269 q 69 438 69 365 q 140 571 69 524 q 308 618 211 618 q 424 606 372 618 q 524 569 475 594 l 549 438 l 461 418 l 438 508 q 376 528 404 522 q 307 535 349 535 q 210 510 251 535 q 169 444 169 485 q 304 350 169 364 l 361 344 q 519 290 471 333 q 567 169 567 246 q 516 48 567 97 q 379 -17 465 -1 l 379 -87 z "},"ŝ":{"ha":625,"x_min":49,"x_max":567,"o":"m 438 508 q 376 528 404 522 q 307 535 349 535 q 210 510 251 535 q 169 444 169 485 q 304 350 169 364 l 361 344 q 519 290 471 333 q 567 169 567 246 q 497 32 567 85 q 317 -21 428 -21 q 185 -3 250 -21 q 72 42 121 14 l 49 182 l 144 206 l 165 108 q 313 71 231 71 q 422 97 378 71 q 467 167 467 122 q 440 225 467 207 q 342 251 413 243 l 281 258 q 124 317 179 269 q 69 438 69 365 q 140 571 69 524 q 308 618 211 618 q 424 606 372 618 q 524 569 475 594 l 549 438 l 461 418 l 438 508 m 313 875 l 519 738 l 488 676 l 313 767 l 138 679 l 100 738 l 313 875 z "}}}
